<mxfile host="app.diagrams.net" modified="2022-03-15T06:32:38.469Z" agent="5.0 (X11; Linux x86_64) AppleWebKit/537.36 (KHTML, like Gecko) Chrome/96.0.4664.113 Safari/537.36" etag="7F94T2R0tBtKSmqCEods" version="17.1.2" type="github" pages="2">
  <diagram id="T67OlIUBfix2hTQOuYle" name="Programming Paradigm">
    <mxGraphModel dx="1130" dy="637" grid="1" gridSize="10" guides="1" tooltips="1" connect="1" arrows="1" fold="1" page="1" pageScale="1" pageWidth="1700" pageHeight="1100" math="0" shadow="0">
      <root>
        <mxCell id="0" />
        <mxCell id="1" parent="0" />
        <mxCell id="RYTsVkqCa-Zjn0ZfqpDr-2" value="Clear + Understandable" style="rounded=0;whiteSpace=wrap;html=1;fontFamily=Comfortaa;fontSource=https%3A%2F%2Ffonts.googleapis.com%2Fcss%3Ffamily%3DComfortaa;fontSize=24;fillColor=#d5e8d4;strokeColor=#82b366;" vertex="1" parent="1">
          <mxGeometry x="370" y="240" width="340" height="80" as="geometry" />
        </mxCell>
        <mxCell id="RYTsVkqCa-Zjn0ZfqpDr-3" value="Easy to Extend" style="rounded=0;whiteSpace=wrap;html=1;fontFamily=Comfortaa;fontSource=https%3A%2F%2Ffonts.googleapis.com%2Fcss%3Ffamily%3DComfortaa;fontSize=24;fillColor=#d5e8d4;strokeColor=#82b366;" vertex="1" parent="1">
          <mxGeometry x="740" y="240" width="340" height="80" as="geometry" />
        </mxCell>
        <mxCell id="RYTsVkqCa-Zjn0ZfqpDr-4" value="&lt;span style=&quot;color: rgb(0, 0, 0); font-family: comfortaa; font-size: 24px; font-style: normal; letter-spacing: normal; text-align: center; text-indent: 0px; text-transform: none; word-spacing: 0px; background-color: rgb(248, 249, 250); display: inline; float: none;&quot;&gt;Programming Paradigm is the way to organize code&lt;/span&gt;" style="text;whiteSpace=wrap;html=1;fontSize=24;fontFamily=Comfortaa;fontStyle=1" vertex="1" parent="1">
          <mxGeometry x="570" y="100" width="290" height="70" as="geometry" />
        </mxCell>
        <mxCell id="RYTsVkqCa-Zjn0ZfqpDr-5" value="Easy to Maintain" style="rounded=0;whiteSpace=wrap;html=1;fontFamily=Comfortaa;fontSource=https%3A%2F%2Ffonts.googleapis.com%2Fcss%3Ffamily%3DComfortaa;fontSize=24;fillColor=#d5e8d4;strokeColor=#82b366;" vertex="1" parent="1">
          <mxGeometry x="370" y="340" width="340" height="80" as="geometry" />
        </mxCell>
        <mxCell id="RYTsVkqCa-Zjn0ZfqpDr-6" value="Memory Efficient" style="rounded=0;whiteSpace=wrap;html=1;fontFamily=Comfortaa;fontSource=https%3A%2F%2Ffonts.googleapis.com%2Fcss%3Ffamily%3DComfortaa;fontSize=24;fillColor=#d5e8d4;strokeColor=#82b366;" vertex="1" parent="1">
          <mxGeometry x="740" y="340" width="340" height="80" as="geometry" />
        </mxCell>
        <mxCell id="RYTsVkqCa-Zjn0ZfqpDr-7" value="DRY" style="rounded=0;whiteSpace=wrap;html=1;fontFamily=Comfortaa;fontSource=https%3A%2F%2Ffonts.googleapis.com%2Fcss%3Ffamily%3DComfortaa;fontSize=24;fillColor=#d5e8d4;strokeColor=#82b366;" vertex="1" parent="1">
          <mxGeometry x="560" y="450" width="340" height="80" as="geometry" />
        </mxCell>
      </root>
    </mxGraphModel>
  </diagram>
  <diagram id="-NQKkIDQorZTEkp6X1Cu" name="History">
    <mxGraphModel dx="1583" dy="863" grid="1" gridSize="10" guides="1" tooltips="1" connect="1" arrows="1" fold="1" page="1" pageScale="1" pageWidth="1700" pageHeight="1100" math="0" shadow="0">
      <root>
        <mxCell id="UT8-AXGc3I82vWqhKo7S-0" />
        <mxCell id="UT8-AXGc3I82vWqhKo7S-1" parent="UT8-AXGc3I82vWqhKo7S-0" />
        <mxCell id="nfG8EvHX2ye17qV-Rgv0-1" style="edgeStyle=orthogonalEdgeStyle;rounded=0;orthogonalLoop=1;jettySize=auto;html=1;fontFamily=Comfortaa;fontSource=https%3A%2F%2Ffonts.googleapis.com%2Fcss%3Ffamily%3DComfortaa;fontSize=24;entryX=0;entryY=0.5;entryDx=0;entryDy=0;" edge="1" parent="UT8-AXGc3I82vWqhKo7S-1" source="nfG8EvHX2ye17qV-Rgv0-0" target="nfG8EvHX2ye17qV-Rgv0-2">
          <mxGeometry relative="1" as="geometry">
            <mxPoint x="520" y="270" as="targetPoint" />
          </mxGeometry>
        </mxCell>
        <mxCell id="nfG8EvHX2ye17qV-Rgv0-0" value="Machine Code" style="rounded=0;whiteSpace=wrap;html=1;fontFamily=Comfortaa;fontSource=https%3A%2F%2Ffonts.googleapis.com%2Fcss%3Ffamily%3DComfortaa;fontSize=24;" vertex="1" parent="UT8-AXGc3I82vWqhKo7S-1">
          <mxGeometry x="270" y="220" width="150" height="80" as="geometry" />
        </mxCell>
        <mxCell id="a5m4q7IpltlXihAYWIj0-2" value="" style="edgeStyle=orthogonalEdgeStyle;rounded=0;orthogonalLoop=1;jettySize=auto;html=1;fontFamily=Comfortaa;fontSource=https%3A%2F%2Ffonts.googleapis.com%2Fcss%3Ffamily%3DComfortaa;fontSize=24;" edge="1" parent="UT8-AXGc3I82vWqhKo7S-1" source="nfG8EvHX2ye17qV-Rgv0-2" target="a5m4q7IpltlXihAYWIj0-4">
          <mxGeometry relative="1" as="geometry">
            <mxPoint x="645" y="370.0000000000001" as="targetPoint" />
          </mxGeometry>
        </mxCell>
        <mxCell id="a5m4q7IpltlXihAYWIj0-5" style="edgeStyle=orthogonalEdgeStyle;rounded=0;orthogonalLoop=1;jettySize=auto;html=1;fontFamily=Comfortaa;fontSource=https%3A%2F%2Ffonts.googleapis.com%2Fcss%3Ffamily%3DComfortaa;fontSize=24;entryX=0;entryY=0.5;entryDx=0;entryDy=0;" edge="1" parent="UT8-AXGc3I82vWqhKo7S-1" source="nfG8EvHX2ye17qV-Rgv0-2" target="a5m4q7IpltlXihAYWIj0-6">
          <mxGeometry relative="1" as="geometry">
            <mxPoint x="1140" y="260" as="targetPoint" />
          </mxGeometry>
        </mxCell>
        <mxCell id="a5m4q7IpltlXihAYWIj0-8" style="edgeStyle=orthogonalEdgeStyle;rounded=0;orthogonalLoop=1;jettySize=auto;html=1;entryX=0;entryY=0.5;entryDx=0;entryDy=0;fontFamily=Comfortaa;fontSource=https%3A%2F%2Ffonts.googleapis.com%2Fcss%3Ffamily%3DComfortaa;fontSize=24;" edge="1" parent="UT8-AXGc3I82vWqhKo7S-1" source="nfG8EvHX2ye17qV-Rgv0-2" target="a5m4q7IpltlXihAYWIj0-7">
          <mxGeometry relative="1" as="geometry" />
        </mxCell>
        <mxCell id="nfG8EvHX2ye17qV-Rgv0-2" value="Procedural Programming" style="rounded=0;whiteSpace=wrap;html=1;fontFamily=Comfortaa;fontSource=https%3A%2F%2Ffonts.googleapis.com%2Fcss%3Ffamily%3DComfortaa;fontSize=24;" vertex="1" parent="UT8-AXGc3I82vWqhKo7S-1">
          <mxGeometry x="540" y="230" width="210" height="60" as="geometry" />
        </mxCell>
        <mxCell id="a5m4q7IpltlXihAYWIj0-4" value="" style="shape=image;verticalLabelPosition=bottom;labelBackgroundColor=default;verticalAlign=top;aspect=fixed;imageAspect=0;image=data:image/png,iVBORw0KGgoAAAANSUhEUgAAAt8AAALCCAYAAAAGQr+BAAAABHNCSVQICAgIfAhkiAAAABl0RVh0U29mdHdhcmUAZ25vbWUtc2NyZWVuc2hvdO8Dvz4AAAAtdEVYdENyZWF0aW9uIFRpbWUAVHVlIDE1IE1hciAyMDIyIDA4OjU0OjA0IEFNICswN1GJ4EIAACAASURBVHic7N13eFRV+sDx7/TJTCaT3nuFQEILPTQpKopKESvqiiJ2F+squq5l3VXXdVfFrqhrbz8FEZAqovQSAoSEJKSXSe+Z+vtjSGCchPQE8Hyex8fk3nvuPffeIfPec99zjsTVNcyGIAiCIAiCIAh9TjrQFRAEQRAEQRCEPwoRfAuCIAiCIAhCPxHBtyAIgiAIgiD0ExF8C4IgCIIgCEI/EcG3IAiCIAiCIPQTEXwLgiAIgiAIQj8RwbeAVCpDq3bF1cVtoKsiCEIXuCiUPDhpNuNCopzWuSrVPDZ1DkP9ggegZo7c1Roujk3gb9Pn4q3RDXR1BEEQBpR8oCvQ3zx1XixIvo7kIdPw0HmRmn2Q575YTk1D9UBXbcD8d+m7xAUPYeVPb/Dx5ncHujrnjKET5zN78b84ceQXvnjx+oGuTp9LSF7IxTc/T3nRcd59bMZAV6fXnWvn56lx5aFJFxOi98Rf58b+ohyazebW9bNihhLvG0ictz9v7dnKLyfS+72OkZ4+zBk0nFGB4cik9raepOBw1qYf6ve6CIIgnC3+UMH36NjxPLzwKfQa99ZlSbHjWDh5Ee+sfXUAazZwVAoVUQFxAOxI2zbAtRHORCKRotF5onX3RanSYrVaaKqvosqQi9Vi7ngHPaRUawBobqjp82MNhHPp/Ly1rjw2dQ6+WjeOlBby8q/rHQJvgG8O78FssbAwcTRLx0xFLpGyJTutX+rnqXHlxhETSAqKACCrwsDOvCz2FGZTXPvHbegQBEGALgbfnp4x+PmNACyYzSZMpnqam6uoqyuhrq4Qm83aqf24uHgSGTkLo7GWjIwfulPvLkseMo3l1/yd+qZ6Vqz+F4dzDjJn7HwuSrrcIRg/F/m6+/HSre9wIGsXL379dJfKxgUPQS6TU1ZdSmZR/7eMCZ03+sLFTF34mNNyi8VMzpHt7N/0IZkHN/bZ8eVKFwAa68+u4EnlouPe1+wtqW8+NJHqsoJu7ae/zi9h0lVc/Kd/knVoK1/9+8Yul3dXa1g+9TJ8tDp25Wfx2o6NmK1t/+39Pm0/VU313Dp6CreMnozZZu3zFvAwdy8emXIpbio1O/Iy+eHYQbIqDH16TEEQhHNJl4JvuVyNVCoFpCiVCpRKDVqtD56eMZjNjRQV7aemJrePqtp9Ef7R/OWqZ6mur+bh9+7gREkWAGv2fMdFSZdz6MSBAa5h90kkEh5c8CR+Hv7sO767y+Xrm+p4bdWL5BlO9H7lhD5htVowNTdgtZiRyZUo1VoiE6YQmTCFA1s+Zv2HzgF6byjNTWXX2rcw5B3tk/0PtHPh/FRyOfcnX4SPVsfOvExe3bEJaweNHj+fSMdis3H72GncmjSF8oY6jpYW9lkdl465ADeVmjd2bWbbAKS6CIIgnO26FHyXlh7CYEhFIpGjULigULii1Xqj14ejUGgICZlAbq6F2lrHlieVSo+HRyQKhRaFQoNSqe3VkzgThVzBIwufxmI1cf/bS8gvO/VwMCJyNKVVJfycuqHf6tPb5k+8luGRSdhsNvYe39Hl8plF6aLF+xyTfWgLX/9nMWBPRQmOSSLpwluIGTGL4VOvoyg7hUPbPu/946ZuIzv1/E1N6vH5SSTI5UosFjM2q6X3KnaaG0ZMJNLTh6OGIlbs7DjwbrE9JwN3tYZrh43j7nEzeGTdl9Q0N/Z6/VyVakLdPTFazPyae7zX9y8IgnA+6HLOt81mw2Yz0dxsorm5hrq6QgyGI4SETMDVNRBPz5g2g28vrzhsNitWqwmbzdZrJ9CRP828g0j/aF75/p8Ogbefhz8LJy/i2c8epcnY1Lo8PjSRx695DovVyvUvzHHYl1rhwndPbqHJ2MgVT01zOI+rp9zIlZMW8eHGt/juty/w1Hkzf+I1TBp6AR46Lw5m7eW5zx+nvqmu3boOjxrNxUmXMzRsGHqtB8WVBXy/40u+3/GV07Z3znmAK8Zf1fq7RCLhq8d+ctjmUPZ+lr29xGGZq4sbCeEjSIwYQWLESKICYmhorufKZy/CYu04b3hM3AQuG3clsUHxqBQqTpRksSVlPd/99kWbgUBvXJfOmLnoGYaMn8sXL15P+NDJxI+7HKlMxtYv/0lh1n6mLHiE8CGTaKqr5Id3llGUfbC1bFzSbGYvfoGmhloaayuoLD2BIf8Y2albKcrq/luRMRctYerCR8lM2czX/7kZfve5l8rkjL14KYPHXobeO4TqsjyKsvazY80bVJZkd+oYNpuVvPRd5B/fy/x73iYy8QJGXLCoNfj2Cohm8bOOD5c1FUW88cB4AFzd/YgfdwURQyejdHHlo6cvB0AmV7DszXQkEonTMXPTdvDZ81e3WZ+e3IfevC4d6e75nU6lcWPohHmED5mEb0g8Gr0PMpn9T+ralY+Q8vNnDtsvfeFX3LwCW3+PTJjCQ++dcNimsa6CV+4Z2ebxhgeEMjViEDXNjbzy20/tppq054djB4n19icpKJzFSZP49/b1XSrfGXXGJoprq/HX6bkgcjA/HT/c68cQBEE41/VKh0ur1YzBcBRX10A0Gi+n9bW1+Rw58nlrsNqS893Xwv0iWZB8HUdyU1i182uHdToXPa+tfpHd6b+1LpNJ5dx3xV/w1vvy69GtTvuLDIhBKpFyvPCY0wPEkLBE3DR6iisKmTbsQu65/GE0Ki0WqwWFTMHYuGQuHTOfz3/+wGm/aqWGB+c/zuSEGZgsJnJKsmkyNRLmG8ndlz1MRW05vxze7FDGUF3K6p3fEBMUR1zwEI4XppOWl+qwTWrO/tafFXIF/126kqiAGCQSCU2mRuqb6pFJ5RzJPdRh4C2Vyrh51u1cNflGbDYb2SWZSIBBwfHEhyYwKnoMyz9c5lSuJ9elK5RqLUq1ljlLX0Wr98HUXIeLqyezF7+AydiMxWzExdUdjc6TGdf9jY+eueLUtVFpaKyrRq3Vo/Pwxzc0nrik2SRf8WeKsg+ybuUjlHYxFSEkbiyT5z9ETXkhP7z9Z6fAW+8dxGVLXyMgcjgNNeWUF2fi5R+Fd1As0SNm8fV/FlOYua/Tx7NZLRzY8imRiRfgHRgLEgnYbJiMTexZ/x4qjQ61Vk/MiFmoNW7IFSqS5y5j1IybkckVANRXn8rLlcqU7PrxDeRKF5RqDQqlBne/cPzDhp6xHj25D31xXdrT3fNrERY/kcuWvoKLqyc2m42G2nJqyvIAUKi0SKUypzL5GbuRHJfi7htKQMQw6qsN5KY5vq0yNbf9ECqTSLl+uP2B6dODO6lu6l6r9ft7tzHMP4SkoAgG+QSQZijq1n7O5K3dW3l06qUsGj6B4tpqDpXk9/oxBEEQzmW9NtqJyWT/MrC2EcR1tiNmb1uQfD0SiYR3173mFCwfLzzG8cJjDsvmT7yaCP9oAA7npDjtLyZoEAAZBc4jBoT52cfZnZo4i7GDJvD++tdZv3c1MpmcF295g+jAWPw9Ap3KKRVKXrzldeKC49l44EdWrP5X67CH111wCzfNuI1ZIy9xCr6/+PlDAB6+8inigofwza+f8NO+9juvmswmvtz2EcWVhRRV5FNZV8FNM5dy3bTF7M/sOFf80aueZkrCTPZk7OT5L5+gsq4CgCFhw3j2xpcZO2gSUxNnsiXFsfW9u9elq6wWEwBlBWmsfPJizMZGFt7/P0LixrLm3Qc5tmcNAZHDWbT8//AJGexQNnX7V6Rut79dUKi0ePpHEBI3hhHTFhEQMYyrH/6MlX+9hJryzgURru6+XHb7a9iA716/g6b6Kof1Upmc+fe+j5tXEP/32u2k7/0RALlCycxFz5CQvJDZN7/AO49N79I1KC+yv+aXSqVIJFJsNgs15fls+uyp1uM+8PZxFCoXrn74M/zDEynM3Edh5n7KCtKpNpx6M2RqrmfrV/902H/8+Cu49NaXz1iHntyHvroubenu+YG91fyKO15HpXHjl29fYt/GD2jqxFClq9+6F7B3uAyIGEZJ7hFWvXl3p+o7MiiMAJ07ZfV1bM/N6FSZtlQ1NbD1xDFmRMVzSVxinwTfx8qKeH3nJu4aN517J8zk3tWfUG9q7vXjCIIgnKt6bZIdrdYbgPr60t7aZY946ry5YPhFZBUfJyW7cy1lblp3rCdzNY+0FXwH2oPv40WOwbdaqcbPPQCAEJ8wbv3PNXy/48uTrcu1HM61v1o3VJc47fP6abcQFxzPZ1tX8o8vnnAYb3zD/tUAeLg6v01oER869GR9Ox43d9PBtRzJTWkNnEdGjwVg//FdZyyXFDOWKQkz2Z+5myc+vK+1PMDhnIN8s/0TAKYlXuhQrifXpassJ4dZO7ZnDc0NNVjMJkpy7K+889Pt51ecnYLNZkOuUCFpo2US7EFZSU4qe9a/x0dPX0Fh5j7UGj0T5tzZqXpIZXIuv2MFWjdvtnz+bJtpK0kz/4R3UCy/fPuv1gATwGwysv7Dx6ipKMIzIIqg6KQuXQPfk8FsRXFmmznHVosZm82GRCLlyK/f8tp9o/nkuSvZ8sXfSd3+FXnpZ/4cdEZP7kNfXZfeFhg5ApXGjYbaCn5d/UqnAu+emhBqbxRYm5GCpYvpJr+3Os3+mRweEIpK3jejze7Iy2R3QTYuCiWDfXv+cC0IgnA+6ZXgWyqV4+MzBJvNisFwpDd22WNzJ1yFQqbgm+2fdrrMe+tW0GhsxGwxk17ofB7RLcH371rMQ3zCkUqkGKpLeODtpZTXOA6r5efuB0BhRZ7D8nC/KK6ctIic0ize/+kNp+MZqg38ZeXdvLGm7dY4vcadQK8QqhuqKCjv2igzGpWWuKDBVNdXkV2S2e52UqmM22b/GYB3172GqY3xpA+efLgJ8QlzWN7d69IdLS2uEsmpYO73b2FsNmuXOsI1NVTz6/f/ASB8yJROlZm68FGCopM4tmcNeze83+Y2I6f/CZvNxsGfnTtFWswmsg/Z33KExI3pdF3lChXDp9kn+tm36aN2t2sZDzxtzw80nvYQ1Vt6ch/64rr0hcrSHKwWsz115tonUahc+vyYwXpPANLLev6gaqivpbqpEalEir+rvsf7a0uI3otQvRcVjfV90rouCIJwLuuVZo/AwNEolTpKS1Nobh7YMYB1Lm58vXxDa0eqB+Y/zgPzH29z22P5R7hrxalxdkN9I9CqXUnLS8VoMjpsq5ArCPONoNnUTK4hx2FduG8kAGl5h2kyOediRvjFAs6pLIum34pcJueDDW+2trifzmq1sCe9/RFMBoW0tHo7d1rryLDIJKRSGfszd5+xA+zgkKGE+0VxLP8wx/Lb7jzV0lqvUbs6LO/udekOq8V+/dpr0e4shVKDf/hQdF6BqFx0KJRqANy8ApHK5G1OZuPhG8HUhY+i0XkydOICqkpP8ON7D7W5f5WLDjevQOqqSvAOjEauVCNXKJEp1MjlKuRKFVq9DwAyubL9ikokSKUy1Bo3wodMYuT0GwmMGsmR3/6PA1s+breY1WpChgKptG9aPLt7H3rtuvSDuqoSVr91Hxfe9Bwjp9/I4LFz2PvTyk6nn3SVTCLFT+sG0GsT1BTWVqFXuxDk5kFOVXmv7HNm9BAS/IMJ0XuiV7uwMy+Lz1N2UXdah3ZBEAShF4JvH5+h6PVh1NYWUFbWP7OnnYnVZmXjgbXMGHFx67KdadsoqzUgl8qRSGTIpFJkUjmHfxe0DgkdBrQdDEb4RSOXyckoTHMKlCP8YwBIL3DulBfgEYSfhz9FFfkO6RUyqZwxsfYOVIdO7Hcq1xnxYQkn69v1qZpHRo8G6DDfOz40EYATZ2gd9/cIAqCipsxheXeuS3e19CuQyroXfPuGxpN8xZ+JSJjWOmLF7ylV2jaDK713EGMuWtL6ENNQV4nJ2HaHOO8g+wOHq7sfix7/zmm9xWLGajHS1FCNxWx0Wg8QNWw6D73rOOpHae4R1rx7P6nbv26zTAur2QzK7l+njnT3PvTGdelPabtXk3N0O+MuuZMRF9xA8txljL7wFn79/j/s2/QhFrOp146llMuRSaXYsGHsxIhEnWE8mR4klfZa5iFjQ6IY7GNPMyurr6O8oY5GU+9dB0EQhPNFj4Jvf/8ReHnFUVtbQF7e9gHrWHm6+qY6sorTgYv5+dAGEiJGEh04iPc/eJ3MojN3VIoPsweah3Odg++WlJO2OltGB9qnZz9e6BxkDo+yB7l7Mxzzab3cvFArNVQ3VFFVV9nxibVhcIg9+D7SRn07MuJkvTrK9/bS2XP5iyrbf3Uc5hveZj26c126y2azPxC1NcpERyITL+CKO9+gpjyf1W/eQ/GJg1SXFSCRSFFp3LjjpV3IFcp2A8qco7/yxb8WodbouelvawiMHMGEOXez/TvndKGWAL2pvop3l8/EYjJiMZuwWIydniLeYjZRXnSc8sLjVBRnknNkO/kZnZtgqeXBUdJHLd/dvQ+9cV36W2NdJZs/f4bd694iaebNDJ92PdOufpwRFyzi8xcXUV3W83QqgEaTkZrmJtxUavxd9eRV9zxdKMDNnm5SVFPVwZad98K2Nfhq9cR4+zIzaihz40eRFBTOExu+xWjpm3HPBUEQzkXdavaQSCQEBY3ByyuO6upc8vJ+OSsC7xZxwfEArN37PXetuJGq+ir+fds7rcvbE3tyNJPsYscgXSFXMGO4vSX99/neAFEB9la79DYC85HR9vzUPRm/OSxXyu3pDCqFClk3A6HYoMHt1ulMPHXehPlGUlJVRFHlmafibkkXcf1dSkkLmVTOJWPmYbPZ+Gm/42gr3bku3dXy+Wtr3OYzkckVzL75BaRSKR//fT7H9qxpnZ7cZrPSVF/Vmp/cXipFSw5zY10Fq968B6vVwvg5dxMYOcJp28qSE9hsNtRad7Ru3jQ1VGMyNnQpwDxx+GdW/vViVr1pD/A7G3gD2E521uvOQ0qn9t/N+9Ab12Wg1FWVsuXLf/DmQ5PIS9+Fu284sxe/2H6Bkw8aXckVL6q1P6AH6z16VFcAlVyBt8b+77mwtveC72azmbzqcjZlHuWJjd9QXFtNiN6LWG//XjuGIAjC+aDLwbdcriI8/ALc3SMoLU0lP//Xfp00pzNagr6s4uOUVhXz0Lu3U1lbzl+vex4PV892y/l52F+Znj6ah1qp5olr/0FCxIiT+3ScDdLX3Q83jZ6SymKHkUpaDI+0j8zQMrJHi7IaA1abFbXCpbWFuCs8dV5o1a40mRppNDZ0qWziyXPJLOx4Zsv8spyTZdqe+OPy8Vfi7xHIhv1rOJZ/qpNqd69Lt538CEq6+BrdNyQejZsX9TVlNLbzBqKlw6Bc0XGucX76Ln759iWkUhmX3vYyCpXjbK6NdRXkHN0OwPRrn0TloutSfXuqpeW7r4Lv7t6Hgb4uvaGxrpJda14HwD+8/fHCq0pPAOATFNupzxRAaol9OvjpUUN6VklgetRgpBIpx8qKaDT1TQqP2WpFLpNisVp7LadcEAThfNGlb0gXFw8iIy9ErXYnN3c7BkNqx4UGgLvW3jrUks5R01DNoyvvQ+eiZ+klzhPBgL0FV3myI9eomHFIJBISwkfw8m3vUd9U37ovQ3UJCrkC7cmW4KiAk+kobaRW6LXuuLt6UNdUS1VdJa4ubihOTmjSZGxg38mUi0eveprIk+OLn16fwaEJTBt2odN+wT6tOIBCpnAYJ1urdmVi/FSum7a43esT6hMOgKuLDunJ/UgkEoK8Qpk18lJcXdxat92bsZOG5npigwZz5aRFrcvlMjlXTrqepbP/THV9Fe+se9XhGN29Lt3V8gAooWstro319gcDnYc/saMucqynTyiXLX21NRCUKzWd2ueONSvITt2Gu08YM6570mn9xo+fpLGugpC4sdzy901MmvcAIbFj+iXg7KgVv8f77+Z9gIG9Lr3BL2wo4y+7B+CM09SX5h3FbDKi1roz7553CYwc0eH92JKdhsliYbBPQI9akhUyGbNj7el16zL6bvbJaxPH4a3R8WnKDmqbRYdLQRCE03Uh30FCePh0pFI5FosRP79E/PwS29yyqiqTsrJTqRB+folotae+MFpGWpDLtQ4zXTY311BQ0P7oHp0hlcrQqnU0GhscZm0sKM9l1c4vmT/xWlauf90p3cJiNZNZlEFs0GAev+Y5jGYTSrmCVTu/5tVVL/Dlo+sA+PeSt/HQefHaqhdZt3cV0YH2Vva2Uj/ctfZWdle1jrfv/Ywg71AeXXkvB052cnz9h5d4Jex9Ar1CWHHXR5woyaahuQ6dixtB3qHIpDK2HFzP5oPrnPZdWVtOcWUh/h6BvH3fZ+SUZOHqoiPQM4QmUyPf7/iy3WtUfbIlOjFiJCsf+IZmYxP+HgGolRpKq0o4ln+EusYa+3HqKnh77X+557JHWHLxPVw2bgEllUXEhcSjVrhwNC+Vpz95hIpax86WPbku3dPS5Nq1oK+q9ARZKVuITJzKFXe+QfGJQ9RXl+AVGIPeO5RD2z6nNPcIvqHxKNXajncIYLPxw9v3ctPffiQh+UoyD25yGLe6vOg4/3t2PjOu+xsRQycz/tK7GH/pXQAYm+pprC3H2NTAh0/P6XHHPa+AaEZfeEvr7+qTo2ZMmrvMoaU/Y986MlNOTeSk1fswae79DvtyP5nb7+kfyUU3/cNhXebBTWTsX0937wP0znW56sFP7J1K29DUWMP/npnbw/ODmBGzSJ67DFNzAzabFYVSg87TH5eTb9Xyju1k7cpH2j3P5sZaVr15N5ffsYLwIZMIHzIJU3M9tZUlNDfW8t2KO50mdKpoqGNdRiqXDhrGtcPG8tSmVVi7keo3OzYRDxctmRWl7MprvxN1T4wJjmR2XCI78zL5Mb3rncEFQRDOd10Ivm1YrWakUjkymRKZrP3XpTKZ2uF3hcIVFxfndA+pVOqw3GLphRYSmw2rzYJcpkAikTikxKzZ/X9cOWkRQyOGt5nr/NI3T/PA/CcJ9g7meFE6n2/9iB1pPwPw9S+fMC/5GvLKcnh11Qut09JHB7R0KnQOMvMMJziYtZdw/yhKq0p45fvnHSb8yTVks/S/13HjzNsYFT2OMN8ImkyNZBSkseXQBjbsX01JZXGbp2m1WXnm079w3xWPEukfTaBXMEdyU/n6l0/YeGAtDc317V6i9XtXMzJ6DCOjxuKh9SC/MZ81u7/jt7RtpGTtdfpSX73zG/IMOVwz5U9E+EcTFzyYfEMum1PW8+32T9oc+7sn16U7WltcuxH0fbfiDsZcvIRBYy7FKzAGnYc/RdkHWP/BY5w48gtX3Pk6vqHxqNrJe29LQ609//uqBz/hopueoyhrP7Wn3cvKkmy+fOkGvAKiiRp2Af7hibj7hqHz8MdF54VC7dorI2a4eviROPlqp+UxIx3fqBQcd7z+Khddm+XAPoPn79eVFdhTmHpyH6Dn18X9d2PNn86Qd6rvQXfPD0Dj5o1PsP3Njs1mw9hYS6Uhl2N71pK+Zw0njm5vzetuT8a+dXz09GUkJC8kMGokbl5B6H1CkUpl7aY/fXN4L6ODw4nx8mfB0CS+ONS1zsqx3v7MH5KE0WLh7d1b6atkwQVD7Sll3x7p2b9pQRCE85XE1TXs7ErY7gUfP7QKX3d/Fjw7k+rTpvaWSqT88NR23l773y5NviMIgnA6qUyOTCY/OQRi/3UKjfT04fFpl6GUyXl791a2ZHdueNdAnTt/nX45rko17+79mU2ZzulgvUEmlfL+vMXIpFKe3bKKI6WFfXIcQRCEc1nvDfJ6FimutP/Bb5k+vYVe645cJiezqOOOhoIgCO2xWsyYjE39PhpLVoWBFTs3YbPZWJw0icnhsR2WCXLz4NGpl+KqVPPDsZQ+C7wBLFYrh08G3HePn0mif3CfHUsQBOFcJVMq3Z8c6Er0NolEyoT4KYT7RfJz6kaajI1IpTLuvPQBtGot769fgaUL04wLgiCcLQprqihrqCMpKJxRweE0mowcLy9tc9soT1/+MuUS9GoNGzOP8tH+7X1ev8OlBcR6+xOocyc5LJZE/2AazWYM9TVYzrKRsQRBEAbCeZl2opAreOPujwn1iaC2sZqjuYcJ9g7B082bh9+9q1uT0giCIJxNksNjWZI0BZlUysbMo6zc94tDf42JYTHckjQFpUzGuoxUPtq/vc/yvH9PIpGQHBbDnEHDCXKzjz7VZDaxrzCHH9NTyKow9FNNBEEQzj7nZcu31Wpl08F1+Oh98fMIxE2j50jeIf72v4fOOE26IAjCuSK3qpzj5aWMCo7gqKGA1BLHTuTBeg+SgiL4PHUXX6X2ZCSh7tfvp+OHOWooApuEQL0HkR4+/HIig/KGun6vjyAIwtnivGz5FgRB+KPQqdTtjqXt7qKhqrFrk3D1FYVMxmCfAFKK8zveWBAE4Twmgm9BEARBEARB6Cfn5WgngiAIgiAIgnA2EsG3IAiCIAiCIPQTEXwLgiAIgiAIQj8RwbcgCIIgCIIg9BMRfAuCIAiCIAhCPxHBtyAIgiAIgiD0ExF8C4IgCIIgCEI/kQ90BQThfJE89XJuXvoERQXZPHb/goGuzjnp6qhmliWeeVKYmT+4U22UtP7+nwl1jPcztbt9aqWcm7foeq2OgiAIgtATIvgWhF6iVrsA0NBQO8A1OfeVNko5Udv2izmz1fH39GoZMonzXGFahY0hHpa+qJ4gCIIgdFuXgm9Pzxj8/EYAFsxmEyZTPc3NVdTVlVBXV4jNZj1jeZXKDW/vwWi1/shkSszmBmpq8iktPdRhWeHsodP5MnfuWxQU7GbjxmcHujo95qJx5bX3tgLw0N2XUmYo6tZ+lCo1APV1Nb1Wt7ZMmnYFf7rtcQ4d+JV//+PuPj3WQPmlWME/Dmg6te1rh13aXD7Ew8z7U8WDkCAIgnB26VLwLZerkUqlgBSlUoFSqUGr9cHTMwazuZGiov3U1OS2WVanCyA4OBmpVIbF0ozJVItSqcfbezAuLl7k5m7Dam3/1bFwtpAw8buo8QAAIABJREFUffpfcXPzZ8eO3QNdmbNKbnYaa1d9RF5u+kBXRRAEQRCEs1SXgu/S0kMYDKlIJHIUChcUCle0Wm/0+nAUCg0hIRPIzbVQW1vgeBC5mpCQidhsEnJzt7WuVyi0hIZOQqv1JTAwifz833rvzIROGTHiGkaOvIHS0mOsWnVfJ7a/muDgUdhsNvLydvVDDc8dqSk7SE3Z0e3yEokEuUKBxWzBahXpEoIgCIJwPupyzrfNZsNmM9HcbKK5uYa6ukIMhiOEhEzA1TUQT88Yp+Db0zMGiUROUdFuh3UmUz15eduJiroYN7dQFIoDmEyNPT+rARYcnER8/GUEBAzDxcWdmppCDh36ikOHvm63TFjYeBITF+DjMxi5XEVFRRYZGRtISfmyzZSckSNvYOTI69i16x1SUr5Eq/Vm2LCriIqahlbrRUHBPtat+ytGY127x4yNncXEifcC4OMTc8Zzmjx5GYmJC1t/l0gkLF681mGbwsIDfPPN0jPupyOLFv+F8ZNm8+IzdzB02HjGTbwImUzGl5+8QtbxQyy45h6GJI6jrq6Kd157guzMwwDcdvffGTZqEt9//RZrV33U5r41WjdefnM9FouJ+5bMpLm5qdv1lMsVvPnRb0gkEqd1aUf28vxTSzrch0ajY8LkSxiSOI6QsFj0ei9kcvs/yZVvPcPPm7512P6FV3/Ay9u/9feE4RN477O9DtvU1VZyz60zunNKgiAIgiD0g17pcGm1mjEYjuLqGohG4+WwTiqV4ekZjc1mprraOSXFaKylvr4InS4IvT6CsrIjvVGlAaFQaJg+/TGio6djsZipqMjGbG7E0zOCKVMepKGhnMzMLQ5lJBIZ48ffxsiRN2Cz2Sgvz0QiAT+/ePz9EwgJGc3q1Q84HSswMAG1Wk91dSGxsbOYMuVBlEotVqsVmUxOWNhEhg6dx759H7Zb3/j4y1p/Tkv74YznVltrIDX1W3x84vDzi8dgyKCkJNVhm6KiA524SmemVmtQqzUsvfc59O5eNDfV46rzYPEdf8XYbMRsNuKqc0Pn5s51f3qIZ5bfCMC+3ZsZO/FCLph1JetWf9zmA0vS2OnI5Qp2/rquR4E3gEym4MfvP0CpUqNWu6BUueDnH0pYxKBOlY8fOoal9/4dV50HNpuN2ppKygyFIAGVSnMyvctRRtoBjkul+PoFERE1hOqqctKOOAbfzU31PTqv073z5HXI5bIOt3vpg42kZBR0uN3ZzN8/gQUL3gagpqaQDz+cN8A1EgRBEM5XvTbaSUuLtdVqdliuUumRyVTU1ha2mdMtkUgxmxtPbuvWW9Xpd3K5krlzX8PXdzDHjq1j27aXaGqqBmD06JsZO3YJgwbNdgq+L7zwb0RHzyA3dxcbNjxJQ0MFAAEBicyZ8xLh4cnExMwgI2ODQzlPz0gAYmNnEh4+gR073uTo0R+QSmXMnfs6Pj4xuLkFnLHOSqUrAGVlx9m58+0zbrt/v701eebMJ/Hzi+fgwU9JS1vTuYvTBRaL/TNSkHecJx++BqOxifsfXUFc/EjeXfE39uzcQGT0UJY/8wEhobGt5fbt3kxVpQFvnyAShk8gZf8vTvseN/EiAHb88mOP69nc3MBXn77isGx88sXcetczHZaVyxXcsex5NBod337xBhvXfU5DfcedNN969THA3uEyImoIuSeO8eZ//9K9E+iEuHA/VMqO/0S4qBV9Vof+IpGc/rDjPHKKIAiCIPSWXgu+tVpvAOrrSx2WKxT2AK8lwG4hkUhxd4/AxycehUJ7ctvOjW5wNho9+mZ8fQezd+8H/Pbb6w7rjh1bw9ixS5zeCoSGjiE6egZ5ebv54YdlWCynHlyKilI4cOAzxoy5hZiYWQ7Bt0KhRqezB9YeHmF88sl11NcbWtcXFx/ExyeGurqSduvr4RGOq6svADabtdM5xv7+Q07W71Cntu8qs9lejz07NrQO2ZdzIo24+JGkp+0DIDvzCDabDYVSiVQqw2q1YLGY2fzT18xduJTpF17lFHy76T2Jix9JdVU5R1MHtqNoZMxQNBodtTVVrP72HWy2szPYm3TTSwNdhX5zevrQ2Xo/BEEQhPNDrwTfUqkcH58h2GxWDAbHtJGWwNpsbj65rQx390i8vQejUGioqyvGYDhCYOBoFIq2hww723l5RTFixPVUVGSzY8dbTutraw18//29DvnsEomM5GR7B8cdO153CLxbFBTYg00PjzCH5e7uYUgkUurqSvnmmzucHmx0Oj8Aqqvz26xvQEAil176IjU1xSiVLvj4xBIffxmHD//fGc9TrXZHrw+hqamK6uq8M27bXS0t3xLpqXQHq8XxwaDlYUEmc/z4bt34FXPmLWbosPH4+oVQWnKqjqPHzUQikbJz+9oB78xYWpyPxWJG5+bOtTc9yFef/LfHaTBCzxQVHeKtt+y58mLYU0EQBKEv9cr08oGBo1EqdRgMqTQ3VzusawmQJBIpXl6xxMRcSkDAKJqbq8jK+omcnC00NVUCpwKvc83o0YuRSuXs3PkWNptzYGezWcjN3UlRUUrrMn//IXh6RlJaeoSSkrbz3Jua7KkISqXWYbmXlz3lpKTksFPgDfYOroDD8VoMG3YVc+eu4PjxTXz11WK2bHkRgEmT7nUK8n/Pz6+l1dt5v73FcjLQbivnuSM11ZXs+nU9EomEC2Zd6bBuzISZAPy6bXXPK9lDVZUG3nr1cRob6ph+4VW88Opq5sy7FY323E27OtfZbBaMxjqMxjpMpjPPsCkIgiAIPdHj4NvHZyh6fRi1tQWUlaU5rW/5IvP2HoS//wgaGyvIylpPTs7PNDaWAyCXq05u23udxfqLVConLGwcYB/to7P8/RMBKC/PbHcbN7dAAOrryx2We3nZg+vSUufr7eYWhJubP9XV+dTVnUoBkkrlzJnzL0aNuoF165azefM/sFhMpKX9QHr6OuRyF2bOfPJ3ua+OAgISACgqSm13m56yWe2tjjJZxx392rJh7acAJE+7DNXJSW88vfyIjh1OTnYauSfOjjG4d/+2nofvuZx1q/+HSq1l7sKlPP/K98y65Drk8nM/h1oQBEEQhLb1KO3E338EXl5x1NYWkJe3vc3XtS2pFiZTA7m5P9PUVOW0jUxmTzcxGs+94Fur9USh0NDUVEVjY2UXytlz5Gtq2p9N0cMjHIDiYseWZm9ve/BtMBx1KhMcnARAXp5jXrPVaiY7ezvr1z9Jc7PjrH+bN/8Tf/9h+PoOJiFhPikpX7ZZn5aW79/Xpze1fIak0u4F3yeyjpJxbD8xcSMYO/Fift70LWPGz0QikbBt85nTavpbXV0Vn//v36z74SNmzr6WaTMWcPWiZVww60pefOZOygwDO4LIH2m0E0EQBEHoL91q+ZZIJAQFjcHLK47q6lzy8n5pN0/SaLQHejKZqt0xp1s6D/6+s+a5QCazt67K5Sqk0s4/y7SkiyiVujbXS6Vyhg69ApvNRlqa4+gcPj72UT5KS485lQsJGQ1Abq7zZC+pqd84Bd5gfzDats3euW7w4Dnt1tnPbzAABkPftR63fI7aGj+7s9avsbd+T7/QPi752IkXYzIa2fHL2jMVGzBVlWV8+fF/eejuy0g/uh9fvxAW3/5ku9u3dAhUqfq2j0RcuB/xkf4d/nc+jHYiCIIgCP2lyy3fcrmKkJBkNBpvSktTMRjOnIJgH8e7FK3WFw+PSMrLHQM3uVyNq2tg64Q955r6+jJsNityub3jYnv5279XWZkDQFDQiDbXJyQswM0tkLS0NZSWntqnTueLWq2npqa4dSjD0wUHjwK6npedn78Lm82Gl1ckEonMKXddo/FCqXTFbG7s05zYloEmupPz3WL/7i2UGwoJCYtl2swFhEUMYscva1tHTzlb1dVVseb794kdPILwqPbHCy8tsY+XHxQSiUKhwGTqm74Sf6TRTnS6AKKjp6NWu1JenkV6+vqBrpIgCIJwnupShOPi4kFk5IWo1e7k5m7vMPBuUV5ub6H19U1obeUGUChcCAubilQqo6zMOYXiXGAyNbSmeMya9Te8vaMd1kulcvz9E4iNneWwPC9vF0ZjPb6+gxgx4vrTtpcxYsS1JCffS2NjFb/9tsKhnLe3PSgzGJzzvV1c3HFx8aC5uZbGxkpUKh0yWcetkjKZglGjbkQikVBScrjNTqMtueBSqaI1Fx3sY4VHRk4hKelPHR6nM2wtYyz3oOXbarWwbs0ngH3GTIBtW86ulJO2hEUM4rJ5twKQerD9aerzcjIwmYxoXfXc8+DLREYndDtNR7AzmRoZP34po0bd5DD5lCAIgiD0ti60fEsID5+OVCrHYjHi55eIn19im1tWVWVSVnYqJaK2toDS0hR8fRMJDZ2CyVSH1WpGpdIDEioqMqiqyu7hqQycbdv+zZVXvoteH8LChSupqMjGaKxHrXZDrw9FKpWSkfGTQ2taQ0MFv/76KlOmPMTEiXeRkDCP2tpi/PwGI5e7UFKSyo8/Pkp9fZnDsVpSTgwG55QTFxcPAFQqHdde+wl6fSirVt1Hfv6e1m2uuOJVlEoNJpN96Eel0hV39xAUCjV1daVs3fpim+fY0FBOTU0hbm6BXHvtx5SXZ6NWu+LmFoLZ3MihQ1/17CK2ONn03f3Q227bpu+4YsESNFo3SopySTu8p+NCwIPL38DcxrCPAI31tTzz+E0A6N29mLvwdof1vv6hAPgHhHHTkuUO6w7u+4X9e7YAMCJpKnMXLqW5uRGb1YpSpcHTywdXnf3+HTuyj5VvtT9ZT2NDHW/+91Hu+PM/GZI4jiGJ42hubqCy3EBjYx0rXn6EcsO59xZpIDU1VZGfv4/Q0DHo9SEDXR1BEAThPNaF4NuG1WpGKpUjkymRyZTtbtmSB306g+EIzc11eHvHoVK5IZOpaGgoo7w8nZqavhkzur9UVp7gs89uYOzYJYSGjsHTMwKTqZHS0jQyMjZw7NgaamqKncqlpn5LZWUOo0bdiLd3NL6+g6iszCM9/SdSUj5tc+xvb++W4Ns577qyMoeCgn14eUVSW1vC1q0vUFCw32Ebd/cwXF19ADCbjTQ2lpOXt4ucnF9JT1/fbkqJzWZl7drlTJv2CN7eUbi7B1NUlMr+/Z+Rnr6u1zrLtuQz9yTnG+wzUGYcO8CwkZP5ae2nnZ44xccvuN11eTkZrT+7aFyZfMHcNrdz9/B2WleQl9X6s5vek+BQe6dZm81GY2MdhpIC9uzczJ6dGziauqvD+u7bvZmnH1tE8tTLiYpJxMs7AB/fIKQyGXU1zp2ahY7Zx64fQ0ODocNtBUEQBKG7JK6uYWI6tz8UCVKpFIlEes6Oq94Zw0ZO5p4HX6K8rJjHls3ts7zo7pLJ5MhkMiwWS5sPWX9UV0c1syyxgW+yVfzjQM9mvB3iYeb9qbWkVsq5eUvbHZtPN2HCHYwceQNHjnzHpk3P9ejYgiAIgtCeXpteXjhX2E7O8Diwszz2BbWLlvCIQYxLvpiJU+ZgNpl4/eWHzrrAG8BiMYug+yzj6Wnvr5Ga+u0A10QQBEE4n4ngWzgvDBs5iXse/HdrukpVpYEP33mO7MzOjT4jnLuWDG5kiIfzw6RO2fmXeiqVG0FBw8nK+rnNyasEQRAEobeI4Fs4L9TX11JdVUZ+7nFSD/7K1o3f0NzcNNDVErppXkQz8yKa21x3xTo9hQ2nBmoa7mUmyadnbxEmTryL2toSNmx4qkf7EQRBEISOiJxvQRDOGtMCjcxvJ+husWyHK0ZLT8fDceTmFoTFYqS+XnS2FARBEPqWCL4FQRAEQRAEoZ90fxpBQRAEQRAEQRC6RATfgiAIgiAIgtBPRPAtCIIgCIIgCP1EBN+CIAiCIAiC0E9E8C0IgiAIgiAI/UQE34IgCIIgCILQT0TwLQiCIAiCIAj9RATfAgCuanj5Fikzhvfu5CWCIAjnA70GXr9dypjYgf8b6eKmYvDUCC5aNhGtp8tAV0cQhC4S08v3MU+dFwuSryN5yDQ8dF6kZh/kuS+WU9NQPdBVa+XnLuE/t0KUP4T6wC9HoMnYcTmJREp8/ByGDJmHh0cIxcWH2bjxaerqSvu+0n0oeerl3Lz0CYoKsnns/gUDXZ0/LHEf/pjO1vu+MFlCUjQMj5Dw9BewZk//z0/nFapnyIwoghP8kErtbWchCf6kbc3u97oIgtB9IvjuQ6Njx/PwwqfQa9xblyXFjmPh5EW8s/bVAazZKf4e8MYdEoI8Yc9xePgDW6cCb4VCwyWXPE9wcFLrspCQ0UyYcCfr1/+1D2vc99Rqe0tSQ0PtANfkj22g74Pe1YXqusYBOfYf2UDf9/a8vd6GyQJ3XCzhyaslyKXw/a7+CcA17i6Mnh9PSKI/AOW5VeQcKCYvpZhaQ32/1EEQhN7To+DbxcWTyMhZGI21ZGT80OH2Wq0vXl5xqNXuyGRKmpqqqK0tpLw8DZvt/JrlPnnINJZf83fqm+pZsfpfHM45yJyx87ko6XKHYHwgeengzTukBHrCphQbyz+2YTJ3XE4mU3DFFf/F1zee3bvfJTX1W+LjL2Ps2CX4+g7u9XrqdL7MnfsWBQW72bjx2V7f/+8pVWoA6utq+vxY/SnG25V7k6OZEuWDu4uSwpoGVh0p5oUtx2g2Wwe6ek4G8j7ERwXwr/vn8c432/l6w4E+OcawQHc2LJlEdkU9Y/67qcPtu3v/xH3vPSs32iirsbF8oZTlCyWYrX3fAu4Z7MYFt49F7arkxL4ijm7Oojy3qk+PKQhC3+q3lu/AwCQ8PKKx2Ww0N1djtZpxcfFGo/HBzS2UnJwtWCzN/VWdPhXhH81frnqW6vpqHn7vDk6UZAGwZs93XJR0OYdO9M2XeVeolfDSYgmBnrDhoI3H/mfD2snv4UmT/oyf31C2bn2BQ4e+BuDo0dWMHbuEmpqiXq6phOnT/4qbmz87duzu5X23LTc7jbWrPiIvN71fjtcfZsb68u6VSbgoZFQ2GsmuqCPWW8e9ydEkBXtww6e7qGnuxJNXPxqo+zBj3CCeWDobtVLOoAj/fj12e7p7/8R9732rd4PFauNv10hYfqWEkkobezP77njjrxuO2lXJrx8fJGtXft8dSBCEftOl4Ful0uPhEYlCoUWh0KBUajtVzsMjCg+PaBoby8jP/xWjsQEAhUJLSMgEXFy88PNLpLCwf4KrvqSQK3hk4dNYrCbuf3sJ+WW5retGRI6mtKqEn1M39MqxwnwjmTvxKvYf38PWQz91qewDcyXEh0jYlwlPfNL5wDs4eBRDh84jM3NLa+ANoNcHA1BaerRL9ejIiBFXExw8CpvNRl7erl7dd3tSU3aQmrKjX47VH3xcVbxz5SikEgk3fLabtWnF2IAQdw0fXD2aieFePH9pIku/3jfQVXUwEPdh8dwJLFkwERvwyidb+Wj1zl7bd5yPjkWjQglx1xDkpibUQ9Opct29f3+0+37r/IkE+7nz7482U1Xb0Kflftxrw1sH98yR8PdFUq5+0UplXZer3CGVVolHoA6z0cKJvQW9fwBBEAZEl4NvL684bDYrVqup06kivr4J2GxW8vJ+xWQ69cfNZKonP387UVGX4uERicFwBJPp3M5f+9PMO4j0j+aV7//pEHj7efizcPIinv3sUZqMTU7lxsRN4LJxVxIbFI9KoeJESRZbUtbz3W9fYLU5R8ahPhG8eudK1AoXBocktgbfQV6hTBt2IdOHX8SuY9t5/YeXnMpOHCzh8jESKurgLx9ZO5VqYidhwoS7sdmsbN/+isOaiIjJAGRlbW23bHT0BQwePBsvr1hUKh01NQUcPvwdKSlfAo6fpcmTl5GYuPBUaYmExYvXOmxTWHiAb75Z2tnKt0kuV/DmR78hkTiPYJB2ZC/PP7WkR/s/G9wyJhyNQs4Dq1P4Ma24dXleVQO3frmHrbdP5bL4QJ5cf4TiWufPZn8Y6PugUspZvuRiLpwwmIYmI8tfWcUv+3u3OTPOV8dt4yIxWqzUG82YLJ37+9nd+/dHu+/jh0UwNDqQN77cRlUX0sW7W+6jLTaGRUiYMhQeXSDhwZW9n37SXG+kxlCPm4+WmAmhHNuW0+vHEASh/3Up+K6tzefIkc9bg+6WnO8zUSo1yOVqGhsrHQLvFkZjA/X1Reh0QajV7ud08B3uF8mC5Os4kpvCqp1fO6zTueh5bfWL7E7/zWG5VCrj5lm3c9XkG7HZbGSXZCIBBgXHEx+awKjoMSz/cJnTsS4bfyVqhb1jkl7rzrM3/oeYoEF4uHq2brNu7yqncjIp/Ply+xfdq6ttVHThyyYsbCy+voPIyfmNmppTrTBubv4kJMwnK+vnNlu+XV19mTXrKQIDh2OxmCkvT0ciAS+vKCZPXoZcrmbfvg8dytTWGkhN/RYfnzj8/OIxGDIoKUl12KaoqOfpOzKZgh+//wClSo1a7YJS5YKffyhhEYN6vO/2vPPkdcjlsg63e+mDjaRk9Ky1y0Uh40+jw2kwmfkqxXlfmeX1bDxeyuxB/lw9PISXt2W0uR9//wQWLHgbgJqaQj78cF6P6vV7A3EfWnjqNbx4/zyGRgdSaKhm2Qtfk5Vf1uvHWXO0mMCnV7cG3S0532fS3fsn7nv/eO4rK+MHSZmaIGFEpI39Wb1/jB2fpjDjjrGMmhdPTWkDRccMvX8QQRD6VZeCb1sbLbAdkcnUJ39qv6zRWAMEoVLpqa09d1+tLUi+HolEwrvrXnN6K3C88BjHC485lXn0qqeZkjCTPRk7ef7LJ6isqwBgSNgwnr3xZcYOmsTUxJlsSXFMK9l+eDMTBk/GR++Hl84bdZiaXMMJNh1YyyVj5iGXyVm/zzn4njxEQpgPFFfCj/u61lIzePAcAFJTv21dJpFImTLlQczmJrZufcGpjKurD/PmvYGrqy/bt7/KoUNfYDYbT+7vUqZPX87gwbOdgu/9+z8CYObMJ/Hzi+fgwU9JS1vTpfp2RnNzA1996tiKPz75Ym6965leP1aLuHA/VMqO/+m5qBU9PtYgXx0eLkp+Si+l3uj8ikMulVJWb+9rEePt2u5+JJLTpwTogxa+AbgPANEhPvzrgfkE+Lix72gej7z8XZdSFrrC3NncrtN09/6J+94/ymvtI54smCDh+qkS9mf1/jUqzaxg+/8OknzjcCbfPJJvn9yEsdHU68cRBKH/9HmHS6OxDpvNhlrtgVKpac33dmT/A2+zWfq6On3GU+fNBcMvIqv4OCnZncuhTIoZy5SEmezP3M0TH96HyXLqS/JwzkG+2f4Ji6YvYVrihU7B9/7M3WQXZ1JRW8b9b99Gs8n+RTo8ajTzk6/l59SNVNSWOx3zwpH2/3/ysxVzFy63QqEmImIKzc21nDixvXV5cvI9hISMZdWq+6mvd26RmTz5QXS6AFavXkZOjmOrf1bWVqZPX946Xm1b/P2HAFBUdKjzlT3LTbrJORWor4S62/OKS+oc0wqUMglXDQvlvsnRrdsEuqmdyrc4PS3gfBmZaOLwKJ69Zw4atZJvNx3ghfc3YLacXaN/dPf+ifvefz7abA++Jw6WoFZ2bqjWrsrZX0jYCH9ChwXgF+NFXkpxx4UEQThr9XnwbbEYqa4+gbt7BKGhkyko2ENjYzlSqQyt1gdPzzhcXf0AaG4+eyae6aq5E65CIVPwzfZPO7W9VCrjttl/BuDdda85BN4tDmbvYxEQ4hPmtG7coMkkxYzlzhU3tgbeAJeOmQvA2j3ftXncKH/7l2nKiU5Vs5Wf3xBkMjmlpVmtD0nDhl1NYuJCNm16hrw8545pYWETiYyczKFDXzkF3gCDB88GICOj7WHW1Gp39PoQmpqqqK7O61qFBQCC9fbUJEOd/TOilku5bmQod0+MIUivZnOmgVd+Oc4LlyYSqG8/CCsqOsRbb80AuvcG7Gx00+Vj0aiVrPjsZ1Z+f3Z2sO3u/Tvf7/u00bFcOzvJYVlksDcAz917BabTOrIczizm5f9t6lG5MymsgIpa8NTZJylL74OXt+6BbrgHutFQ1URpZkXvH0AQhH7VL0MNFhXtRSZTotMFERk5A5vNhkQCVquF0tLDqFQ6FArtyfSTc4vOxY2vl29obSF6YP7jPDD/8Ta3PZZ/hLtW3AjA4JChhPtFcSz/MMfyD7e5fcssmBq142thrdqVO+fcz7e/fu6QyqLXujMhfirV9VXsO+48coxMCsFe9p9zu5g26O+fCEBFhX0mtZEjb2DcuCVs3Pg0aWk/tllm4sS7sNlsTiklrq6+jBmzmPj4yzlxYhu7d7/TZnk/v5ZW75SuVVZo5aa2/xNXyaXcNi6CuydG46dT81NGCTd/sZt9BVUMD7KPO1/b1H7PW5vNgtHYB8M5DKDGk0PsTRgewXdbDlJZc/ZNqNPd+3e+33dvD1eGxQW3uS4+0nF4yLqGU03R3S3XkROl9uA7wldCekHvvCGImxRGQJwP7oE61DolOfuLObA6jeb6PmhaFwShX/VL8G21msnN3YaLixcajTcSiQyjsYa6uiJUKg/8/YfR1FTVTkrK2c1qs7LxwFpmjLi4ddnOtG2U1RqQS+VIJDJkUikyqZzDOQdbt4kPtQezJ0raH1HB3yMIgIqaU52/JBIJD1/5JJV1Fbz302sO2yfHX4BCpmBLynosVucvVBclyGVgs0FzF1MG3dzsX0zV1YVccMGjREVNY9WqZe0O/+fuHoKnZwTV1Xl4ekYRFpaMXh9McHASPj6xlJdnsmHDU2fM4w4ISACgqCi13W2EMyuqsacd3DEhCpsN1qaX8K+tuzlYeGqSDh+tEoC8qrMv+OxLf12xiueXzWX4oBBWPnMDy174hsy8s6szW3fv3/l+379cv48v1zum97331PUMjQ7k8nvfoMjQdkNOd8t1pOnk31NZx/2oOy10eCB+0fYO9PWVTTRUNmJsOndTMwVBOKVfp5dvbCynsfFUHrJUKicoyP4K0GAZ8rWNAAAgAElEQVQ40p9V6TX1TXVkFacDF/PzoQ0kRIwkOnAQ73/wOplFbY8gAOCls7/qLKpsf1KaMN9wAI7knmr5vWbKn4gKiOOuFTdiNDm2gIwfnAzAr0fbHu6vrgkq68DDFUK8JWQWd76FxsXFA4BRoxZRU1PEF1/cfMZUEE/PCADc3IKYPv1x6upKqajIIi1tDevXP0Fl5YkOj9nS8l1cfH61fPfnaCeFJ4OwwppGrvtkF6nFzsGFr9aedpBbde49/PZEZU0jdz77OY/echGzJw3h3b9d1ydDDPZEd++fuO/9K8zX/v+c0t7b5+Y3d+HqrcUn3J3YSeEkXBRDSKIfP760HYvp7EkBEgSh6/o1+D6dVCojKGgsKpU7NTV51NTkdlzoLBUXHA/A2r3f8+aP/+GpRS/x79ve4cF3budYftsPFU0me2uTq7rtkQZkUjmXjJmHzWbjp/0/tC7PKc3iiY+WtY6K0kIhkzM8agxGs8mhhf33cgw2PFwlRAXYyOxknx2FQo2bm70VPjv7FzZvfhZLGznqjmXsOae5ub+xatX9nTvQ7/j52aeqNxjOzpnuuqs/RzvJKLOnDHi4KMkqb3sYzxkx9shh+wnnDrrnO6PJwpOv/8CJwnJuXziJFx+Yx6ufbuV/q/tnQqeOdPf+ifvef1yU4G/P4CGntPc6pZqNFqoKa6gqrCFrVz6XPDIZ90A3fCI8KU7v/aEwBUHoPwMSfCuVOkJCJqJWu9PQUEZBQe/NIjcQogJiAcgqPk75/7N35+FRlWfjx7/nzD6TmewrhKyEPSwim+woIu6tUlvFaq1KbWv72mp9q219rd37vvVXl1aqLa7VuisioCCy7zsBEiBkJ/sySSaz//4IRGO2mezA/bkuros55zzn3GdOIPc8cz/PU1fOQy98j6e+9y9+desf+f4zt7dJlAEKK5oXS8hMmdTuOa+ffjNx4Ql8svejVgn8lqwN7R4fGz4Eg85AfnluqwGYX7UzGyakwNenq6zd13XvSXh4Mtdd9xdMpuZi8Zqa/C4TbwC7vRQ4VyuuEOw0ZWZzJHp9CB6Po9354c9n/TnbSW5VA5tzK5iZEsVtk5JYvqP1RMQxIQYuz4glp6KeT7JLOzyP1RpPevoCjMYQKitPkZ29tq9D71cr3t9OXnEV/3Pf1dz/rbmkDo3id8+vxu0Z2B7G7j4/ee7952vTFTQq7D/lp76P1iryef1oNCo+r5/qovNvbJQQorWO53jrAzqdhYSES0lPvwqjsbnHOy9vA7526pPPJ2GW5pKMmvpqoHmg5M9X/BirKZRlV7ddIAdgT84OGp0NZAwZxc2zlrZs12q03DzrNpYt/i9qG2p4fs3TAcUQG9Zck63T6lu2tbdq3Ac7weWBSWkwPrnt/q+qrz/Dpk1Psn17c335mDHXYTDYWvYbjWGMH38Lixb9plW7M2cO09BQgcFgZcaM+9BoWvfiGo2hpKbOYf78/0avt7S57rn5hVVVh82W0LJdrw8hNXUOkyff2WXsotny7c2J188XjOCKjJiW7XFWI/9ZOg2jVuWvm090+vHI7XYwffoyLrnkDkaPvq6PIx4Yn+3K5p7HX6Osys41s8fy7KO3EG4LbAn4vtTd53exPfeK6gZKKmrxBrhyaE/bAei1cOuc5v9H39gcdPOATbx+FJYIE/s+PCoDLoW4ACghIUkB/48TG5uJxfLFiHBV1WIw2PD5fDidXwzkcTrrKCpqPXWXXm8lPf0qFEXF63Vx5sw+ampye+EWBpaqalj96200uR1c99icVvvuuep+vn7Zt7jjf79OSXXb2t1rpn6N+697GEVROFNdTGl1CSMSR2PUmThacJhfv/Yw5bUd90p9WVJMKs//+A2geQ5wh6uR0YmZ3PfM0jbnuP8ahaXzFA6e9nP3M34CWfvDZArnttv+g8FgpamphsrKXEymUEJDh+F01rJz5wtnF9/54scpJWU2ixf/HkVRcTrtVFefRlFULJZoQkJi8HicHD/+MVu3PoPT2XqpTUVRWbr0LWy2BDweB5WVuRiNIdhsiXg8Dg4deoutW58N6L3pTGhYJDcu+V6rbTFxwxg5+hJqqis4uG9Tq30H9m5m3+4NPb5uf/uvWcP5+YLmVQPzqhtpdHsYGW1DUeCFnad5eFXX86hfd91fGTZsCnZ7KS++eH2vxjeYnkN0eAh/+snXGJ0aR05+Obf994pemeP6kQUjmZsa3fLarNeSER2C0+PjaOkXvZk5FfXc9+6+Vm27+/zkufetOxco3LdY4Ui+nzv/6qcvpkIfNiGe2XdOIm9/CZv+FdgaEkKIwS2oshOdLgSTKaLNdlVVW233ett+9+Zy2bHbi3E666isPIbXe4F8evf78fm9aDU6FEVp9Ut61a73uHnWUsamTGg3+V654x0KyvP45pw7SYlLZ8TQURSW5/PZwbW8u+W1duf+7khe2Sne3/Yfrph0NQmRQzmSd5A/vPVLKuvazt6wfK2feeMgM1lh2SJ4dlXXvzEcjmref/9HzJ37U6KiMoiKSqe0NIu9e1/hxIl1eDxtS11yczfy1lv3MGXKncTFjSMqKgOns47S0iz27HmR7OxPcDrb/wrV7/exevWjzJv3MFFRaYSFDaWk5DD79r1OdvYaXK7261iDZTKHMHv+je3uCwuParOvqKAP1o/uB3/ZlMOpqga+Nz2VkTFWfH492/OrWL7jFCuzOh70+2XNA2yn0NjY+zOCDKbnUF5dz7LHX+OXyxazatORXltcJinc0jK935cZtGqr7eWNbf8tdff5yXPvO+OTFe5d1Dxz1K/foE8Sb4Dxi5vLGg+t7ngAvxDi/BJUz7do36sPfUhMWBw3/eYKahu++AZAVVQ+enwL/1j914AX3+kvoxMVnvu+glEHv37Dzwc75cdAdG7GjPuYNOl2srLeZ/363w10OKKfyHNvKzkGnv+hSqgZfveWj3fariHWK1SNwi1/ugpVo/DJ09spzZHBsUJcCPq15vtCdaa6GIBJ6VNbbQ+1hKHVaDlZMvhm68gq8PPLV/34/PDzmxWuuXSgIxKDXUREOsDZ8iJxsZDn3lpKLDy7rDnxfmWDv88Sb2geaHluZpNZd0wiYVR0Fy2EEOcDSb57wdq9zVMBLp3/XcJDmstvVFXDXVf+gJKqQo4VDM5FYj475OeJN5pXG/3lN1S+OXugIxKDlcFgY8iQCZw6tZGysmMDHY7oJ/LcWxszDJZ/XyE6FN7ZBn9d2fffGG577QAVp6sxhuiZv2wKV/54BkkT4tHo5Ne3EOcrKTvpBTqtjr//8FWGRadgd9RyNP8IQ6MSibBF8bMXftBqkZzBaPFkhV9+AzSqwjvb4A/v+AIahCkuHvPn/5y4uHG89dbdg3K5cdE35Ll/4apLFB65WcGggzc2+/nf9/pmgGV7FEUh5dIhjFmQRmhc89oQHqeXwsOlHN2QS2V+TRdnEEIMJhq9PuyxgQ7ifOfz+Vh/YA3RoTHEhidgM4eSVXCI/3nloU6Xjx8scorhUJ7CnHEKe0742SXjesRXVFae4ujRlTQ1yS/5i4k89y+kxsHccQrPrPLz94/7v8+quqiO7M15lJ5oXjciNDaEyGGhnNpVRGO1o9/jEUJ0n/R8ixZhFoWaBvlxEEKI9kTZoGKQrHGj0arEpkdQfExWuxTifCPJtxBCCCGEEP1ERmwIIYQQQgjRTyT5FkIIIYQQop9I8i2EEEIIIUQ/keRbCCGEEEKIfiLJtxBCCCGEEP1Ekm8hhBBCCCH6iSyycwFRVQ1mgwWDzojL4+yXa2oMekZ8fRF+nx9HRVW/XFP0HpNRz/fvuAKfz0/xmepeOWeI2cj9372SmrpGyivtAbfTmoyMXLIYl70BZ83ATqasCzETO34UKVdcRu3pQrxO14DGI4QQ4sKhHegARO/567IXGDF0DCs++TuvfvZCUG0jrJHcNPNWZo6ZR7g1ksO5B/jdfx6lrrG2wzYGWwgjlyzGHB2JKcJGzYnTeN2eDo8fN3MJV33nj1SWnOCFRy4PKr7zwfl2f+FhFn589yKGxEUQG23jYFYeTlfHz2/m3Ov5zrJfUlKUyyM/uanD4+bPHMPI9ASGp8Sx4j8b2bY7sCVT4y4ZR2jSEGxD4zm5agPlh48HfU89FRIfw5DpEwkfnoyiNn8xGJGRQsmug/0eixBCiAuTJN8XCIPOQFr8CAC2H9sUVNtLM6bzsyWPE2oOa9k2OWMaS2Yv5fnVT7d/vdAQxnzregxhNmrzish+Z22niTeA3mgGwNnYN72aiqJitkZgCYtBb7Dg83lpaqihpjwfn7fz2HpDX99fb4oMD+HB+64mKsLGsRPF/O3FTztNvAGMRhMAjY2d92Z/sHYPHq+XG6+azHdumYNGVdm8s+tEunDzLvxeD8PmTCX9mnkoGpWyA0cDv6keMNhCSL5iJhEZKQDUl5RReewUVdmnaKrq+AOoEEIIEaweJd8mUwSpqQtxuezk5HzU5fFWazzh4ekYDDa0WhNudyMORwXl5UdxuQL/elq0NWLoGLQaLRW1ZZwsyQ643cwx83j0m7+loamBZ1f+L0fyDnDt1K+zaPL1rZLxL9OFmBlz6/UYQm1UHT9Fzvuf4PP6uryWVt+cvDka+iaZufTKu5i75JE2271eD3lZW9i3/iVOHljXJ9eGvr+/3hJqNfHgfdcQFWFlz8Fc/vHqejyerp+f3mAEoKG+6w8Xq9btp6aukTuWzOLbS2bh9fkC6gEv2rYPV30jaYvnknbVHPxeX5/3gFtioxh1y7XozEYqjp6kZMd+6kvK+vSaQgghLl49qvnW6UyEh6fh9bqoqur8F+uQIdOJjR2PTmfG6azH7baj1ZqxWGKIiBhOY2MFbndDd0O56IWYrOSV5bJ69/uUVBUF1CYlLp3f3fk09sY6HnxhGduPbaLSXkFNQzVXTb6ed7e+0SaR1+i0jLrlGsxREVQeO0nO+5/i93WduAHoDSYaaivIz9pCeeGxoO+xK0PSLyF5zGx8Pi+upgbczkb8Ph86vZHw2GRGT7seS2g0Jw+s7/VrQ9/fX28w6LX8172LSYgLZ/eBUyx/ZT1erz+wtgYjtTVVZB3eSWF+14l0QXEl5VV2Jo1LJnNUEjm5Z6isru+yXWNZJc6aOiJGpBKWnoy9oARnbd99OB99yzUYw2ycWLmego07cdXL/0NCCCH6TlA93wZDKOHhqeh0FnQ6M3q9JaB2ERHDCQtLoqGhlIKCLXi95wYvKURHjyYmZhxDhkwlO/uDYOMXZ50syQ6qx1un1fHwkl/j9bn5yT/uobAiv2XfxNRLKaspZePhT9u0S75iJiHxMdTlF3Pig8ATb4Dcw5vIPRxcSUwrioJWq8fr9eD3eTu+zqENvP3/7jrbRGXo8MlMvvK7DJ+4kAlzb6Uk9yCHNr3R/Tg6um5P768ffPPGGSQnRnP8ZAnPv/YZPl9giTfA4YPbOXxwe1DX277nBKFWCzdfO4V7ly7gV39+C3t9U5ftyo/koAuxkDR/Ohk3LOTA82/gbnQEde1AaE1GzDGR+NweKrICq00XQggheiLo5DsycgR+vw+fz43fH9gvbpttGABlZYe/lHgD+CkvP0JExPCzybwZl6sxmJAuWiEmG+OSJ5KZMpHMlEmkxQ+n0dnAzb9ZhNfXdX3znVfcR2pcOk998IdWiXdseBxLZi/lN6//nCZX6yQpLC2JmPGjcDc6yH5vbaelJhqtjgeey0ZRlDb78o9t5/U/3tJljAazjbEzvkbymFnEJI7GHBqNRtP8I7t6xcMc3Ph6l+fw+30UZO+k8MQevn7/P0jNnM/E+Utbku/I+HTu+k3rDxl1VSX8/afTAQgJi2X0tBtIGTsbvSmEl399fY/u74qlTzBm+o3858+3kTx2NqOnXY+q0fD5m3+g+NQ+5tz0MMljZtFUX81Hzz9ASe6BNudQNVqmXrWMUVOvIzQqkdqKAkpO7WP7qr9TXZrb4XsxbtQwZk4ZQV19E8+9vK7TUhOtVsdzL29r9/6OZe3hj4/f02Hbr1qz4QDpKbFMHJvE7TfN4pkVnwTUrnjHfqxD44jISCH1qjkcf3t1wNcMlMfRRFNVLcaIUGInjObMnsO9fg0hhBDiy4JKvu32QrKy3mhJus/VfHfl3C9wvd5CY2N5m/1+vx+/34+nn6bHO5/ptDr+umwFafHDURSFJreDhqYGNKqWrPxDASXeybGp3DTzVrLyD/Lhjrdb7bOaQnlm5Z/Zlb2t1XZFVUm+fAYAeZ9tx93QeS+kqtGz8+O/o9Wb0BvN6PRmwmKTiUsaG9B9Jo2+jOuWPYUpJAK/30+jvZK6ioLm98BgQVU1AZ3nHL/Py/4N/yY1cz5RCRmgKOD343Y1sXvtPzGYrRgtoQyfuBCj2YZWZ2DmjQ9wyeXfQaPVAdBQ+8XPbnfvT2+0oDdauHbZ01hCo3E76zGFRLD4rj/hdjnxelyYQsIwWyO4/Nb/4eUnbmjVPjRqCNcte4b41Ak01lVSeeYkkXFpRA3JIH3iQt7+f3dRfHJvm+tqVJVvXD8NgLdX7qDO3vnz02h0fPzBi+gNRoxGE3qDidi4YSSljAzo/f6qV97axNiRQ5k4LpmM1DiyT50JqN2pNRsJSx1GREYKtsR46gpKunX9zpxY9Rmjv3kdyZdfRlNVLTW5Bb1+DSGEEOKcoJJvvz/wEoMvq63Nw2yOIjZ2Ig5HNU7nFwPSwsKS0elMVFXl4OuklEA0c3vcvLnpZc5UF1NSVUh1fRV3XLGMW+fdxb6TuwI6x00zb0NRFF5Y80ybby9OFB/nRHHbAW7hw5MxRYThrK2n4kjX5S1uZwOfv/WHVttGT7+Ba+5+ssu2Gq2OG+77Gwazjc3v/h97171IUydTHgaqsuQEAKqqoigqfr+XuspC1r/+ePN2jZaf/uMEOoOJW372OnHJmRSf3EvxyX1UFGVTW/7FNwTdvT+f1w1ARdExVjx2FR6XgyU/eYXEEVNZ9cKDHN+9ivjUCSx99D2iE0e1aqtqtHz9R//CFjmE9575Htl7PgZAq9NzxdInGDdzCYu/8yeef2RBm+uOHzOMuOhQKqvr2b73RJfvldPZyFv/fqrVtukzr+LuHzzRZdv21NodbNmZzdwZo7hybmbAybe7vpHyg8eInTSGhKnj+yT5theUcOLDdQy//nIyblzI3mdfwdMkHQFCCCH6Rr9MNVhVlYNOZyEqagSpqQupqDhCZWUOERFpxMRkUlubR2np/v4I5YKw/kDrr98npU8FYN+JnV22jbBGMX/CIk6dOcHB3LY9pB2JGp0OQMmuA/gDmNmkJxJSJ2Iw22i0V7F15VMQYHlTV2LOJrNVZ062WzPu83rw+/0oikrW1nd5+8m7cNT37sJBXk/zNxPHd69qmZKwNO8IiSOmUpjd/PzO5B7E7/ej1RlQVE1LrJOvuJOoIRms//fjLYk3gMftYu1Lj5A0ehYR8WkMSZ9M0Yndra47dVIaAJ9uPIS3j59fR1Z/doC5M0YxblQiBr22y6kNzynavp/YSWMIS0tCo9N2OaVld1QePUHUqDQiRqRiG5ZAVXbH5TtCCCFET/Tb8vKlpfvJy/scn89NTEwmI0feSEzMWAoKtlBYuE16vbvJbLAwYsgoahtqyC092eXxN874BjqNjne2/Du460RHAmAvCqzHsieqy/LweT3NpRffegydwdTjc2p1BibMuw2Avetf7vC4c/OBH9v9Ua8n3s3nb+75VpQvymZ8XykV8vt97X44mLTgTvx+Pwc2th0s6vW4yT30GQCJI6a02T8kLgKAE6dLux98D1VU2amzO1BVldjo0IDbOWvrcDc4UFQVY0T701/2lDk6EnN0JC57Q5/0rgshhBDn9NsiO6qqwWyOQVV11NefwWyORlW1xMZm4vW62q0FF10bnzoZVdWw7+SuTgfAWk023n7005b6+59+/Rf89Ou/aPfY44VZ/ODZb7e8VlQVY5gNoF8WHKmvKWXl8h9z5R2/Y9KCbzNq6rXs+WRFcOUnioKqajCabSSPmcWkBd8mIW0SWdveY/+GVzts5vO50aBDVfvmn4bP25xUK0HWrBtMVmyRCdTXlBKVkI5Wb0Sr06PRGdFqDWj1Biyh0QBotPpWbTWqSnRk8/MrLR/YBYBKymqwWU3Ex4SRX1QZcDtHZTU6iwlTZBgNpRW9EkvcJWMJS0nEHB2BzmKi8uhJ8j7fgcfR9WwsQgghRHf1S/KtqjqSkmZjMNjIy9tAY2M5Op2ZuLgJ2GzDSE6eR3HxLmpq5KveYE1KvxSgy3pvn9/Huv2ruXziVS3bdhzbRIW9HK2qRVE0aFQVjarlSF7rGTZUnRZFo4Lfj8/T9ytFAhzbtZK8o1uYdvX3mTj/dmbe+ACXXvldtn7w/9i7/iW8HneHbdPGL+ChF1r/LJXlZ7HqhZ9weMvbHbRq5vN4QA+qJrjkOFDnxk0Ee/6oIRlA8+wrS3/xfpv9Xq8Hn9dFU2MtXo+r1T69XotGo+L3+3H3QclGMNzu5g8fqia4L9287u59aOlM5Mg0bMMSAHDW1uOsq8fr7PjnSgghhOgN/ZJ8x8dPwmyObkm8AdzuRgoKthIRUU58/CUkJFxKY2OFrHQZpIlpZ5PvLuq9G5rqOXUmG7iKjYc+ZVzKJNITRvKvF//GyZLO5zf2Ol24G5vQmY0Yw0NpLO/9coz2OOqr+eyNJ9i1ZjmTr/gOE+bdxrxbfsHE+Ut5489Lqa1of1YKr8dNZckJKotPUHXmJHlZWyjMCWww6rnyJ6WPer79/rPJZ7CztZz9VqOpoYYXHr0Cr9uF1+PG63W1lMp0xNHkwl7fhDXESExUKEVn+uf5tScuprkH/kxZTVDtzJHNZSqOqupei+XYfz7CEBaKdWgscZPGMnTmZCJGpHBoxdv4PFIGJ4QQom/0ec23oqiEhibh87mpr29bL1xVlUNDQxmKohISEtvX4VxQIqxRJMWkUlpTQkl116tajhg6GoDVez7gB89+m5qGGv5y7/Mt2zvTdDbpMUdH9CzobqivKWPDm7/nuYdmUZC9k7CYZBbf9ecOjz99ZCMrfnUVHz73Q7a8/2TAiTfQsmhQsMlxwOc/2/Pd3vzZnakuPY3f78doCcNii6KpsRa3q7HLxPucM+XNye6Q+PDgAu5FBr2OiLCQ5njKAi9fUnU69Lbmdo7K4JL2znjdHhrLKyndl8WhF9+mqaoWc3Qk1qHxvXYNIYQQ4qv6PPlWVR2KoqIomg7raL3e5mm9ZJ7v4GSmTATgZHFgK1umxTeXLpw6c4KymjM89ML3qLZX8qtb/0h4SOdJdU1uc3IfO3FMDyLuGUd9NTtX/Q2AuOTA5gsP1rme775Kvjlblq+owf3Tc9RXkXd0CwALvvUYBpM1qPZHs4sBmDN9VBdH9p0500eiqio5p0pwNLm6bnBW3MTRKKpKXUExXmfg7YLh8/pQNCp+r4+G0sBr0YUQQohg9Xny7fU6cTrrUBSVuLjJbRJwmy0Rq3UoHo+ThoaBm4nhfDQsOhmAEJMVVWl+lIqiMCRyGAsnXUOIydbq+DBLc69nTX1zL3ZdYy0/X/FjrKZQll39QKfXKj94FJ/Hi21YAtahcb18J4GJTRrL9OvuB+izZdz9vt6vLW51/rPlIwrB9XwDrHv1MRz1VSSOmMp3f7ueWV/7KYkZUwJKxDftPIbb42VEWjzpyf3//HRaDQvnZAKwbnNWwO1UrYb4KeMBOLO771afTJo/HUOolfwN2/A4en8ZeyGEEOKcoApbY2MzsVi++MV9LpHWai2tVrp0OusoKtre8rqoaDvJyfMID0/GZovH4ajG7/diMNjQ6634fG7y8zd+Zel50ZXaszN/ZKZMYsVP38HpaiIuPB6j3kxZTSnHC7OodzTPbqGqGixGKw5XY6tVMIsq8/lwx5t8/bJvsWLt3zosX3HW1XNm9yESpk0gaf50jrzyfkuJRnssodHMuvEnrbaFxSQDEBGXyqI7ft9q38kD68nZtxaA4RMXMvPGB3A7G/H7fej0ZqwRcZjO9s4XHN/B6hUPB/FOdSwyPp1Lr/xuy2ujpfkDy6wbH8BR/0V9cc7eNZw8+Fkv3N+5ru/gk+/KkhO88puvc/mt/0PK2NlMv+YHTL/mBwC4mhpw2CtxNTXy0q+vbTMgtbqmgfWbjnDlvExuvnYKf3jmQ3y+jmfHCQ2L5MYl32u1LSZuGABx8Unccc+jrfYd2LuZfbs3dHi+K+aMIyzUTG5+OXsOngr4nuOnjEdvtVBfXEblsa6n0uyOyJFpJEwZT+WxkxTvPNgn1xBCCCHOCSr51ulCMJnalieoqtpqu9fbeqouh6OKEyc+JjJyBBZLLGZzJD6fD5erjtraPCoqjuPzySwDwVq7ZyWT0qcwKW0q4ZZwCh2FrNr1PtuObeLgqT34vrwiqd+Pz+9Fq9GhKEqraQlX7XqPm2ctZWzKhE5rxws27yZiRArWIXEkzrqU/M93dHiswWQlc/Yt7e4LCYtps6+i6IvSGbMtiuihI8+G7cflsFNdns/x3avJ3r2K00e39NrCOyHhse3GOXzSla1eF51ovSBRd++vpee7G8k3QHVpLm/+3+1ExqeTNn4+ccmZhMUkYQ2Pw2SNRGcM6XAmmPfX7mXiuCTSkmO5YdFk3lnVcS28yRzC7Pk3trsvLDyqzb6igo4T6vTkOK5fdAlut5cVb2wM+NFZhzb/nPk8Xk6u+qzrBt2UOLt50HLh5t1dHCmEEEL0nBISktQ7WYwY9F596ENiwuK46TdXUNvwxcA1VVH56PEt/GP1X7tcfCckPoYxt16PqtNyctUGyg4c7ZNYVY0WjUZ7dgq9gZ0e70KSnBjNQ9+/Br1Oy4o3NrJ55/E+vV5cTBgP//BaQsxGXn5rE59vOxZQO1NkGGOX3ojWZOTU6s8p3Rd4qUowFI3K1J/cjaJRyXrtA2rzuh64LHS+lekAACAASURBVIQQQvREv61wKQbemermQXfnlqM/J9QShlaj5WRJ1wM360vKyPlwHX6/n9RFs4kZN6JPYvV5PbhdTZJ497LTBeU8/+pn+P1+br95JpddOrzPrpUQG85Pl11NiNnImg0HA0+8o8IZ/c3r0JqMFO840GeJN4Df62tJuIffsJCw1MQ+u5YQQggBoNHrwx4b6CBE/1AUlRmj55Acm8rGw+tocjlQVQ3fv+anWIwW/rX2WbztLGv+VY7Kapx19URkpBCRkYLX6aK+WAbLni9Kymqoqq5n4thkJoxNpqnJxam8sl69RsqwaH6ybDE2q4nPtx3j9fe3BtQuJCGGMd+8Fp3FTOm+LE5/srlX42pPXV4htqHxmCLDiB6bQVhqIl6nG2dNHf5O6uKFEEKI7pCyk4uITqvj7z98lWHRKdgdtRzNP8LQqEQibFH87IUfkJUf3GCz6LEjSLt6LoqqUrovi9y1mzodhCkGl+mTh3PHN2ajUVU+33aMV9/Z3OkgzEBNuySdb988G51Ow7rNR3j9va0B1XlHjxlO6uJ5qFoNJbsP9Uvi3UJRiB6bwZBpEzFFNc8K5HW5qT6RR8nOA9SX9O6HEyGEEBcv6fm+iPh8PtYfWEN0aAyx4QnYzKFkFRzif155iNOlwc8k0VhWSX1xGREZydTlF1F7urAPohZ9pbC4ilN55Uwcl8zxE8UczSnulfMmxIUzcVwy76zaxXsfBz6I0RwdQURGCvkbdlCwsfMVW/tCY1klZ/Yepi6/GFAwR4UREhdN+aFsXHX1/R6PEEKIC5P0fIse05pMMjfyeSzEYqS+oanrA4MQajNTW9cYdDt9iBlXffDt+oKq1WBLjKcmVz5UCiGE6D2SfAshhBBCCNFPZLYTIYQQQggh+okk30IIIYQQQvQTSb6FEEIIIYToJ5J8CyGEEEII0U8k+RZCCCGEEKKfSPIthBBCCCFEP5HkWwgx6Jl0eh6ctZhpiWm9ds4QvZFH5l7L2NihvXZOIYQQoiuSfIsL1sy51/PP1/fwm/99a6BDuajc9F8v8tA/TzNu1jd65XwR5hB+Nf96JsQncvO4SzFotZ0eH+hzXzh8LKNjEnho1lXMTM7olViFEEKIrnT+W0yI85jRaAKgsdE+wJGI7oqyhPDI3GuJsdjIKivmya1rcXo8nbYJ9Lm/c2Q3Hq+XJZmXsmzKXLSKyobcY70WuxBCCNGeHiXfJlMEqakLcbns5OR81OFxqamXYzJFdXk+u72I/PxNPQlJXABM5hCe+efnADz0w2uoKC/p1nn0BiMADfV1vRZbe2bNu4E77/0Fh/Zv5S+//2GfXutiEmY08+jc64i2WNlZeIpntq/D4/N12S6Y5/7BsX3UNDVw96Vz+O6ls/H4fWw+nd3j2IUQQoiO9FvPt8fT1OE+VdWiqlr8flnpXvSe/NxjrP7wZQryJZk63xi0Wn4ycxHRFis7Ck7y9Pb1+PxdJ94Q/HPfeDobr9/P96bO4+7Jc6hsrOdoWXFPwhdCCCE6FFTybTCEEh6eik5nQaczo9dbAmp36tSnne5PTLwMmy2RmprTwYQjRKcOH9zO4YPbu91eURS0Oh1ejxefz9uLkZ3nFAWtVo/X68HfR+/L7RMvIzUimqPlJTy7I/DEG7r33Lfk5RBmNPOt8dP44bTLeXjNm9Q5HcGGLYQQQnQp6OQ7MnIEfr8Pn8/dKz3VJlMUNlsiDkcldnthj88netfSu/6b6bMW8+cn7mPs+OlMu2wRGo2GN197ilMnDnHTN+9nTOY06utreP6ZX5J78ggA9/7wt4y/ZBYfvL2c1R++3O65zRYbTz63Fq/XzY/vuQKns+NvR7qi1ep47uVtKIrSZt+xrD388fF7ujyH2WxlxuyrGZM5jcSkDEJDI9GcHdy3YvkTbFz/bqvj//T0R0RGxbW8HjdhBv98fU+rY+rt1dx/9+XduaU2rv/eM6RmzuW1338Drc7AxHlLSUifiN4QQtHJPWxf+QwluQfatFv2p83YIofy6m9voujE7lb7TCER/PCvewH4v3sz8LhdbdobzDbGzvgayWNmEZM4GnNoNBpN8/uyesXDHNz4eocxh8emcOmV3yUuOZPIhDRqyws5uOl19nyyAn8HCfWE+GHMTRlJndPBU9s+6bTUpDee+zkfHT9ARlQck4ckc9fkWfxly9qA2wohhBCBCir5ttsLycp6oyXpPlfz3RNxceMBKC1tmzSIgWc0mjEazSz70e8IDYvE2dRAiDWcu+77FS6nC4/HRYjVhtUWxq13PsQTj34bgL27PmPqZVcyf+HNrFn5aruJ1uSpC9BqdezYuqZHiTeARqPj4w9eRG8wYjSa0BtMxMYNIyllZEDtR4+dwrIf/ZYQazh+vx97XTUV5cWggMFgRlXbTgyUc2w/J1SVmNghpKSNobamkmNZrZNvZ1NDj+7ry/QmKzqDhblLfs6wkdNoqC2n0V6FNWIIwycuJGXsHFYu/zHZez4O4qydf4BOGn0Z1y17ClNIBH6/n0Z7JXUVBQDoDBZUVdNh2/FzbmHh0icAsFcVARA1JIP5t/wSncHCtg+fatNGo6jcNmE6AP8+sIPaps57n3v63L/qX3s2MT4ukclDUhgZHc+xLsYbxMWN46ab/gFAXV0xL730tW5dVwghxMUjqOS7o56q7rJah2I2R1Nff4aGhrJePbfoHV6vG4CighM89rNv4nI18ZOfP8uI0ZN44dn/YfeOT0lNH8ujT7xI4rAvpmvbu+szaqrLiYoewrgJMzi4b3Obc0+7bBEA2zcHkyy2z+ls5K1/t07mps+8irt/8ESXbbVaHfc98EfMZivv/ufvrFvzBo0NXQ/WW/70I0DzgMuUtDHknz7Oc3/97+7dQAC8HicAGo2WFx+7mrKCo0Bzz/S19zxJauZ8Ft7+G3IPb8TtDCzpb/3tVeveY41Wxw33/Q2D2cbmd/+PvetepKmxNuB4tToj7z59L6ePbMTn9aDTG7nqO39m5JRrmLZ4GTtW/Q2ft/XMJZOGJBFvDaOioZ4t+TldXqMnz709NU2NfH76OJenjebqEZldJt+K8uUPZTJmRQghRNcGbJ5vRVHP9nr7KSuTXu/ByuNprundvf1TGhvteDxu8k43T8eWfay5XCH3ZBZ+vx+dXt/SE+r1evjsk7cBWHBl2/mebaERjBg9idqaSo4e3tUft9Kh1OFjMZut2OtqWPnu8wEl3gPhXKJ6aMvbLYk3gLOxjvee+R4NteWYrRFMmPvNwE/aSelYQupEDGYbjfYqtq58KqjEG2DPpys4dXB9S9xuVxPrXnsMaO41t0UMadNmxrB0AFbnHMQbwMwmfWHlsf1Ac/lLV3OKf7ncRQaMCyGECMSAJd/h4ano9VZqawtwOKoHKgzRhXM938qXygt83taD7JrHALQdePf5urfweNyMHT+dmNjEVvsunXYFiqKyY8vqAR/MWHamEK/Xg9UWxrfueBDD2anqBhvv2fmtz9Vbf5nH7eTA568BEDtsbMDn/PK3WcpXSmuqy/LweT2YrRFc/q3H0BlM3Qm7lYa6ChrrKgGwRca32T80NAKA7IrSHl+ru8ob7NQ2OVAVlbiQ0E6PLSk5xPLll7N8+eW8/vrt/RShEEKI89mAJN+qqiM6ehx+v4+yskMDEYIIkPdsot1ezXNX6mqr2bl1LYqiMH/hza32TZlxBQBbN63seZA9VFNdzvKnf4GjsZ4FV36DPz29kmu/djdmi22gQ2vF5zubfGt17e6vKG4u0wiPSw3inF/uXW79jOtrSlm5/Mc4HXYmLfg2y/60hRnX3o/R3HlC2pVzPejKV+rFNYpK7Nn3/Iw9uF723lZsrwFgiC280+P8fi8uVz0uVz1ud2N/hCaEEOI8NyDJd3h4KlqtAbu9CJdLVh8czPxnkzONpuOBdZ35dPW/AZg577qWHuWIyFjSMyaQl3uM/EGyoMmubWv52f3Xs2blKxiMFm5csow/PvUBC6++FW0HyW5/O/cs1HZ6voGWHuWv9mB37ks93+3NGLJrJct/Nptda55HZwhh5o0PcO8fN3Hpwrs6/BDQpQ7KM/RaLRpVxY8fl6/zVSz7muvstwzd+dAphBBCdGZAfrNERDTXdVZVnRiIy4sgnCtL6GxWi86cPnWUnOP7MJutTL3sKgCmTL8CRVHY9Nl7vRZnb6ivr+GNV/7Cz+6/lo8/fBFVUbll6QM88b9vEhXdtj55oChK+88iNHoYAPaq9heIaS+5/vKAx46esaO+ms/eeILlP5vJzo//jqKqzLvlF9z1xCeERiW226Y7HG4Xdc4mFJQuyz36Wryt+foldTUDGocQQogLT78n3xZLLHq9FZfLTkPDwNV1isCcS77bS9wCtXZVc+/3giuXADD1sqtwu1xs37y65wH2gZrqCt589a889MPryD66j5jYRO763mMdHn9uoJ2hF2qiO9PyQaiDbyGGpE0A4PSRTa3bne0x15usbdp4v5x8dzG4sL6mjA1v/p7nHppFQfZOwmKSWXzXnwO/gQCU2JvHfwwN7bzcoy8ZtDqizCHAF+UnQgghRG/p9+Q7ImI4ANXVJ/v70qIbzlUI9OTr9327NlBZXkxiUgbzrriJpJSR7Nm5nsbGwV1yVF9fw6oP/gVAclrH80aXleYDMCQxFZ0u2FIMBUXRnP3T1Xvc/DDaOy4yPp0xl91MdWkuh7e81WpfXfUZAKIS0ts5pb+l91ujCSx2R301O1f9DYC45MAHdwbicGlzr/2CtDG9et5gLEgbhaqoHK8owdHOokNfZrXGM3HibUyfvoyMjJ6teSCEEOLi0K/Jt05nxmpNwOfzUV2d25+XFt3kPzd3cQ96vn0+L2tWNc/EsfSu5nmwN20YXCUn7UlKGcl1X7sbgMMHOl6uvCAvB7fbhSUklPsffJLU9HEBl+mMGXM93//+Fr7//S0sXvz7gNqYbZFodXqgedBi2vgFfOPB11AUhY+e/wnuryyLXnl2IOYll99JWHRSy/aIuFSuW/Z0Sw25GmDyHZs0lunX3Q9A7uFNXRwdnA25x3B7vYyKjifjS6uH9hedRsPijEwA1uQc6fJ4t9vB9OnLuOSSOxg9+rq+Dk8IIcQFIKhFdmJjM7FYvviFqKrNzbVaS6uVLp3OOoqK2iYr4eGpKIpKbe1pvF5nd2MW/els13f3U+9mm9a/zw033YPZYqO0JJ9jR3Z33Qh48NG/4/G2P/jO0WDniV/cAUBoWCQ3Lvleq/0xcc010HHxSdxxz6Ot9h3Yu5l9uzcAMHHyXG5csgyn04Hf50NvMBMRGU2Itbn04XjWXlYs73jRFkdjPc/99efc919/YEzmNMZkTsPpbKS6shyHo55nn3yYyvL267ANBkvL312uLmbLOPssLrn8TibOW0pdVRGW0Fh0eiN1VSW8+9Q9FJ/c26bZzo+XM27mEqwR8dz123XUludjtkZgtISRs28t9uozWMPj0OoMrdoNn7iQmTc+gNvZiN/vQ6c3Y42IwxTSPB1gwfEdrF7xcOcxB6mqsZ41OYe5ZuR4vjV+Ko+v/xBfJ4t79eS5t2dxRibhJgsnq8rYWdD1t3NNTTUUFu5l2LAphIb2Xv27EEKIC1dQybdOF4LJFNFmu6qqrbZ7vW2XClcUlfDwNEBKTs4n5+qZe1LzDc0rEeYc38/4SbP5ZPW/A16QJDp2aIf7CvK+WAHRZA5h9vwb2z0uLDyqzb6iglMtf7eFRjB0WHM5lN/vx+Gop7y0iN07PmP3jk85enhnl/Hu3fUZv35kKTPnXk/a8Ewio+KJjhmCqtFQ38mgPZ3O3PL3YKaqUzVaNBo9+ce2UXxyL7vX/rPDVS1ryvN47fc3M3fJz4lJHIXZFklp3hH2rX+Z7D0fc9sj7zQn3/rW85ubbVFED20ut/H7/bgcdqrL8zm+ezXZu1dx+uiWThfp6a53juzh0qHJDI+M46axk/nPoZ0dHtuT5/5VGVFxfH3MZFxeL//Y9XnA61XW1hYAU2hsLA+whRBCiIuZEhKSJMuyiT43ftJs7n/w/6isOMMjD9yI2+0e6JBa0Wi0aDQavF5vq0GIg8miO35P5uxb2PL+k2x5/8l+uWZzkq/F6/W0WQq+L6VGRPOLedeh12j5x67P2ZB7rE+vl2AN41cLridEb+SFPRtZf/Jo143OmjHjPiZNup2srPdZv/53fRilEEKIC0FQPd9CBMNospCcMpJpM6/isjnX4nG7+duTDw26xBuaZ/0YrEn3QPL1c9J9zqmqcp7dsZ4fTb+CuybPwuf3sbGP5oQfYgvnv+dcTYjeyEfHDwaVeMMXU6cePvxuX4QnhBDiAiPJt+gT4yfN4v4H/9JSrlJTXc5Lz/+O3JNZAxyZOF/sKsxl+a7PuefSOdwzZS4WvYGPs3t3Rdy0iBgenLUIq8HEupNH+feBbUG1NxhsDBkygVOnNlJW1re980IIIS4MknyLPtHQYKe2poLC/BMcPrCVz9e9g9PZdiyAEJ3ZePo4PvzcM3kOt02YQbw1nBV7N3c6CDNQlyUN57uT56DXaFiTc5iX920JuM675RyX/QC7vZRPP328x/EIIYS4OEjNtxBi0BsXO5QfXbaQtTmH+M+hXb1yzunD0rj30nm8eWQXHx070K1z2GxD8HpdNDTIYEshhBCBkeRbCHFesBqM2Hv525Mwk5kaR+CzzAghhBA9Jcm3EEIIIYQQ/aTfl5cXQgghhBDiYiXJtxBCCCGEEP1Ekm8hhBBCCCH6iSTfQgghhBBC9BNJvoUQQgghhOgnknwLIYQQQgjRT2SFy/NQypWzUFCoyMqhrqBkoMMRQgghhBABkuT7PKPR64gZNwJVpyN20hictXWU7j9G6b4jeByyfLsQQgghxGAmi+ychzQGPRHDU4ganUZo6jAURcHndlO0/QBF2/bg9/oGOkQhhBBCCNGOHiXfJlMEqakLcbns5OR8FOylCQ1NJDJyJPn5n+PxOLsbxkXNEGojYWomsZPGoigKtacLOfrGR/h9koALIYQQQgw2AzLg0mgMIzX1CoYOnYHJFEFoaPJAhHFBcNbWkbt2M0dfX4nf5yM0eSjWoXEDHZYQQgghhGhHUDXfBkMo4eGp6HQWdDozer0l6AuGhaWSkDAZRVFpbCynvPwI9fVngj6PaK32dCH1xWVYh8ahNRkHOhwhhBBCCNGOoJPvyMgR+P0+fD43fn9wFSuRkaOIixuPz+emqGgHtbV5QbUXHdMY9FhiI/E0Oak9XTTQ4QghhBBCiHYElXzb7YVkZb3RknSfq/kOhM02jLi48bjdjeTlbcDprAs+WtGh4dctQNVqyX5/NV6n1M8LIYQQQgxGQSXffn/3BvFpNHoSEi7B7/dRULBVEu9eljB1AuHpyRRu2U11zumBDkcIIYQQQnSgX+b5Dg9PR6MxUFmZjcNRgckUidEYhkajo6mpjoaGM91O7AXEXTIWgLL9Rwc4EiGEEEII0Zl+Sb5ttqEAuN31pKUtwmgMA/yA0rI9L28TTmdtf4RzwXE3NmEItTJ05mRyP92Cz+Ue6JCEEEIIIUQ7NHp92GPdbazTmQgPT8PrdVFVldPhcXFxE1EUFYMhlOrqExQX7+LMmf3U1OSi0eixWGKx2RKprj4hPeDdYC8oxjo0gfC0YSRMGY9tWDzWIbHYC0vxe70DHZ4QQgghhDirz+f51unMqKoWt7ueEydWUVl5HLe7EQC3u4Gioh00Npaj1Rqx2Yb1dTgXJEdlDYdfeZfyg8dQtRrCUhKJmzQWVTMg07gLIYQQQogO9HnZiaJoAPD7VXw+T7vH2O1FmM3RGAyhfR3OBSkkIYYRX1uEp6mJvHVbqCs8Q1O1HY/DMdChCSGEEEKIL+nz5Nvtrsfv96HXm1BVDT5f2zIIv7+59tvrlSnyuiPj+svRGvXs+9sr+LxStiOEEEIIMVj1eV2C3++nqakGUAgLS233GKu1eTl0h6Oyr8O5IPn9flSdjtCUoQMdihBCCCGE6ES/FAWXlx8CIDY2k5CQhJbtiqIQE5OJxRJLQ0MZDQ1l/RHOBSdv/Xbw+8m4YSEh8TEDHY4QQgghhOiAEhKSFPAa8bGxmVgscS2vVVWLwWDD5/PhdNa0bHc66ygq2t6qbVzcJCIjM4DmgZZudyMGgw2NxoDTWUde3oaWgZgieAnTJ5I0dxouewP7//E6XqdroEMSQgghhBBfEVTNt04XgskU0Wa7qqqttnu9TW2OOXNmLw0NJUREpKPXh2M0htHUVENdXTFVVcdalqwX3VO8bR+RGamEJMQQkZ5E+ZGOp34UQgghhBADI6jku7BwK4WFW7t9Mbu9BLu9pNvtRefOzW7i9cjc3kIIIYQQg1G/rHAp+paq05G8YDphaUk4qmqoPZU/0CEJIYQQQoh2SPJ9HjPHRBIzfiQxmSPR6PXYC0vIfnctXnf786kLIYQQQoiBJcn3eUZrMjL0skuIyEjGEGoDwFlr5/SnWyk7cHSAoxNCCCGEEJ2R5Ps843O5iB47HI3RSG1uIaX7s6jKzsXvk8V1hBBCCCEGu6CmGhSDgy0xHkd1Le56mZpRCCGEEOJ8Ism3EEIIIYQQ/aRfVrgUQgghhBBCSPIthBBCCCFEv5HkWwghhBBCiH4iybcQQgghhBD9RJJvIYQQQggh+okk30IIIYQQQvQTWWSnF0y5eSwAp/cWU3aqCmTyRiGEEEII0Q5JvntIZ9SSOmUIWr2WjJlJNFQ1krOtgJwt+TgbXAMdnhBCCCGEGERkkZ1eoDNqSRwXR9KkeBJGRaMoCh6Xh6x1uRz+JAefV95iIYQQQgjRw+TbZIogNXUhLpednJyPOj02LW0RRmNYh/vt9hLy8z/vbiiDhiXCzOh5KWTMSkJRFM5kV7Dubzvx+yQBF0IIIYS42PXbgEuNRg+Ay2Vv94/TWdtfofSphqpGdr19hHXPNifccRlRxKSGD3RYQgghhBBiEAiq5ttgCCU8PBWdzoJOZ0avtwTcVqPR4fO5u+whv1Ccya6gIq+a6JQIDBb9QIcjhBBCCCEGgaCT78jIEfj9Pnw+N35/YKUUiqKgqjrc7sZuBXk+0hm1hA+x4Wp0U5JdOdDhCCGEEEKIQSCo5NtuLyQr642WpPtczXdXzpWceL0XyewfCsy8fQJanZYNL+3G7XAPdERCCCGEEGIQCCr59vt93bqIRmMALp7ke/S8NIaMieXQmhwKD5UOdDhCCCGEEGKQ6Jd5vlW1uefbZApn2LA5uN31OBxVNDaW4nJdeKUoI2YlAZCztWCAIxFCCCGEEINJvyTfPp+Lmpo8dDoTRmMoVmt8y77GxnLKy49QX3+mP0LpF00NLiwRJjIXpbP73Sw8Tu9AhySEEEIIIQaBfpvn+8s0Gj1mcwxhYUnYbEMBOHNmP5WVx7sbyqBiiw1h1rcnEj7Ehtfto+xkJfaKRvatPC7130IIIYQQF7F+m+f7y7xeF3Z7IQUFW8jLa15YJyZmPKqqGYhwel1daT1r/t9WTu4oRKNTiR8ZTcbMJDRaZaBDE0IIIYQQA6hfyk46U19/hqamWozGMAyGUByOqoEOqccik8KY851LcDnc7Hkvi7JT1dRXNOJsuDgGnAohhBBCiPYNePKtqlr0eivgx+NxDHQ4vWLW7RPQm7W89+v1+DyyrLwQQgghhGg2IGUn5+j1VoYNm4OqaqipOY3bfWEk334/aPVa4kdED3QoQgghhBBiEOm35FtRFHS6EEJCEoiOHktKygKGD1+MxRKN3V5EScnu/gqlz+394Bj4YdYdE4kcFjbQ4QghhBBCiEEiqNlOYmMzsVjiWl6rqhaDwYbP58PprGnZ7nTWUVS0veV1fPwlRESkA60HHDoclVRUHKOu7sKbD3vM5WlMvHYkjTVNfPi7z3E3eQY6JCGEEEIIMcCCqvnW6UIwmSLabFdVtdV2r7ep1X6fz4vb7cDjaaSpqRaHo5r6+hLc7oZuhj34Hfn0JMMy44hMCmPo2FhydxcNdEhCCCGEEGKABZV8FxZupbBwa9AXKS3dT2np/qDbne+azs5u4nXLIjtCCCGEEGIQzHZyIdLqtVxywyiGjI6hrqyB4qPlAx2SEEIIIYQYBCT57kXhCVbSpiWSNjURnVFL+akqNv5rLx6X9HwLIYQQQghJvnvMYNEzdmE6wzJjsUSYAWiocrD73SxO7igAmeZbCCGEEEKcJcl3D7mdblIvHYLerKPkeAU5W/MpPFiKz+cb6NCEEEIIIcQgE9RUg6J9MWkR2MsbcNQ5BzoUIYQQQggxiEnyLYQQQgghRD8Z0OXlhRBCCCGEuJhI8i2EEEIIIUQ/keRbCCGEEEKIfiLJtxBCCCGEEP1Ekm8hhBBCCCH6iSTfQgghhBBC9BNJvoUQQgghhOgnknwLMcBmzr2ef76+h9/871sDHYoQQggh+pgk30IMMKPRBEBjo32AIxFCCCFEX+tR8m0yRTBmzC0MH351AMdGMWbMLYwe/Q1UVduTy4qvsFpjuP3291iw4JGBDuWiYjKH8M/X9/DP1/cQFR3f7fPoDUYAGurreiu0ds2adwP/fH0P//XwU316HSGEEEJ0rN+yYJMpDICmpip8Pk9/XfYioLBgwa+w2eLYvn3XQAcjuiE/9xirP3yZgvzsgQ5FCCGEEH0sqOTbYAglPDwVnc6CTmdGr7cE3NZoDAegoaE8uAjPIxERKYwf/w0KCnZz4sSn/XLNiRNvYejQS/D7/RQU7OzTaw3E/V0MDh/czuGD27vdXlEUtDodXo8Xn8/bi5EJIYQQorcFnXxHRo7A7/fh87nx+/0Btz2XfDc2VgQX4XkiPDyZJUv+iVZrIjZ2bEtyGhqaSEbGQkaMWMTp01vYvPnJDs6gkJ4+n1GjFhMZmYHBYKWurogjR97n4ME3gdbv9ezZD5CZueSL1orCXXetbnVMcfF+3nlnWattcXHjWLTot/h8Xl566YZWf73FdgAAIABJREFU+7RaE/feuw6328Hy5Ze3umZ372/SpNuZNOlWdu58noMH38RiiWL8+G+QljYPiyWSoqK9rFnzK1yu+q7e4k4tveu/mT5rMX9+4j7Gjp/OtMsWodFoePO1pzh14hA3ffN+xmROo76+huef+SW5J48AcO8Pf8v4S2bxwdvLWf3hy+2e22yx8eRza/F63fz4nitwOpu6HadWq+O5l7ehKEqbfcey9vDHx+/p8hxms5UZs69mTOY0EpMyCA2NRKNt/qe8YvkTbFz/bqvj//T0R0RGxbW8HjdhBv98fU+rY+rt1dx/9+XduSUhhBBCBCGo5NtuLyQr642WpNtkiiA1dWGX7RRFxWBoLjtxOC7M5Dsz8ya02uaBcyZTGNde+xeio0dgNke0HONwVLfbNiQkhoULHychYQJer4fKymwUBSIj05g9+wG0WiN7977Uqo3dXs7hw+8SHT2C2NjRlJfnUFp6uNUxJSX7W71WVS3z5v2MkJBocnM3tokjKiodRVEpL8/mq8l+d+8vIWEcRmMotbXFZGQsZM6cB9HrLfh8PjQaLUlJlzF27Nfa3F+wjEYzRqOZZT/6HaFhkTibGgixhnPXfb/C5XTh8bgIsdqw2sK49c6HeOLRbwOwd9dnTL3sSuYvvJk1K1/F7/e1OffkqQvQanXs2LqmR4k3gEaj4+MPXkRvMGI0mtAbTMTGDSMpZWRA7UePncKyH/2WEGs4fr8fe101FeXFoIDBYEZV2w7jyDm2nxOqSkzsEFLSxlBbU8mxrNbJt7OpodPrxsWN46ab/gFAXV0xL730tQDvWAghhBBfFlTy3V5iEgiDwYqqqrjdDXg8rZOX8PA0rNYEKiuP09BQ1q3zDwanTn1OSspsQkJisFii0OmMVFefJjt7LWPG3IBGo+X/s3ff8VWV9wPHP3fP7L3IhEDYEWQjiiDgRBQHRa1YRevPXdyjVWtbV+vA1lFH615VEFEBGaIgG8JMAmSTvcfdvz9uErjehAySG8Dv+/XyJTnnPOOcJPA9z/0+z7N371KvcmZzGJde+k/M5nDWr3+JXbs+wm63AjBo0AVMnfoQgwbN8gpOt21zj9JOm/YYERFp7NjxPvv2LTtuH0eMuIKQkBQACgt3eZ0PD3cHgKWl+3vs/oKDkwAYMGAaCQnj2bDhX+zd+xVKpYrZs18hLKw//v7dn6zYwuGwAVCQl8Vj916F1drE3Q8sJjUtnTcW/5HNG1eQlDKEh554m7h+A1rLbd30PVWVpYSGxTB0xHh2bvvBq+6xE2YAsOGHr0+4nxZLA5+87znhcdzEmfzu1ic6LKtWa7jlrr9hNPrx+Uf/ZOU3H9JQ3/EkzVdfck/EnXT2JSQmDyb38H7+9cL9Xeq3QnFsUN/5T7yEEEII4cknEy6Pl3JiMkXg5xdDVdVhX3Sl1+TlbaK8PJv6+jI+//xm7HYLALGxoxgx4kqyslbR0FDuVW7y5D/g5xfF0qV3kZPzk8e5gwfXMHXqQ22OZraIjBwMQFGRdzD9S3p9AC6XA4VCxZEjO73Oh4WlAlBauq9H7k+j0ePn5w6sg4Liee+9eR45/0eO7CAsrD91dcUd9r0jdrs713nzhhWtS/blHN5Halo6B/ZtBeBQ9h5cLhcarRalUoXT6cDhsPP9d58ye+5Cpp53hVfw7R8QTGpaOtVV5ezN6NsJrUn9h2A0+lFbU8XSz1/vUtrXiTo2TcaX7QohhBCnG5+s863TBQDQ2OgdfJ4uEhIm0a/fmaxe/ZfWwBRgyBB3XvXevV96lYmPn0BS0mQyMj71CrwBBg2aBUBm5qo229TrAwkIiKOpqYrq6rwO+/jTT//EZmvE6bRTWrrX6/zR4Nt71Y3u3F9gYDwKhZK6uhI+++wWr8m2fn4RAFRX53fY9460jHwrlKrWY06H5+RD91wF7wmJa1Z+gt1uY8jwcYRHxHmcGz12GgqFko3rl/f5ZMaSI/k4HHb8/AO5+ro/oGteotAXiop28eqr5/Lqq+fywQfX+KxdIYQQ4nTjk+BbpWrZRKTCF835nFZrZvLkO9mx42OPwNVgCCQxcQqNjVXk5W32Kjdhwq24XC6vlBKzOZxzzrmfiRPv5PDhdWza9Hqb7UZEtIx6e49ityU4OBGt1kxp6f7W1JYWKpWG4OBE7HYLlZU5PXJ/ISHulJPi4t3Y7Y1t9Kd/l/p/PI7mQPt4nxK0p6a6kp9//BaFQsE50y/3OHfm+GkA/LjOO6XG16oqS3n1pYdpbKhj6nlX8PRLS7nw0t9hNPn3etsulwOrtQ6rtQ6braHX2xNCCCFOVz5JO9Fo9IALi6XKF835mIJp0x6hsbGCDRsWe5xJSpqCSqUmM/M7r7XNAwPjCA5OpLo6j+DgZOLjJxIQEEts7CjCwgZQXp7NihV/Om4ed1TUUACKijLaveZYkZEt13unqISEJKNUqikt3YfLdewIb/fuz12nO7guKfFOY/H3j8HfP5Lq6nzq6k4819/ldM9HUKlUHVzZthXL32f85POZePZFfP7RYiyWJoJDIkgZMIKcQ/vIPXxyrMG96adv2bvrZ86/5Lecc95cZs9dyHkXzOPLT19j1TcfYbfb+rqLQgghhDgOn4x8q9V6bLb603JznVGjriU0NJWvvlrkNZqcmDgRgEOH1nmVCw5OBNxB6NSpD5OWdhEGQyD79i3j3Xev5P3353U4gbJl5Lut/O22REYOA9oeaW5JOSkp8Zxs2d37AwgNdQffbaW4xMaOAty55D2hZTKwUtm94Pvwwb1k7t+G0ejHmAkzAThz3DQUCgXrvv9fj/Sxp9TVVfHhf5/n3tsu5Oslb6NUKLly/l088ezHhIbF9HX3hBBCCHEcPhn5ViiUaDRmBg++st1r4uImAHD48MpTaiOeiopDfPXVPV4pNSqVmtjY0TgcNoqKdniV02jcqTi5uT+xZMnd3Wo7ImIQ0HaOdlvCw90Bdnl55i/6qiE1dWabdXX3/gDCwtyrivwyoAeIixsNQG5u9zeXOVZL8N3W+tmd9e2y9+mfOpKp581l7arPGTNhJjarlQ0/LO+4cB+oqizj43df4Osv3uHWu59hwKCRLLj5Mf76p9+1eX3LREmdzuDLbgohhBDiGD4Jvu32pnaDIrVaj1KpwW5vwum0YbMdf73hk83Bg2vaPO7nF41araOy8rDHBMUWtbXuFT7co9EKurp8m9EYglZrxm5v7HQObsuSfg0NR9fj1mj0nHfe40RHjwCgrMwz+O7u/fn5haPXB1BTc4Smpmqv87GxZwA9k+8N0LIAR3dyvlts27Sa8tJC4uIHcPa0y4hPHMiGH5a3rp5ysqqrq2LZl28yYNBIEpLbXy+8pDgXgJi4JDQaDTZb51NU/PyiSEmZil5vprz8IAcOfHvC/RZCCCF+jXySdnL48CoyM79q87/a2iIAioq2kJn5FVbr6TGZq2WJPZVKc8zRoy8gR45kUF9fhk7nx/jxt/ziOveygElJZ3HOOfej1Zq86m9Zd1mp1ODvH916XKs1k5R0FqNG/dbjeqVSjUqlBaBfvzGAgujoEcyZ8xoWS0PrBjl1dSWoVBq0WvMJ3V9oaMua4d753gZDIAZDEBZLLY2Nleh0fl7331WulpeXExj5djodfLPsPcC9YybAutUnV8pJW+ITB3LRpe7R7owd7X+SkJeTic1mxWQO4LY//J2klKGdTtOx2RoZN24hZ5xxHWlpF/VIv4UQQohfoy6NfEdEDMNkOrpNtVLpLq5Wmzx2urRYaigo6Jl0glNVy4ZB/v4xXHLJS9hsDURGDuXDD6+lrq4Ep9PO6tV/Y9asv5CePp/Bgy+hsvIwCoUSkykMszkcu93C/v1f/2KDE7eGhnJqagrx94/m6qvfpbz8EHq9GX//OOz2Rnbt+sTjeqfTTllZFuHhA5kx40kcDhsqlYaMjM9Ys+ZZFixw55fPmfNPjMYQ1q59rs1Nczp7fy0pJ21t2GMwuNd91+n8uPrq9wgI6MeSJXeQn++9YkqnNQ99dz/0dlu36gsuuexGjCZ/ioty2be7c336w0P/xO5oe05DY30tTzx8HQABgSHMnnuzx/nwyH4AREbFc92ND3mc27H1B7ZtXg3AyFFTmD13IRZLIy6nE63OSHBIGGY/9/Pcv2crb73a/mY9jQ11/OuFB7jlzr8yeNhYBg8bi8XSQGV5KY2NdSz++32Ulxa2WbapqYr8/K3063cmAQFxbV4jhBBCiI51KfjWaMwYDMFex5VKpcdxh+PEtuA+HVRUHGLnzo8ZOHAWAQExFBXt4rvvHqO+/uhGQ4cOreWTT27kzDN/S2TkUEJDB2Cx1FBcvIctW97mwIHvsFja3sHQ5XKyfPlDnH32fYSGJhMYGEtRUQbbtn3AgQPfYLV6p++sWvUkU6c+QmBgDGVlmWzZ8l8OH3ZPlty+/X1GjLiSqqpc1q59lpyc4788dXR/oaEtwbd3PnplZQ4FBVsJCUmitraYNWuepqBgW+cebDta8plPJOcb3DtQZu7fzvD0yXy3/P1ObygTFhHb7rm8nKM59gajmcnnzG7zusCgUK9zBXkHW//sHxBMbD/3JFaXy0VjYx2lxQVs3vg9mzeuYG/Gzx32d+um73n8wflMnHIxyf2HERIaRVh4DEqVirqa469G5F5L/kwaGk6dORlCCCHEyUZhNsfLdnVCNBuePpnb/vAc5WVHePCu2V3Ki/YFlUqNSqXC4XDvzulL48ffQnr6NezZ8wWrVj3l07aFEEKI04VPJlwKcTLTG0wkJA5k7MSZTDjrQuw2G6/8fdFJF3gDOBx2nwfdLYKDUwDIyPi8T9oXQgghTgcSfItfteHpk7jtD8+3pqtUVZbyzutPcSh7Tx/37OSi0/kTEzOCgwfXtrlpkhBCCCE6R4Jv8atWX19LdVUZ+blZZOz4kTUrP8NikTkLvzRhwq3U1hazYsWf+rorQgghxClNcr6FEB3y94/B4bCeUhtgCSGEECcjGfkWQnSopqagr7sghBBCnBZ8ssmOEEIIIYQQQoJvIYQQQgghfEaCbyGEEEIIIXxEgm8hhBBCCCF8RIJvIYQQQgghfESCbyGEEEIIIXxEgm8hhBBCCCF85LRc5/u69IkoFAp+ys1if2kRsouQEEIIIYQ4GZx2wbdBrWFy4gB0Kg3nJqdRWl/L9wf3sTJ7D3VW2TZcCCGEEEL0ndNye3mDRssZMQmMi0tmeGQcCoUCi8PG0n07+WLvVhxOZ193UQghhBBC/AqdUPBtMASTlDQdq7WWzMyv2r0uLCyN8PBhx63L6bSxd++n3e1K+22b/Jg1YBjTUgajUCjIKC7gr2uX4XRJAC6EEEIIIXzLJxMuHQ4rVmttm//ZbA0AKBSqXmm7tL6Wt7et5y9rv8LpcjIkIobU0IheaUsIIYQQQojj6VLOt04XQFBQEhqNCY3GiFZr6lS5ioosKiqyvI5rNAbi4iaiUmnIz/+xK13psoziArLKSxgQGomfztCrbQkhhBBCCNGWLgffISGpuFxOnE4bLlf308UNhmDi4iYCLg4eXIHFUt3tujrVnkZLfGAI9VYLGcX5vdqWEEIIIYQQbelS8F1bm8+ePR+2Bt0tOd9d5e/fj5iYM2lqqiQ39wccDkuX6+gKBfD7MeegVat5+YdvaLBZe7U9IYQQQggh2tKl4NvVA5MUw8KGEB4+mKqqwxQWbuqROjsyK3U4I6Pj+XzPFrYU5vR6e0IIIYQQQrTFZ+t8K5UqoqPHEBDQj5KSDEpLM3zVNNP7DwZg1cF9PmtTCCGEEEKIX/LZ9vL+/vEEBPQDIDQ0jaSk6YSHD0OrNfd627VN7s115gxOR6/W9Hp7QgghhBBCtEWl1QY+1t3CGo2BoKBkHA4rFRWZx73Waq2hpiaP+voSHI56tFp/AgLiCA7uj1Zrpr6+pNdSUPaVFpEaFsWIqH7MHDCMQWFRpIREcKDsCDano1faFEIIIYQQ4pd8Fny7XC7s9iYslmrq6oqprMyitjYfgyEUP78oTKYwqqtzgJ7fcLPW2sT6nEyCDEaSgsOIMPuTHBzO1wd2YXHYe7w9IYQQQggh2uKznO+2NDVVcfjwCvr3vwCjMQy9PpjGxrIebyc5OJw7Jkyn3mrhv9t/5EBZMSX1NdRamnq8LSGEEEIIIdrTp8E3gNPpwGZrRK02oFbreqWNW8dNxaTRcudX72F3yrbyQgghhBCib/hswmXbFAQHp2AwBON02qivL+mVVpwuFzq1hiERsb1SvxBCCCGEEJ3hs+BbqVSh0RgxGEIJDEwkKuoM+ve/kKioUbhcdvLy1uN02nql7fd3bMSFi9vGnUtScFivtCGEEEIIIURHFGZzfKdnOEZEDMNkimz9WqlUo9P543Q6sViqWo9bLDUUFGxo/Tom5kwCA5O86nO5nFRX51BSshubra6799ApFw4cwZXDxlDRWM+i5R/RKLtcCiGEEEIIH+tSzrdGY8ZgCPY6rlQqPY47HJ4TGe12Gw6HBbvdgtVah9VaTX19GfX1xTidvlltZMm+7YyOTSQ5OJz06HjW5xx/dRYhhBBCCCF6WpeC7/z8H8nP/7HLjRQXb6O4eFuXy/W0ltVNbA5Z21sIIYQQQvhen6924gs6tYZ5w8cyIqofRbVV7DiS29ddEkIIIYQQv0KndfDdLzCYKYkDmZw4EINaw/6yIl74aQUWu2ysI4QQQgghfO+0C77NWj2XpKUzKiaBMJMfAGUNtfx324+sObSvF/bPFEIIIYQQonNOu+C7yW5lYnwKZq2ejOJ8VmbvZUvBYRwu2VxHCCGEEEL0rS4tNXiqGBgWxZHaaqqaGvq6K0IIIYQQQrQ6LYNvIYQQQgghTkZ9vL28EEIIIYQQvx4SfAshhBBCCOEjEnwLIYQQQgjhIxJ8CyGEEEII4SMSfAshhBBCCOEjEnwLIYQQQgjhIxJ8CyGEEEII4SMSfAshhBBCCOEjEnwLIYQQQgjhI+oTKWwwBJOUNB2rtZbMzK/avS44uD8RESMBB3a7DZutHoulirq6YurqCnG5nCfSDSGEEEIIIU4JJxR8d7oRtR6lUgko0Wo1aLVGTKYwgoP7Y7c3UlS0jZqaXF90RQghhBBCiD7TpeBbpwsgKCgJjcaERmNEqzV1qlxJyS5KSzNQKNRoNAY0GjMmUygBAQloNEbi4saTm+ugtragWzchhBBCCCHEqaDLwXdISCoulxOn04bL5ep0WZfLhctlw2KxYbHUUFdXSGnpHuLixmM2RxMc3F+CbyGEEEIIcVrrUvBdW5vPnj0ftgbdLTnf3eV02ikt3YvZHI3RGNLteoQQQgghhDgVdCn47o2JkTZbI+AOxIUQQgghhDid9flSgyZTKAD19SV93BMhhBBCCCF6V58G30qlmrCwwbhcTkpL9/RlV4QQQgghhOh1fRp8R0ePRqv1o7Q0A4ului+7IoQQQgghRK/rs+A7LGwIAQHx1NYWUFa2r6+6IYQQQgghhM/4ZJOdX4qMHElISCq1tQXk5a2XHS6FEEIIIcSvgk+Db4VCQXT0aAIDk6iuzqWg4KcurRUuhBBCCCHEqcxnwbdarSMubiJGYyglJRmUlmb4qmkhhBBCCCFOCj4Jvg2GIOLiJqFSacjNXU9tbb4vmhVCCCGEEOKkojCb4zud9xERMQyTKbL1a6VSjU7nj9PpxGKpaj1usdRQULChpQkGDZqDUqnG4bBitze1W39VVTZlZfu7fhdCCCGEEEKcAro08q3RmDEYgr2OK5VKj+MOx7EBtgun045SqUal0qJSadutX6XSd6U7QgghhBBCnFK6NPIthBBCCCGE6L4+315eCCGEEEKIXwsJvoUQQgghhPARCb6FEEIIIYTwEQm+hRBCCCGE8BEJvoUQQgghhPARCb6FEEIIIYTwEQm+hRBCCCGE8BEJvoUQQgghhPARCb6FEEIIIYTwEQm+hRBCCCGE8BEJvoUQQviEQqHAqNf2dTeEEKJPqfu6A0IIIU5vCdHBXDhlKNPGDmL7/nweeXlpX3dJCCH6jMJsjnf1dSdE31IqVRi0BhQKJXWNNX3dHXEaM2i03Dr2XNYd3s+GvOy+7s5pzazVc/v4aXyxdxsZxfl90ofRQ+K57qKxjB4S33rManNw/u8XU13X2Cd9EkKIvvarSzsJ9gvhxpm38c49n7Pkj2t56roX8TcG9HW3+tQLC9/gf498z8VjL+/rrvSooRPnsujfh1nw5Iq+7kqvONXuL9ho5tFzLmZEVByXDx2NTn1qfvB2021P8e8PtjDjgt/0dVeOa3r/IaSFR7No0kwmJgzwadsx4YG8dP9cXn7gCo/AG0CrUTFrUppP+yOEECeTU/Nfv24aPWAc9879EwHGwNZjowaMZe7k+by+/KU+7Fnf0Wl0JEelArBh37o+7k3P0uqNAFgaemc0X6FQYvQLxhQYjlZnwul00FRfRVVpLk6HvVfaPFZv319PCjWZeXDKhYSb/NlTUsjff/wWi733n9Gv2We7N2N3OJg7bDQLz5yCWqFk9aF9vd7u2GEJ/PXOSzDo2s/tnpSewvtfb+n1vgghxMnohIJvgyGYpKTpWK21ZGZ+1evlTsTEwWfz0FV/pr6pnsVLn2V3zg4uHDOHGaMu9gjGT0XhgRE897vX2X7wZ5759PEulU2NHYxapaasuoTsogO91MO+odYaAGisr+6V+keft4Apcx/0Ou5w2MnZs55tq94he8fKXmkbev/+ekqg3shDUy4izOTHz/kHeXnDSuxOZ19361fhy33bqGqq53ejz+KG0ZOxu5z8cLj3fs8TYkL4212Xotd6/tPicrnIyCri+00H+GnHIbLzSnutD0IIcbL7VYx8J0amcP8VT1JdX829/76Fw8UHAVi2+QtmjLqYXYe393EPu0+hUPCHyx4jIiiSrVmbuly+vqmOl5c8Q17p4Z7vXB8ryc3g5+WvUpq3t1fbcTod2CwNOB12VGotWr2JpKFnkTT0LLavfpdv3/EO0HuCr+7vROjUau6eOIMwkx8b87J5acMqnC4JvH1p7eEDOFwubh5zNr8bdRblDXXsLSnslbauueBMr8D7o2+28N+vfuZIWW2vtCmEEKeaLgXfOl0AQUFJaDQmNBojWq2pV8v1BI1aw31zH8fhtHH3azeSX5bbem5k0mhKqopZm3Fq5My2Zc6EqxmRNAqXy8WWrA1dLp9ddOC0G/FucShjHYcyTiCVRqFArdbicNhxOR3tt7NrNZ/+Y0FzESWx/Ucx6rwb6D9yOiOmzKPo0E52rfuw+/1or90TvT8fuGbkBJKCw9hbWsTijRJ495X1OZkE6o1cPXws/zf2XO775mNqLD0/4TE0yM/ja4vVzltfbKSsqq7H2xJCiFNVl4PvkJBUXC4nTqcNl6tzC6V0t1xP+O20W0iKTOHFL//qEXhHBEUyd/J8nvzgAZqsTa3H0/oN4+GrnsLhdPKbpy/0qEuvMfDFY6tpsjZyyZ/O9riPK8+6lssnzeedla/yxU8fEewXypwJVzFpyDkE+YWw4+AWnvrwYeqb2v9HaETyaGaOupgh8cMJMAVxpLKALzd8zJcbPvG69vcX3sMl465o/VqhUPDJg995XLPr0Dbueu1Gj2Nmgz9DE0YyLHEkwxLTSY7qT4OlnsufnIHD2XEO7pmp47lo7OUMiElDp9FxuPggq3d+yxc/fdRmYNUTz6UzVGoNd/3rAAqFwutc7r4NfPC3KzusQ2f0Z8j4S0kYPInwuDSMAWGoVO5fkeVv3cfOtR90WIfL5STvwM/kZ21hzm2vkTTsHEaeM781+A6JSvGaIFlTUcQ/7xkHgDkwgrSxl5A4ZDJag5n/PH7xCd3ftPlPMHjcbD565jckDJlM2tiLUapUrPn4rxQe3MZZl91HwuBJNNVV8tXrd1F0aIdXHUqVmjEzFzJozEUEhMZRXZZH0cFtbFj2TyqLD7X7LEZE9WNK4kBqLI28+NN3HaaaPPTE28TGJXPv7RdjNPkz6+LrGDR4NGa/QEpL8lm36n989/UHuH7xc/b0i0sICYvmz48uIGu/56dYZr9AXnjNnfpz0/yx2Gw2AOYvuJ9xk2bxzBO3MGT4OMZOmIFKpeLj917kYNYuLrvqNgYPG0tdXRWvv/wIh7J3t9nn5P7DmD7rKhJTBqPVGsnO3MHSz//d7vUAKpWamRddy5gJ5xEaFkNZaQEHM3ex7Mu3KS7K9bg2KiaRJ5/1/P2vKCvmnltnARAYFMbYiTMZMnwcBoOJxx+8pt12v9q/gwGhkYyKSWDBqEk8v/7bdq/tru378xg7LKH1a51WzfOL5nDjH9+n0WLt8faEEOJU1KXgu7Y2nz17PmwNOltyt3ur3IlKiEjisonz2JO7kyUbP/U452cI4OWlz7DpwE+tx1RKNXdccj+hAeH8uHeNV31JUf1RKpRkFe73eoEYHD8Mf2MARyoKOXv4edx28b0YdSYcTgcalYYxqRO54Mw5fLj2ba969Vojf5jzMJOHnovNYSOn+BBNtkbiw5P4v4vupaK2nB92f+9RprS6hKUbP6N/TCqpsYPJKjzAvrwMj2sycra1/lmj1vDCwrdIjuqPQqGgydZIfVM9KqWaPbm7Ogy8lUoV10+/mSsmX4vL5eJQcTYKYGBsGmn9hnJGypk89M5dXuVO5Ll0hVKl5eev/4laa0CrN6LRGgmMSCAyfkinysenTeCihS9iMAfjcrloqC2npiwPAI3OhFKp6lJ/XE4H21e/T9KwcwiNHgAKBbhc2KxNbP723+iMfuhNAfQfOR290R+1RsfE2XdxxrnXo1JrAKivPpoX29370+pNaPUmLlz4EqaAMGyWOgzmYGYteBqb1YLDbsVgDsToF8y58/7If564xKN8QGgMFy18maikETTUlFN+JJuQyGRCYwaQMnI6n/5jAYXZW73aVSmU/GaE+4Xi/R0bqW7qeJTVZPJHqzMw56pbGTtyddBzAAAgAElEQVRhJgoUlJcXgctJTGwyV15zNzqdkSWfv95hXa3aec/X643o9UYW3v4UAYEhWJrqMfsFseCWR7FarNjtVsx+/vj5BzLvt4t44qFrveo469w5XD7vdqoqy6irrSIoKIKRo6YwZPh4Xn/5ETZt+M6rTGhYFAtv/wtJKUOoqa7kSOFhIqMTiIlNZuToKfzjr3eSnbmz9Xqr1cK3y97DaDJjMvkzctQUjGY/NFotsy+/mXNnXoW6+eeluqq8w8fx5pZ1DI+MY1RMIgPDothXWtTJB9k5H3+7jQvPGkpM+NF5NKkJEdxz3VQe/9fXPdqWEEKcqroUfP9yxKm3y52oyyb+BoVCwRvfvOwVLGcV7iercL/HsTkTriQxMgWA3Tk7+aX+MQMByCzwXjEgPiIZgCnDpjNm4Hje/PYVvt2yFJVKzTM3/JOU6AFEBkV7ldNqtDxzwyukxqaxcvvXLF76LDUN7gl08865gevOvYnp6ed7Bd8frX0HgHsv/xOpsYP57Mf3+G5r+5NXbXYbH6/7D0cqCymqyKeyroLrpi1k3tkL2Jbdca74A1c8zllDp7E5cyN/+/gRKusqABgcP5wnr/07YwZOYsqwaaze6RlwdPe5dJXNUs+aT/7qcSxt3CVc8Lu/d1hWpdZwyS2voDP688Pnz7F15ds0NZz4JMbyoiwAlEolCoUSl8tBTXk+qz74k/u4Ss09r2Wh0Rm48t4PiEwYRmH2Vgqzt1FWcIDq0qOjoN29P6fDPdJbVrCPtx6bid3ayNy7/0tc6hiWvfEH9m9eRlTSCOY/9D/C4gZ5lFWq1My5/U38Q2L438s3c2CLO3hSa7RMm/8EQyfOZdb1T/P6g1O92k2PiSfKL5Cy+jrW52Z26nlZrRYA4hMG8fJzi8jY8SMOhx2tVsf1Nz/GmeOmM+uSa1n25Vs4OrmajOvY6PuYTw0czc+lIC+Lx+69Cqu1ibsfWExqWjpvLP4jmzeuICllCA898TZx/dpepq+utorFzy8iL8d9fwajmRtvfZzh6ZOZv+Bedm1fT1NTQ+v1KpWa2+/9ByGhUbz8/CK2bHSPyGs0GuYvuJ+JUy7m+psf5cG75rSWKS8t5IN3nm0t/9q7G9Hp9Nz78KskJKeRnbmT7AMZFORnU1rS8VreVU0NrDm8n3OT0zg/dViPB9+19U3831Mf8/KDc4kKPbqE6/Rxg3j6ze9ossoKN0IIcdqu8x3sF8o5I2Zw8EgWOw95j8y1xd8UiLM5t3dPW8F3tDv4ziryDL71Wj0RgVEAxIXF87t/XMWXGz5uHl2uZXeu+6P80upirzp/c/YNpMam8cGat/jLR4+0Bt4AK7a5d4ELMoe02+e0fkOa+7urw/tbtWM5e3J3tgbO6SljANiW9fNxy43qP4azhk5jW/YmHnnnjtbyALtzdvDZ+vcAOHvYeR7lTuS5+FJ00kh0Rn8aaiv4cemLPRJ4A4Q3B7MVR7LbzBl3Ouy4XC4UCiV7fvycl+8YzXtPXc7qj/5MxvpPyDtw/O9LZzial/Pbv3kZloYaHHYbxTnulIj85vqPHNqJy+VCrdGhOGaEf9S03xIaM4AfPn+2NfAGsNusfPvOg9RUFBEclUxMyiivdsf3c7/ELs/ciaOTK5u0BNSffbiYHVvXtn5ttVp4762nAdDpjASHRnb6/ttLcbPb3d+PzRtW0NBQi91uI+ew+/f6wD733xeHsvfgcrnQaLVtfvKxZePK1sAboLGhjsXPL6KqshSzXxBTps3xuH7azCuJiU3m8w9faQ28AWw2G++8/hQVZcVERSeQkjqizT47jvl5+fGHZdxx03SeevQGPnr376xfs4QDe7e1We6Xlu5zp+aMiOrX42utKxQK7A47KzZ4/h2pVCpw+jDdUAghTmanbfA9e/wVaFQaPlv/fqfL/PubxTRaG7E77Bwo3ON1PqUl+P7FiHlcWAJKhZLS6mLueW0h5TWey2hFBEYAUFiR53E8ISKZyyfNJ6fkIG9+90+v9kqrS7n/rf/jn8vaHt0MMAYSHRJHdUMVBeW5bV7THqPORGrMIKrrqzhU3P5Og0qliptm3QnAG9+8jK2NEccdzS83cWGem2l097n4WmVJDk6H3Z16cfVjaHSGE65TrdEx4mz3JixbV/2n3eta1gPft/krGo95qekpLSPfCsXR4NH5ixQjl8vZ5stB+tTf4nK52LHWe7Kow27j0C73pzFxqWd6nY8NCAbgQFnnX6xanoW6jYCwprqCmupKAEJCIjpd57GfuikVR/+6axn5PvZlw+nwfAbuOSrtT7Rti81mY83KzwDoFz/Q49zUGVfhcrlYu+p/XuXsdhu7dqwHIHXgyHbrb3kh2bzhO+pqq7rUtxal9bVUNzWiVCiJNPfcBmN/vu0i1r55J1++cDPzLxjjce7L1buw2rr2LIUQ4nR12i016Gfw59OHVrROTLtnzsPcM+fhNq/dn7+HWxcfzeXsF56ISW9mX14GVpvn5CCNWkN8eCIWm4Xc0hyPcwnhSQDsy9tNk807tzUxwv2x9S9TWeZP/R1qlZq3V/yrzX/knU4Hmw+0v4LJwLiWUW/vSXIdGZ40CqVSxbbsTcedADsobggJEcnsz9/N/vy2J5G1jNYb9WaP4919Lr5WV1XM0lfv4LzrniJ96rUMGnMhW757q2vpJwoFSqUKvdGfhMGTSJ96LdHJ6ez56X9sX/1uu8WcThsqNCiVvfOr2BJQKrqYs64z+OEfEk1dVTGh0SmotXrUGi0qjR61Wodaq8MUEAaASu25mYpKoSTC5A/AkdrOf4pgbw6I28uvb6ivwT8gqEv5907HsaPuxwbfjua2en78oajAPQk1Iqpf6zGD0UxIaCRVlaVExyai1erQaLRotDrUGh1ajZaAQPcnXGqNpt26nQ47qE/856WwtooAvYEY/yByOpEr3hnxUSHotN79yjtSwT/e/b6NEkII8et02gXfTpeTlduXc+7Ima3HNu5bR1ltKWqlGoVChUqpRKVUs/sXQevgfsOBtoPBxIgU1Co1mYX7vALlxMj+ABwo8F5vOSoohoigSIoq8j3SK1RKNWcOcE9I23W4cx8X/1Ja/NDm/naccvJL6SmjATrM907rNwyAw8cZHY8MigGgoqbM43h3nktf2bdpKTl71zP2/N8z8pxrmDj7LkafdwM/fvkPtq56B4fd1m7Z5OFTWfSG56ofJbl7WPbG3WSs/7SdUm5Oux20oFR1LTjurJaR367WHxrjfjEyB0Yw/+EvvM47HHacDitNDdU47J4vqlq1GpVSiQsX1k6soNPa1+Y4Wan0XtEFfpG/3WlHg2/FMfW6mlNhVL3w3Gtq3CP0xwb2MbHuuQ+BQWE8/OQ7XmUcdjsOh42G+hrstvZ/1uwOO1pOvN/W5nSknnz5MBrafmmIiwzm6lmj+PfnP7V5Xgghfm1Ou+C7vqmOg0cOADNZu2sFQxPTSYkeyJtvv0J20fEnfqXFuwPN3bnewXdLyklbky1Tot3bs2cVegeZI5LdQe6WTM/83RD/EPRaI9UNVVTVVXZ8Y20YFOcOvve00d+OjGzuV0f53iF+oQAUVbY/MSs+PKHNfnTnufSlxrpKvv/wCTZ98yqjpl3PiLN/w9lXPszIc+bz4TPzqS5rOz3GYbdRXpRFeWEWFUeyydmznvzMzm141PIip+ilkW+Xq2WEt4urtTR/GtJUX8UbD03DYbPisNtwOKyt6SHtabRZqbE04a/TE2kOIK+6c+k0R18Uuvcs2grZHcekkhz7DFrb6uJz6YyQ5pz08rKjvzMtz7O+rpqH7rkcm82G3W5rfqadf0Fp+Xk50X5H+bvTTYpqupe60pbDBRUY9FqC/Y1e5667aCzvfrUJi0y4FEKI0zPnOzU2DYDlW77k1sXXUlVfxfM3vd56vD0DmlczOXTEM0jXqDWcO8I9kv7LfG+A5Cj3KOGBNgLz9BR3PuzmTM9RH61aD4BOo0PVzcBrQMygdvt0PMF+ocSHJ1FcVURRZcFxr21JFzH/IqWkhUqp5vwzL8XlcvHdNs/VVrrzXE4GdVUlrP74L/xr0STyDvxMYHgCsxY80+71h3ev5a1HZ7LkX//H+i/+3unAG46OwPZGEAhHg8y21gc/nsriw7hcLvSmQEz+oTQ1VGOzNnQYeLcoqnW/UMYGBHW6TWc3+9oykc9g9P4ZPTawVau9g++uttUZ/RLcL50ZO47+bBcfycXlcmEyB+AfEExDfQ1WS2OXAm8Ap8N9ryfy86JTawhtflaF3cwbb8udT3/CjIUvMfuOV9mw87DHOb1Og79J32NtCSHEqey0DL5bgr6DR7IoqTrCojduprK2nEfn/Y0gc3C75SKC3CtzHLuah16r55Gr/8LQxJHNdXruBhkeGIG/MYDiyiMeK5W0GJHkXgmiZWWPFmU1pThdTvQaQ+sIcVcE+4Vg0ptpsjXSaG3ouMAxhjXfS3Zhxztb5pflNJdJb/P8xeMuJzIomhXblrE//+gk1e4+l5NJY10lPy97BYDIhM6tF95VPTWS2a7mTA1FF9MLGusqyNnrngA49erH0Bn8OijhKaPYvX351OTBnS/UHEQrFF3ra2V5CQDRsYltVOlqDXBVKs0xx93/7+mc76DgcCafcylHCnNYv3ZJ6/G62ir2Zrg/5bn62kVtvih0RuvPywmknUxNHoRSoWR/WRGNtp7f+Ka0shZ/s2egnVtUSWml7HIphBBwmgbfgSb3aFtLOkdNQzUPvHUHfoYAFp7vvREMuEdwtc0Tx87oPxaFQsHQhJH8/aZ/U99U31pXaXUxGrUGU/NIcHJUczpKG6kVAaZAAs1B1DXVUlVXidngj6Z5Q4wmawNbm1MuHrjicZKa1xc/tj+D+g3l7OHnedULRwMUjUrjsU62SW9mQtoU5p29oN3n0y8sAQCzwa91BQiFQkFMSD+mp1+A2eDfeu2WzI00WOoZEDOIyyfNbz2uVqm5fNJvWDjrTqrrq3j9m5c82ujuczmZRMQPYdxFtwH02jbuLmf3JkR2uv6WgLbNpIzjW/nuYzTWVRCXOoYb/ryKSZfeQ9yAMzsViK8+tA+bw8GgsCgGdHJpwO72tbDgIADnzriKsIjY1uOR0fEsvP2p1l1KPYLv1reS7o98BwZHeATRSSlDWPTwv9BoNLy++FFsVs/A9t23nqautpLUtHT+/NxnXHrFLQwYNLJLgfiJvqxpVCpmDXCn132T2f4unCfigRtmkJZ09HvucDp56o3lvdKWEEKcirqU7xARMQyT6ehfqi0z7tVqk8eOlRZLDQUFG064XHcolSpMej8arQ0euzYWlOeyZOPHzJlwNW99+4pXuoXDaSe7KJMBMYN4+KqnsNptaNUalmz8lJeWPM3HD3wDwPM3vkaQXwgvL3mGb7YsISXaPcreVupHoMk9ym7W+/Ha7R8QE9qPB966ne3Nkxxf+eo5Xox/k+iQOBbf+h8OFx+iwVKHn8GfmNB+qJQqVu/4lu93fONVd2VtOUcqC4kMiua1Oz4gp/ggZoMf0cFxNNka+XLDx+0+o+rmkehhiem8dc9nWKxNRAZFodcaKakqZn/+Huoaa9zt1FXw2vIXuO2i+7hx5m1cNPYyiiuLSI1LQ68xsDcvg8ffu4+KWs/JlifyXLrDFBDGpNl3e7bTnIseHJnEjOv+4nEue8cqMre5t9fuP3I6E2ffhc3SgMvlRKM14hcciaH5U5K8/RtZ/tZ93e7bsUKiUhh93g2tX+ubVwWZNPsuGo/J/c/c+g3ZO4+uENH9++t+kFlelMV/n5zDufP+SOKQyYy74FbGXXArANamehpry7E2NfDO4xd6TUitaKjjm8wMLhg4nKuHj+FPq5a0ppW0p3U6ZRf7+vWSd5g45SKCQyL487OfUlpSgJ9/ICZzANs2r6ayooSg4HA02mNWZWkN9Ltv+qyrmT7raspKizCazBiNflRWlPDC03dxMMt7EnRRwSGefPh65v12EUOGj+OC2Qu4YLb7JbmpqYHamkqaGht4/MH52JufZ1RMIuedP6+1DpPZ/eIze+5Cj6UGt276np3b1nfY51kDhhFkMJFdUcLPee1Pou6uCSOTmDXJ89OOl95fw5Y9fbucqBBCnEy6FHxrNGYMBu+0DaVS6XHc4WjqkXLd4nLhdDlQqzQoFAqPZfSWbfofl0+az5DEEW3mOj/32ePcM+cxYkNjySo6wIdr/sOGfWsB+PSH97h04lXkleXw0pKnW7elT4lqmVToHWTmlR5mx8EtJEQmU1JVzItf/s1jw5/c0kMsfGEe1067iTNSxhIfnkiTrZHMgn2s3rWCFduWUlx5pM3bdLqcPPH+/dxxyQMkRaYQHRLLntwMPv3hPVZuX06Dpb7dR/TtlqWkp5xJevIYgkxB5Dfms2zTF/y0bx07D27xCpKWbvyMvNIcrjrrtyRGppAaO4j80ly+3/ktn69/r821v0/kuXSHzuDHsMlXtnnOHBjuda6s4GjKjdE/lLBY90i9y+XC2lhLZWku+zcv58DmZRzeu/5onsIJMgdFtNnP/umen3AUZHk+j+7eX+tocjdHeCuLD/Hxc9cQEpVC8vBziEwYRmB4PH5BkRj8QtDoze2uBPPZ7i2Mjk2gf0gklw0ZxUe7Ophc282+lhbn85fHbmDuvDuIi++Pf0AQOYf2s+q7j9mycSUPPv4mQcHhaLW6Y5rq/nP5ad1SlApISErDLyAYvV7PoazdZGfuZPnS/9LU2P7vXvGRXJ576laiYhIZnj6RhKQ0wiPiCAoOx88/CL3e1Bp4AwQFhTH5nNle9aSPPtvj66wDHa94NCA0kjmDR2F1OHht05purR3TkUnp/b2Ord/W80G+EEKcyhRmc/xpt+3Yu4uWEB4YyWVPTqO6/ujokFKh5Ks/ree15S90afMdcfpTqtSoVOrmJfRkRYaekhQcxsNnX4RWpea1TWtYfch78q3ofdF+gTw69WLMWj1vbFnLqmzvdLCe8PitF3Le+EEex0or63jlwzV8t2G/rHYihBCcpjnfRyrdk71atk9vEWAKRK1Sk13U8URD8evidNixWZsk8O5hBytKWbxxFS6XiwWjJjE5YUBfd+lXJ8Y/iAemXIBZq+er/Tt7LfAGWL/de5Q7LMjMIwvP56uXbua+66dz5pAE1KrT8p8eIYToFJVWG/hYX3eipykUSsannUVCRBJrM1bSZG1EqVTx+wvuwaQ38ea3i3F0cdtoIUT3FNZUUdZQx6iYBM6ITaDRZiWreYUS0buSg8O5/6zzCdAbWZm9l/90Ii/8RGTnlRER4kdqQoTXOZ1Ww6CkSGZNGsygpEiWr9/TRg1CCHH6Oy2D79zSg0wacg79whKZMeoihiWewTVTb2BQvyE89t9FrSPjQgjfyKkqp6ShlvSoeEZE9SNQb2LHkbxu7lopOmNCfH/umHAeRo2WbzIzeHvrDz552mu3ZJGdX8agpAj8TYY2r1n84ToOFZS1eU4IIU53p2Xw7XQ6WbXjG8ICwokIisbfGMCevF388b+LjrtNuhCi9+RWlZNVXsIZsYnsLS0go/j4GzyJExMbEMSomEQ+zPiZTzK6v5JQdxwqKOfjb7eTlVtCgNlAdFhA6+TWsso6nnrjG4/J8EII8WtyWk64FEKcvPx0emotPbCykehQoMFIVWPXNuHqDZGhfkwbm8bUsan8sDWb1z/r3fQXIYQ4mUnwLYQQQgghhI/IlHMhhBBCCCF8RIJvIYQQQgghfESCbyGEEEIIIXxEgm8hhBBCCCF8RIJvIYQQQgghfESCbyGEEEIIIXxEgu9epFSqMOnNmA3+PmtTo1dz9k1nEj8y2mdtCnEsnUnLubeOJSo1tK+7gsFfx6Apicy4awKm4LZ3WxRCCCF86bTc4fJk8eLNb3LrhX+gydrIrsPbulQ22C+E+VN/x+2X3Mf15/2eYQnpbDrwIxabpd0yxkAD024dS3hSEMEx/mRvyMPpOPWWcb/ptqf4/Z1/w9LUQNaBnX3dHdFFg6cmkzwmloT0GOorGqksrPF5H0L6BTB6zmDGXDGUmLRwjIF66isaKcup8nlfhBBCiGOp+7oDpyudRkdyVCoAG/at61LZ0QPGce/cPxFgDGw9NmrAWOZOns/ry19qs4wpSM+0/xuLOcTIkcxy1v57C3aro/s3IPpMgNlAdV1jX3ej23YuP4DD7mDkBQMZP284CpWC7A15PmnbGGhg9Jw04oZFAlCeW0XO9iPk7TxCbWm9T/oghBBCHM8JBd8GQzBJSdOxWmvJzPyqw+t1On9CQwdhMkWiUmmx2xuoqcmnpGQXLpfzRLpy0kmNHYxapaasuoTsogOdLjdx8Nk8dNWfqW+qZ/HSZ9mds4MLx8xhxqiLPYLxYxn8dUy/bRymYCO5O4r44Z1tOO2n3oi3gLTkKJ69+1Je/2w9n67Y3iN13nBmIo9NT8PicFLdaCOvqoF9pbWsyS5lRWYx1l74dGT3imwaayyMu2oY464chsvh4uCm/B5v51jBsf6cc/MY9GYth7cWsff7g5Tnyki3EEKIk4vPRr79/KKIjZ2IUqnC4bBgs9Wi1QYQGjoIgyGE3Nx1OJ02X3Wn19U31fHykmfIKz3c6TKJkSncf8WTVNdXc++/b+Fw8UEAlm3+ghmjLmbXYe9gTK1VMeV3ozAFG8nZXsQPb2/D5ZTA+1R07tiBPLJwFnqtmoGJkT1Wb5hZi06tRKdW4q9TExdoYHxCCNePTqC4tokHlu/my92FPdZei4M/5+NyupjwmxGMvXIo9ZWNFGeV93g7LcbNG4HerOXHd3dw8OfeDfSFEEKI7upS8K3TBRAUlIRGY0KjMaLVmjrXiFpPXNwEXC4FubnrqK0tAECjMdGv3yRMpnCio0eRn/9T1+/gJJVddKBLI94atYb75j6Ow2nj7tduJL8st/XcyKTRlFQVszZjhVe50XMGE9IvkOKsCtb/RwLvU9WC2eO58bIJuIAX31vDf5Zu7LG6n1q1n2fWHMCgURNh1pEYbGJsfDBzhsYQ7W/gjcvP4BqHk6/3HemxNlsc2lyAwV9P+sUDmXTdSJb+dS1NtdYeb0dn0hIU7Yfd6uDwloIer18IIYToKV0OvkNCUnG5nDidNlyuzgV6wcH9USjUFBVtag28AWy2evLy1pOcPBN//35oNNux2U7NXFezwZ+hCSMZljiSYYnpJEf1p8FSz+VPzsDhtHdY/rfTbiEpMoUXv/yrR+AdERTJ3MnzefKDB2iyNnmUiUkLJ3lsHE21Vta9tbXDVJOHnnib2Lhk7r39Yowmf2ZdfB2DBo/G7BdIaUk+61b9j+++/sArBejpF5cQEhbNnx9dQNZ+z9F3s18gL7y2EoCb5o/FZnN/ejF/wf2MmzSLZ564hSHDxzF2wgxUKhUfv/ciB7N2cdlVtzF42Fjq6qp4/eVHOJS9u80+J/cfxvRZV5GYMhit1kh25g6Wfv7vdq8HUKnUzLzoWsZMOI/QsBjKSgs4mLmLZV++TXFRrse1UTGJPPnsJx7HKsqKuefWWQAEBoUxduJMhgwfh8Fg4vEHrznuM+4qnVbNQzfO5Lzxg2hosvLQi0v4YVt2j7YBYHO4sDls1DTZyCyr49sDxTyz+gCvzz2Daf0juG5UQq8E3wB7VmUTlhRE3NAIxswdypo3tvR4G5Z6KzWl9fiHmeg/vh/71+X0eBtCCCFET+hS8F1bm8+ePR+2Bt0tOd/Ho1SqCA5OweWyU12d63Xeaq2lvr4IP78YAgISKSvb05Uu9TmNWsMLC98iOao/CoWCJlsj9U31qJRq9uTu6lTgnRCRxGUT57EndydLNn7qcc7PEMDLS59h0wHPTwWUSiVnzE4DYNuSvTTVtr8KSguTyR+tzsCcq25l7ISZKFBQXl4ELicxsclcec3d6HRGlnz+eucfQDvxvl5vRK83svD2pwgIDMHSVI/ZL4gFtzyK1WLFbrdi9vPHzz+Qeb9dxBMPXetVx1nnzuHyebdTVVlGXW0VQUERjBw1hSHDx/P6y4+wacN3XmVCw6JYePtfSEoZQk11JUcKDxMZnUBMbDIjR0/hH3+9k+zMoyuoWK0Wvl32HkaTGZPJn5GjpmA0+6HRapl9+c2cO/Mq1GoNANVVPZsyERxg5Jm7L2VISjSFpdXc9fSnHMwv69E2jqfB5uDFH7KY1j+C0XFBvdrWzx/tInpQGHHDIglPDqYku6LH29jw/k7OvWUMZ1yaRk1JA0X7S3u8DSGEEOJEdSn47s6kSJ0uAJVKR21tYZs53QqFEru9sfla362H3VNsdhsfr/sPRyoLKarIp7KuguumLWTe2QvYlr2pU3VcNvE3KBQK3vjmZa9PE7IK95NVuN+rTMyQcPzDTdRXNnFoc+c+Zrda3QF6fMIgXn5uERk7fsThsKPV6rj+5sc4c9x0Zl1yLcu+fAuHo+OXBgDXsdG3QtH6R4fD/b0uyMvisXuvwmpt4u4HFpOals4bi//I5o0rSEoZwkNPvE1cvwFt1l1XW8Xi5xeRl5MJgMFo5sZbH2d4+mTmL7iXXdvX09TU0Hq9SqXm9nv/QUhoFC8/v4gtG90j8hqNhvkL7mfilIu5/uZHefCuOa1lyksL+eCdZ1vLv/buRnQ6Pfc+/CoJyWlkZ+4k+0AGBfnZlJb0XB5xSlwYz94zh6gwf7buzeO+v39BVW1DxwV7WGGN+9OUBmvnvt/d1VhjIXtDHgMmxpN2TlKvBN8l2RWs/+8OJl47gsnXp/P5Y6uwNp4+80iEEEKcHnp9kx2NxgzQGmC3UCiUBAUl07//+QQFpTRfa+zt7vSKVTuWsyd3J5V17oAiPWUMANuyfu6wbLBfKOeMmMHBI1nsPLS1020mnuHeRGff6oOdXsu7JaD+7MPF7Ni6tvVrq9XCe289DYBOZyQ4tPOT/dpLPbLb3cscbt6wgoaGWux2GzmH9wFwYJ/7Pg9l78HlciIyHxAAACAASURBVKHRalEqVV51bNm4sjXwBmhsqGPx84uoqizF7BfElGlzPK6fNvNKYmKT+fzDV1oDbwCbzcY7rz9FRVkxUdEJpKSOaLPPDocdl8uFQqHkxx+WccdN03nq0Rv46N2/s37NEg7s7dpa7e2ZMCKZ1/84j6gwfz5ftZ1b//xhnwTeAOPigwH44XDvTYRssXulewJxTFo4aq3397sn5GwrJG/nETR6NRH9Q3qlDSGEEOJE+CD4dk/KtNvdo67uNJT+9O9/AdHRo7FYaiks3NR87am/A51RZyI1ZhDV9VUcKu44d3f2+CvQqDR8tv79LrUTGOUHQMmhyk6XcTYH22q19wceNdUV1FS76woJieh0ncd+GqJUHP1xahn5VhwTVDsdnuuOu+cOdG0tcpvNxpqVnwHQL36gx7mpM67C5XKxdtX/vMrZ7TZ27VgPQOrAke3W3/JCsnnDd9TV9s4yddddPAajXsviD9by1OvfYnf0zTKbZq2KuyYPwOpw8vzazI4LnKD6igaaai0olAr8wzs3WburAqP9CYz2p6GqqVdG14UQQogT1etLDapU7iYUCiUhIQMIDR2EWm2grq6QvLz1NDaWYzC4R99aArZT2fCkUSiVKrZlbzruhFQ/gz+fPrQCRXOqxj1zHuaeOQ+3ee3+/D3cuvhoTrRSqcQc6g5eaks6v3GIvfn5tjXKDNBQX4N/QFC759vi9Agcjw2+Ha197WlFBYcAiIjq13rMYDQTEhpJVWUp0bGJaLU6NBotGq0OtUaHVqMlINA9EqrWaNqt2+mwg1qDUtl7vxqNFneAP35EIl+s3kFlTd9MMn7mwuEkBpv488p97C+t9Umb1cX16P10+EeYqcjvmZ0vUyfFE5UaRmC0H3o/LTnbjrB96T4s9T2/qooQQghxono9+LbZ3B+nh4YOBFzU1hZSWrqbxsajo1Jqta752lN/B7r0lNEAHeZ7O11OVm5fzrkjZ7Ye27hvHWW1paiVahQKFSqlEpVSze6cHR5lVVolSpUCXOCwdX7kuGWQWqlUtH2+vdmTx3U0+FYcU6/L6T6uUvV8ekFNjXuE/tjAPiY2GXCvTvLwk+94lXHY7TgcNhrqa7Db2n/JszvsaOmdfrd4dPES/nbXbEYMjOOtJ67hrqc/IzvPt5MD/zAllTlDY/jmwBFeXN/zq6u0p+XntSdfyvqNiCYixf0CX1/ZRENlI9Ym2d1VCCHEyckHwXdj8/8byM1dS1OT90f5KpU73cRqPfWD75HJzcF3B/ne9U11HDxyAJjJ2l0rGJqYTkr0QN58+xWyi46fAmBrstNUZ0Vv1uIXZqKqqHOjli0pIkpV977tbYXsjmNSSY4dMW9tqwuj6J0V0pyTXl5WdEx77heH+rpqHrrncmw2G3a7DYfd1unJo0BrGkxv9LtFZU0jv3/yQx64YQazJg3mjT/O67UlBtvy+HmDWTguia/3F3PDR5ux+3Bt+JZ0k5qSuh6r8/t//Yw51ERYQiADJiUwdEZ/4oZF8PVz/8/efQdGXd4PHH9/bye3svcgCSthI0O2DBdOcGNx4U9x1NZRtRZHtWrrbJ2t2pa6V7UKKqIgoCDKEggbMiF779z6/v44EjgTSAK5S8DP6x/Id9zz3F3yvc8938/zeVbjdp5cK+cKIYQ48fk959vh8AaGWq0Rh6P9D1yrNRaA+voSf3fHr8KsESRHpVJcVUhhZccVSAYkeEsFLtnwKbe+dDVV9VU8e+NrrduPpvZg8NKS+90ZnoMBsaK0P/J95PMOlpYMtrTZd3hgq9O1Db672lZnJPUZAEDm5kPlF4uL8lBVFbPFjs0eRkN9DY7mxi4F3kDr5FV/Bt8ADqebh17+jJfeW0WQUc9Td83mV+eO8Wubeq3C3y4Yxvxxqfwvs4B576/zy9LyR6Iz6DCHer9oVxd3X/DtcripKqhhz5o8ljz9HTWl9YTE2YhMCeu2NoQQQojuEpDgu76+BI1GS2hoapv9Op0JiyWO5uYa6uq6f4nrQBqa4p3It6+gcytbpsV6S+xlFe2lpKqIu/95E5W15Tx45ROEWo4eOBTu8lan6DchufMdPBhEK0rX3vbKcu+XoriElHYeUm0NcLVa/WHbvf92d853aFgUk6fNpqggl9WrFrVur6utYkem927DnKvvbveLQme0jnz7Me3kcAs/Wcu9f/0Eh8PFbXNO44H5M9Hruv/PMsJs4OOrx3PF8CT+8s0ubvhwA84ABt4A/SYkomgUSvZV4GzyT2lDj1tFq9XgcatUHuienHIhhBCiO/k9+AYoL/fWqY6KGtI6yg3e6ibJyaeh0WgpK9sRiK74VVJkHwAsQdbWyh+KohAfnsQZI8/FEuRbxzzE7F3YpKrOm8Nc01DNfQt/izXIzvxz7jhqW3vX5uN2eYjuG0ZkSucWSGlJzVDaTSA5soID3hJxM866gsjohNbtMXHJzP/N462Tan2C75b88eMY+Q4Ji/YJolP7Dubu+/+BXq/ntZcexOnwnVD31sInqautZEDGSB575iNmX3Yz/dNHdCkQD0Tayc99s243Nzz8NiUVtZw7eTAvLbicUFv3ld0cGmvn6xumMDjGxjXvreOplbuPKbv/eGh1GtKner9871qV47d2RlyQjjksiE2LdsiESyGEEL1Sl5J/o6OHYjYfqgHdUhFCpzP7rHTZ3FzDgQNrW3+urT1ASckWoqKGkpQ0BaezDo/HhdFoBxQqKvZQVZV9nE+l51U3VAMwNGUkC+/6iGZHEzGhsZgMwZRUFbNr/3bqGr2jcRqNFrPJSqOjwWcVzAPleSz64QMumjCHhUtfPmL6SkNVI7tW5ZAxLZWRF6Sz9LnvUTvI3W3d28WA+ItFrzPxtPMJC4/msaf/S2nJAay2EMwWO5vWr6CyooTQsCj0BsNhjbUE+sfujJlzOGPmHMpKCwk2WwgOtlJZUcJzT95B1t6tbY4vPJDNo/dfx5XX3s3gYeM4d9Y8zp01D4CmpgZqayppamzgkT/MxeXyTrqMjU/hzHOubH0Ms8WbxjPr0vk+pQY3rvuGLZtWH8ezObqd2cVce/8bPHnnbIb1T+CF+y7jV79feNSKOZ2hURQWXTuBYIOWqiYnC2aks2BGervHvrExl5fXZB1Xe0eSPjWVYLuJstwqcjcXdnzCMUgaHkvG1BRyfypkxzcn/vVECCHEyalLwbdeb2ktC3g4jUbjs93tbmpzTGnpdpqb64iIGIDRaEOrNdLQUEZ5+W5qavKPoeu9z9INixnZdwwj08YSag5lf+N+Pl/3Cd/v/JYtWRtac64BUFU8qhudVo+iKD5B1ufr/sclk+YyOGX4UXPHN3+xh8Sh0USmhDJsZn9+Wtx2JUwfrWknXQuJS4v38+eHrufSK39LYnI/bPZQcrN3sfyrD9jwwzL+8Mi/CQ2LwmAwHtbUsbUF8P23i9Eo0Cc1A6s9DJPJRPbebezbs4Uli9+kqfHIE3OLi/J45vFbiY1PYdjIifRJzSAqOpHQsCistlBMJnNr4A0QGhrJ5Gmz2jzOyNFTfX7eu7ttsN/dSivrmP/w2zwwfyaff7vtuANv8Obr1zlcBBu0hJj0hJiOXGYxIth4xH3HIzIllKEz++F2elj7zhb8New+bKY3jWvrEv/XLBdCCCGOlWKxJAf6DrQ46K27FxEVEsPFj55Odf2hUVaNouGzh1fz6pLnOlx8JzwphNN/fSo6g5bv39nCvrUnxxcZcXKwRVs48zfjMJoN/PDeVvasyfNLOxqtwuVPno1Gq/DVC2sp3uP/FTuFEEKIYxGQnG/RvqJK7wTTluXoW9jNIei0OvYVdjxxszyvitVv/ISqqpx62RDSxsT7pa9CdJU9xsKMW8ZiNBvYvjzLb4E3eCdaFu0uA2DSNSOJS4/0W1tCCCHE8dAaDCEP9XQnfqkURcP4jCn0iU5lVeYymhyNaDRabjn3LswmM/9e+hLuTiy/XlNcR0NlIwlDokkcEouzyUVZjn+WRheiM8KTQ5hxy1iCrEb2rMlj/Ufb/N5m0e4yolJDsUVZSBkVT+zASFxNLurKGzqcDyGEEEIEiqSd9CC9Ts/ff/0WSZEp1DZWsyNvGwkRiYTZIrjnn7eyPW9Llx4vdXQCp84ZgkajYc+aPH78IFOCDhFwKaPiOfXyoWj1GnatymHdR9v8luf9c4qikDI6nkHT07DHeKvcuJrd7M8sZseKbMrz5EupEEKIniUj3z3I4/GwfPOXRNqjiA6NwxZsZ3v+Vv745t3kFHd9tcPKghrKcqpJHBJN8Z7y1tvwQgRSSIyVxKEx/LRoJ5s/71zN++5UeaCG3d/lUry3AgB7tIXwJDtZ6w7QUNkY8P4IIYQQh5OR75OQ0WyQGseiRwXZjDTWNPd0NwBvjfHovmEU7JQvo0IIIXqeBN9CCCGEEEIEiFQ7EUIIIYQQIkAk+BZCCCGEECJAJPgWQgghhBAiQCT4FkIIIYQQIkAk+BZCCCGEECJAJPgWQgghhBAiQCT4FkIIIYQQIkB0Pd0BIU42Rp2Gc9JjmZwawdDYEOJtRm74cBMrs0qP63Gfv3AElw9PaLP9qnd+5Itdxcf12EIIIYQIDAm+hehG52bE8uQ5Q4kwG3y2hwXrj/uxw4L1lNQ1U9HgoLLRydBYG2aD/AkLIYQQJ5KAfnKbzVGEhw/AZApBqzXQ1FRFbW0B5eU7UVVZaPNEYbVGMWvWKxw4sI5lyx7t6e70GhcMiuPVi0+h0eXi3+tyWZNbRk5lA+X1zZTUHf9S61e+/aPPz6tunkJ6lO24H1cIIYQQgROw4DsubhShoX1RVZXm5mo8HhdBQREEB0disyWRm7sCt/v4AxThbwrTpz+IzRbD2rXrerozvYZeq/DY2YNRUbnqnfXHnWIihBBCiJNTQILv0NA0QkP70thYxv79a3A4GgDQ680kJo4nKCic6OihFBRIMNcVYWEpDBt2Gfn569m79+uAtDlixOUkJJyCqqrk5//Y8QnHoSee37FKC7cQZTGys6T2hAm8Fbz56U6Pitsjd56EEEKIQAhI8B0VNQRV9ZCfvwans6F1u9NZz/79q0lLO5fQ0FRKS7fjdNYHoksnvNDQPlx66b/Q6YKIjh7cGpza7Yn0738GAwacRU7Oar777q9HeASFvn2nkZ4+k/Dw/hiNVmpqDrBt2yds2fIB4BuMTZ58B0OHXnrobEVh3rwlPscUFPzERx/N99kWEzOEs856DI/HzeuvX+izT6cL4sYbl+F0NvLKKzN82jzW5zdy5FWMHHklP/74Glu2fIDZHMGwYZeRljYVszmcAwc28uWXD+Jw1HX0EndJ3wgLAEW1TR0ee15GHM9fOIyaJhdlDQ5yKurYXlzL8r0lbDxQ1a39OpzNpOeyYQmclhbJ4BgbkWYTeq0CwO2fbubNjXntnqfXKtw6vi+zh8STFBJMXlUDGw5U8vx3e9lXLn+vQgghRFf4Pfg2GILR6Uw0Nlb6BN4tHI4G6usLsVrjMZlCJPjupKFDL0anCwIgKCiE8857lsjIAQQHh7Ue09hY2e65FksUZ5zxMHFxw3G7XZSX70ZRIDw8jcmT70CnM7Fx4+s+59TWlpKZ+TGRkQOIjs6gtHQPxcWZPscUFv7k87NGo2Pq1HuwWCLJzl7Vph8REX1RFA2lpbv5ebB/rM8vLm4IJpOd6uoC+vc/gylTfofBYMbj8aDV6khOnsDgwbPbPL9jsefeswgx+U6kPC0tktKHzvPZ9uLqfTz01fbWn80GLZWNTkKC9MTaTAyJsXFeBtwzdQCbDlRxx6LNZBbVHHf/Djc5NYJXLx5JWLARVYWy+mbyqhpQFBWzXodOo7R7XmJIEK9dMoqR8SGU1TvYW1ZH3wgLA6OszBwYw5y3fmT9/vZ/z8D75evii18FoKamgNdfn92tz0sIIYQ40fg9+NZqTQf/5zniMQ5HDRCP0WintvaAv7t0UsjKWklKymQslijM5gj0ehOVlTns3r2UQYMuRKvVsWPH4jbnWSyRzJ79dyyWKFavfoGtW9/H5XIAkJ5+LtOnLyA9fWab4HTTpjcAOP30h4iOzmDz5nfYufPzo/Zx+PDLCA/vC0BBwdY2+6OiBgJQWrqr255fWFgqAP37n06fPuNZu/Yf7NjxGRqNllmzXiYysh82W+xR+90ZGkVhyc6i1p/7RlgYlRBKQU0jq7LKfI79qdB3NPvdn/J596d8AMwGHWnhZsYlh3HdmD6MiA/h42vGM+3vq8ivavtl9VgYtAr/unQUdpOeP3+zi9d+yKa6ydnheTqNhrfnjCUhJIhr31/P4u2FgDdV5YlzhjBnRBLPXTic8S98c8THUJTDlxKQ1BYhhBDC78G3w1GHqqqYTKEYDMGt+d6+vB/Qqur2d3dOGvn56ygv30d9fRkff3wTLpd3smpCwiiGD7+cvXuX09BQ3ua8yZN/h9Uay+LFd5Cb+73PvqyslUyfvgCN5shrL8XEDAKgsLBtMP1zJpMdVXWjKFqKira02R8ZOQCA0tKd3fL89HoTVqs3sA4NTebtt6+kvv5Q/nVR0WYiI/tRV3f8NbE9qsqv/3dopP/qUcmMSggls6jGZ3tH6h0uthRWs6Wwmnd/2s+7vxrLqIRQbp/clzs+bfuaHYtTEkKxm/SU1zt4ZuXuTofAN5yawsAoKwuWbGsNvAGaXR5+t3gLU1Kj6BdhYUxiGD/mV7T7GIpyaERdKhoJIYQQAVjh0u12UF2dg6JoSEqaTFBQBKCg0eiwWmNJTj6N8PD+ADQ3V/u7OyeNPn0mkZQ0hhUr/twamAIMHuzNq96x49M25yQnTyA1dTKZmf9tE3gDpKfPBGDPnuXttmkyhWC3J9LUVEV1dX6Hffz++7/jdDbi8bgoLd3RZv+h4Ht3tzy/kJBkFEVDXV0JH310s0/gDWC1RgNQXb2/w773hOomJ0+t8N4FmJoW1W2Pm13RgMvjIdxs4LGZgwnWazt13v+NTUFVaTcX3OFWWbbX+yVmXHJYm/0tCgu38sorM3jllRm8++5Vx/YEhBBCiJNIQCZcFhZuQKs1YLXGk5o6A1VVURTweNyUlGzDaLSi15sPpp+IjhgMFiZPvp3Nmz/wCVyDgkJISTmNxsYq8vPXtzlvwoRbUVW1TUqJxRLFmDHzyMi4gJycb1m37rV2242Obhn17tyIbFhYCgaDheLiba2pLS20Wj1hYSm4XM1UVuZ2y/MLD/emnHjba2ynP/261P9ACNbrGBZnI94ejM2ow3QwME6wB6HTaHB5jpyu1VlFtU3M/+8mnjl/GNePSWH24Dhe+SHnqOknNqOOBHsQRbVN9I+0EKTXYtRqMOk0GHRaTHotURYjAAbdkYN5VXV3++RWIYQQ4kQWkODb43GRl/ctQUHhBAdHoChaHI4a6uoKMRpDiYkZRlNT1RFSUoQvhdNPf4DGxgrWrn3JZ09q6mlotTr27PkKj8flsy8kJJGwsBSqq/MJC0sjOXkidnsCCQmjiIzsT3n5Pr7++uGj5nHHxg4BoLAw84jHHC4mpuX4tikq4eFpaDQ6Skt3/izd6Nien/cxvcF1SUnbNBabLR6bLYbq6v3U1ZV0qv/+NDjGxj1TBzC9b3RrxZGfMxu0VDcdf/AN8Mm2AlZllXH7pH5cN6YP904dwE3jUnlq5W7+9WM2DrdvSsiAg4v3xFhNLP2/SW0ez+lWcXrcVDU5cbgkXUwIIYTorICucNnYWE5j46E8XY1GR3z8KABKS7cf6TRxmFGjriYiYgAffHBtm9HklJSJAGRnf9vmvLCwFMAbhE6ffj91dSVUVGSxc+fnLF36AJWVOR223TLy3V7+dntiYoYC7Y80t6SclJT4TrY81ucHEBHhDb7bS3FJSPD+nuXn93wt+dP7RfPvy0aRX93Ajf/dyE8FleRXNaJRFGwmPZl3no5Rp0F3hKD8WFU2Onhg6TZe/H4f809N4epRfXjkzEFcN7oPF7++lrzDJni25GdXNTqY8OIKml2e1oDb6ZbcbSGEEOJYBTT4PpxGoyU+fixGYwg1NfnU1LRfY1j4qqjI5rPP7qKhwXeCm1arIyFhNG63k8LCzW3O0+u9Zfvy8r5n0aI7j6nt6Oh0oP0c7fZERXkD7PLyPT/rq54BA85u97GO9fkBREZ65w78PKAHSEwcDUBe3tpO9d1fDFqF5y4cjlYDM19bTWXjoS8YHlWlqtHRuuCNVune4LtFcW0Tf/xqB899t4//XD6acclhPH/hcC5YuKb1mKyKelQVQoIMRFmM3V76UAghhPil8vuEy/YYDFZSUk7HZkukoaGMAwd+6IlunJCyslZSVranzXarNQ6dzkhNzQGfCYotamu9k+O8o9FdD+qCg8MxGCy4XI3t1mtvT0tJv4aGQ3Wg9XoTZ5/9GHFxwwEoK/MNvo/1+VmtUZhMdmpqimhqajtxNyHhFKDn870HxdiJMBsorXP4BN6Hcx0cdTbq/PvnWdno4PnV3td6WJzdZ19Fg4NV2d4Jq4+eNRib8di+p1utsYwY8SvGjZtP//5nHF+HhRBCiJNAQINvvd5MXNxo+vY9G5PJO+Kdm7ui3fxd0TUtJfa02sMXfTkUZBcVZVJfX4bRaGX8+Jt/dpy3LGBq6hSmTfs9BoO5zeO31GvWaPTYbHGt2w0GC6mpUxg16lqf4zUaHVqtAYCkpLGAQlzccC666FWamxtaF8ipqytBq9VjMFiO6/lFRLTUDG+b7x0UFEJQUCjNzbU0NlZiNFrbPP9AqWr0TnCMtZk4J9233nhyaDCvXnxKa6AbrPfvjamhsXbunOy9W7BiX2mb/fd9nklFQzPj+4Tz/a+ncd+0gYxLDutSIO50NjJu3HxOOeUaMjLO77a+CyGEECeqgKWdGAxW+vY9G0XR4HY7KCraRFVVdqCaP+nV13snEdps8Vx44Qs4nQ3ExAzhvfeupq6uBI/HxYoVTzBz5p8ZOXIugwZdSGWltwSk2RyJxRKFy9XMrl1f/GxhFK+GhnJqagqw2eKYM+ctysuzMZks2GyJuFyNbN36oc/xHo+LsrK9REUN5KyzHsXtdqLV6snM/IiVK59m3jzvxM6LLvo7wcHhrFr1TLuL5nT2+bWknLS3YE9QUCgARqOVOXPexm5PYtGi37J/f9uKKV3x+2kDsB1c4TL94ATF9Cgrj88c7HPcaz9kty7Dnl1Rz9d7SpjRL4qFl41ic0EVRXVNDIi0khxi5q1NeWwtqmFIjA2zwbeKyJPnDvVZiTLW5k0lmjc2hTMGxLRu/zjzgM9CP2cPjOHeqQNocLrxqCpBeh3xNiNhwd5qJWtyyvltOzXFd5fVcfZra3h85mCm9Y3k9sn9uH2yN6++zuGivN5BncPFGa+sajNhs0VTUxX7928kKWkMdntiJ15VIYQQ4uQWsODb4ailtraA5uYayst34na3f8tdHJuKimy2bPmAgQNnYrfHU1i4la++eoj6+kNBWHb2Kj788AbGjLmWmJghRET0p7m5huLi7WzY8B927/6K5ub2c3tV1cOSJQuYOvVeIiLSCAlJoLAwk02b3mX37i9xOOrbnLN8+aNMn/4AISHxlJXtYcOGN8nJ8U6W/Omndxg+/HKqqvJYteppcnOPnovd0fOLiGgJvtvmo1dW5nLgwEbCw1OprS1m5conOXBgU+de2KO4fHgicQcD4BaJIcFcPybFZ9vCdb6lFOe9v4FbJqRx4aA4+kdaibUFsfFAJXct2srKrFL+fekohsTYsBp9R+cvH56IqZ1UlCmpkT4/f5vtu8JmpNlIRrT3y4GqQk2zk9yKBhZtL2LR9kJWZZUeceGdrIo6LntzLf0jLJw+IJrhsSGkhAUTawsi3GzAYtAdMfBu4a0JP4aGhraj60IIIcQvjWKxJEvpAiFOcjqNBr1WwelWu6V2eFeMH38zI0dexfbtn7B8+eMBbVsIIYTobXqs2okQInBcHg+uwMbcrcLC+gKQmflxz3RACCGE6EV6pNqJEOKXwWi0ER8/nKysVe0ufiSEEEL80kjwLYTwmwkTbqW2tpivv364p7sihBBC9AqS8y2E8BubLR6320F9vUy2FEIIIUByvoUQflRTc6CnuyCEEEL0KpJ2IoQQQgghRIBI8C2EEEIIIUSASPAthBBCCCFEgEjwLYQQQgghRIBI8C2EEEIIIUSASPAthBBCCCFEgEjwLYQQQgghRIBIne9uMOaSwQDkbCygJKsCZNkiIYQQQgjRDgm+j5PepCN1TDw6g47+E5Opr2hgz/f57FmdR3O9o6e7J4QQQgghehFZXr4b6E06EofEkDwylrj0SBRFweVwsX1ZNplf7cHjlpdYCCGEEEIEOPi2WmMJDe2L0WhDpwvC6WygsbGM0tIdOBy1geqGX5nDgsmYmkL/SckoikLR7jKWvfwjqkcCcCGEEEKIXzqtwRDyUCAaio8fR3T0MPT6YJqb63A6a9HpgjGbowgL60dDQxlOZ30guuJXzkYnBTtKKc2qJGVUPNYIM8V7yqivaOzprgkhhBBCiB4WkJzvsLB+hIQkU19fTH7+atzullxohcjIDKKihhAfP5bduz8NRHcComh3GWW5lUSmhGE0G3q6O0IIIYQQohcISKlBmy0JgJKSzMMCbwCV0tJtuFxN6PXBGAzBgehOQOhNOkLjbTganBTuLu/p7gghhBBCiF4gIMG3oigAGAzmdverqoqqqrhczYHojv8pMPGq4ej0Ota8vRlno7OneySEEEIIIXqBgATf1dW5AERHj8BotPvsCwnpg14fRGXlXjwedyC643cZU9OIHxTN1qV72L+1uKe7I4QQQggheomABN8VFXsoK9uJTmcgNfUMIiMz0Gj0REQMJC5uDNXVuRQX/xSIrgTEgEnJAOxZk9/DPRFCCCGEEL1JwKqd1NcX0dhYjtUah9UaT0TEQMzmSPLz11BWth1VPXlK8aWMjifYbkJv0lK0p1zqfAshnQf0UwAAIABJREFUhBBCCCCAwbdGo8VuT8FsjqK+vgS9PhiNRofJFEJTUzVOZ0MguhEQJfsqiEoNIz4jivTTUolOCyMyJZSS7Eo8Lk9Pd08IIYQQQvSQgATfGo2e5OQpWK2x5OWtoqxsO9XVOej1QZjN0YSE9MHpbKCpqcrfXQmI5noH2esPEGQzEZ5kxxphJjwphJ0rsnA5To68diGEEEII0XUBWeEyPn4sISEp5OauoK6uyGdfWFg/YmNPQVU97N37xUmx0mV4cghTrjsFR6OTfT/kU5JVSV1ZA831jo5PFkIIIYQQJy2/L7KjKBrs9mQ8HmebwBu8kzFttkTM5igslmgqKk784HvSVcMxBOv43yPL8bgk31sIIYQQQnj5vdqJRqNHUTQoihaNpv1Y3+321vc+Wep8qyroDDpiB0T2dFeEEEIIIUQv4vfg2+1uprm5BkXREBMzqk0AbrMlYrUm4HI1U19/ctTE3vjpTlBh0jUjCE8K6enuCCGEEEKIXiIgOd9BQWH06TMVjUaP291MY2MlqurGaLRhMFjxeJzk5KygsfHkWYZ90Iw0Rpw3kIaqJhY9vhJnk6unuySEEEIIIXpYQKqduFyNratcarVGTCY7Ol0QTmc9VVXZ5Oevwems83c3Aqo0q5L4jCjsMRaqi+qoKjjxc9mFEEIIIcTx8fuEyxZOZwNFRZsC1Vyv0HSwuonbKeUFhRBCCCFEAIPvXxKdQccpF6YTnxFFTUk9BTtKe7pLQgghhBCiF5DguxuFxllJOzWRtLGJ6E06SrMqWPXvjbKwjhBCCCGEACT4Pm5Gs4HBZ/QlaWg05rBgAOorGln/8Xb2/ZAPUuZbCCGEEEIcJMH3cXI2O0kdHY8hWE/hrjL2rMlj/5ZiPB5PT3dNCCGEEEL0MgEpNXiyi0oLo7a0nsaak2ORICGEEEII4R8SfAshhBBCCBEgfl/hUgghhBBCCOElwbcQQgghhBABIsG3EEIIIYQQASLBtxBCCCGEEAEiwbcQQgghhBABIsG3EEIIIYQQASLBtwDAYoK/Xq9hxnClp7sihDjJmBX4S6jKVFNP90QciU0Dz4apnGLs6Z6cHOzB8PJNGsb07/nP1CCbkfTTUjjrjgmYw4J6ujsCWeHS78Ks4Vw88UomDppKqDWczOzNPP7+Amoaqnu6a62iQxT+9n+QFgNJkfDddmhydHyeomjIyDiPQYNmExqaSFHRNpYte4S6uhL/d9qPJp52AdfNf4DCA9n84c6Le7o7v1jyPpwcIrXwRKiHFB3E61S+b9bQdAKuLnHjbY8zdvwZvP/msyxZ/GZPd6fbzQ5WGWFQGaJXeaJGw9LGnu5R5/TW68SlExVG9YXhKQqPvA+frw/8L314kp1BM9JIGBKNRuMda00cEsPOldkB74vwJcG3H43uP457Ln0Ye3BI67ZR/U/l0slzeW3JCz3Ys0NiQuHvNyvEh8H6vXDPf9ROBd56fTDnnPMECQmjWrclJo5m/PhbWLr0QT/22P9MJu/IQENDbQ/35Jetp98HuyWI6roTJALppaK1Kn8NU4nVwiaHwgOVygkZeP8SLKxTcKpwvVXl93YPOhQ+b+z5UduO9PR14kheXaridMPNZys8dLmCTgOf/hiYX/7gkCBGX5RB4tAYAMrzqsj9qYj8LUXUltYHpA/i6AISfKemziAoKKLD42prD5CX920AeuR/EwdNZcEVj1HfVM9Li59mW+5mzht7EWeNusAnGO9J4Vb4x80a4sJg+RaVBW+pOF0dn6fV6rnwwueIispg3bp/kpn5MRkZ5zN27A1ERaV3ez+t1ihmzXqFAwfWsWzZo93++D9nMHrvjdfX1fi9rUC4fkwKD52RQbPbQ3Wjk/yqBnaW1rJyXylf7ynG4e6d0VBPvg8ZabE8fedsXvtoNf/9+qeAt98bDJl0GWdf+xeytq7kw2ev7vL5YRr4W5hKjBZWNSk8Uu0N7kTv9Va9QrkH7rar/M6u4kLp9SPgvfl6vXCZSlmNyoJLNSy4VMHl8f8IeFiCjWk3jcVkMZCzsZAd32RRnlfl1zZF1wVs5NvlajriPo1Gh0ajQ1VPjitzSkxffn/Zo1TXV3PPv24mpzgLgM/Xf8JZoy5ga07Pf5ibDPDMPIW4MPh6s8of3lTxeDp37qRJtxMdPZiVK59k69b/ArBjx2LGjr2BmprCbu6pwvTpD2KzxbB27bpufuz25WXvZMmiN8jP2x2Q9vwt0mLAqNNg1GmwGXUkhgQxvk84143uQ3FtE/ct2can2wp6uptt9NT7MOPUgTwwfyYmg46BKTEBbftkYVLgsVAPMVpY0QQPVyl08vIietiSRgU3cJ9d5Xc2DyVuhZ8cvXcEvLdfrxevA7dH5Y9XKCy4RKG4UmXDPv+1N+7K4ZgsBta8tZmsH/f7ryFxXAISfGdlfX3U/YmJE7DZEqmqyglEd/xKr9Nz76WP4PY4ufPVG9hflte6b0TqaEqqilmVefTXo7OSo1KZNeEyNu1dz8qtX3Xp3LtmKWQkKmzcBw+83fnAOyHhFAYPns2+fStaA28Auz0BgJKSHV3qR0dGjLichIRTUFWV/Pwfu/WxjyRzy1oyt6wNSFuB8PjyXTy1cjdBeh3RFiMpYWZOTQ7joiHxxNmC+Oclp3CV28MXO4t6uqs+euJ9mDdrPDdcPAEVeP7tlbyx+Af/N6oo6HQG3G4Xqsft//YC4DabykA9bHYoPFotgfeJ5qtGhXAF5ttUHgxRua4MKj29MwA/1uvE/100gYToEJ594xuqahv8et4XG1QirHDbeQqPzdVw+VMeKuu63OUOGc0GQuOsuBxucjYc6P4GRLfp8ZzvoKAIbLZEGhvLqa098b+lXXv6zaTG9OX5T//iE3hHh8Zw6eS5PPrufTQ52t4FGDNgPOefegn94zMw6o3kFGexYstSPvn+fTxq24+upMgUXrhlISZ9EOmJQ1uD7/jwJKYOO5Ppw8/ix12refmzZ9qcOyFd4YIxChV18Ps3PJ1KNfFSGD/+16iqh9Wrn/fZk5IyGYCsrJVHPLdv32mkp88kPLw/RqOVmpoDbNv2CVu2fAD43vWYPPkOhg699NDZisK8eUt8jiko+ImPPprf2c63S6fT8483vkdR2n6w7Ny+gScevuG4Hr+3cLpVnG4nNU1O9pTVsXR3MU+t2M1rl57C6f2iuWZUnx4Nvnv6fTAadCy44WzOHJ9OQ5ODBc8v4rtN/hmeMgbbGDx+Nn0GTSIqMYNgeyRarfdSvGThvWxZ9e4Rz00dOo2Bo88hKimDsJhUmhtqqCzJIWvLCtZ+9mLrceGxfZn3qO+X/JqKQv5+1zgALCHRZJx6ISmDJ2MIsvDGIxe0Hjf/yTXYwuMOtTlkCnf/K8fnsRrrKnj+tpHt9vFUI8wMUqn0wENVHaeaLPjTf0hITOOe31xAsNnGzAuuIX3QaCzWEEpL9vPt8v/x1Rfvov7sOvjk84sIj4zjsQfnsXeX791EizWE515dBsCNc0/F6XQCMHfe7xk3aSZP/elmBg8bx6kTzkKr1fLB28+TtXcrF19xG4OGnkpdXRWvvfgA2fu2tdvntH5DOWPmFaT0HYTBEMy+PZtZ/PG/jng8gFar4+zzr2bshDOJiIynrPQAWXu28vmn/6G4MM/n2Nj4FB59+kOfbRVlxdx160wAQkIjOXXi2QweNo6gIDOP/OGqo7/Ix+DdBoXBRphoVLnDDvdXdnsTXdad14lxw1IY3DeOv3/wLVVdSBc/1vPeWKEyLEVhymC472KF3y3s/jv9zfUOakrrsUWa6Tc+iV3f5nZ7G6J79HjwHRMzDIDi4s093JPj1yc6lYsnXsn2vC0s+uG/PvusQXZeXPwU63Z/77Ndo9Fy3Rk3cdnkq1FVlezifSjAwIQMMpKGcErfMSx4/Y42bZ0/7hJMeu9EE7s5hEev/hv94gcSaglrPebLDYvanKfVwO0XeC9cLyxWqejCxSM5eSxRUQPJzf2emppD36ptthiGDLmIrKxV7Y58WyxRnHHGw8TFDcftdlFevhtFgfDwNCZPvgOdzsTGja/7nFNbW0pm5sdERg4gOjqD0tI9FBdn+hxTWHj86TtarZ4vPv0PBqMJkykIgzGI6JgkklMGHvdjH8lrD12JTqft8Lhn/rOMLXv8N3rR4HTz/Hd7Ob1fNKMTQ496bEzMEC6++FUAamoKeP312d3al554H1qE2YN56s7ZDO4bR0FpNXc8+V+y9pf5pa3kjAmcP/95gixhqKpKQ205NWX5AOiNZjSa9n8vzPZIZlz5RwaMmomqeqgpP4DqcWG2R2K2RxKXOsIn+HY6mli/9F8Yg62YzHb6jTgDU7ANnd7IxFl3cMqM69Dq9ADUV5f6tLV/zzqUvRpCopKITRlGfXUpeTt9Rxadze0P22kVuMXqDSpeqVWo7MSQt9lsw2AM4qIrbuXUCWejoFBeXgiqh/iENC6/6k6MxmAWffxaxw/W4ghxjckUjMkUzPzfPI49JJzmpnos1lDm3fwgjmYHLpcDi9WG1RbCldfezZ8WtM11nzLjIi658jdUVZZRV1tFaGg0I0adxuBh43ntxQdYt7btXciIyFjm/+bPpPYdTE11JUUFOcTE9SE+IY0Ro0/jb3+5nX17trQe73A0s/Tztwk2WzCbbYwYdRrBFit6g4FZl9zEjLOvQHfw/auuKu/869JFz1QrjIlUmWRUGWbw3sk4mpP5OtEdHv/Qw7iBGk4bojAiVWVTVve3sfadLcy4eSynzM6gpqSBwl2lHZ8kAq5Hg2+rNYHg4Ejq6oqorz+xy9MBXDzxVyiKwj+/fLFN/vregl3sLdjV5pz7LnuEKUNOZ/2eH3jigweorKsAYFDyMB69+q+MHTiJ04aezootvhf01du+YXz6ZCLt0YRbIzAlm8grzWH5T0s4Z8xsdFodSze2Db4nD1JIjoSiSvhiY9e+eaennwdAZubHrdsURcOUKb/D5Wpi5con25xjsUQye/bfsViiWL36BbZufR+Xy3Hw8c5l+vQFpKfPbBN8b9r0BgCnn/4Q0dEZbN78Djt3ft6l/nZGc3MDH77jO4o/buLZ/N+tf+r2tloM6BON0dDxn16QSe+3PrQoqPHehWlwHP32h6IcviSAH0ZseuB9AOibGMnTd11EbKSNjTvyufevn3TpFnRXaHV6Lrz5ZYzBNr77+Bk2LvsPTZ0oOarR6rj4twuJTBjA6k/+yo9fvILT0QCKQkLfUcz5/Qdtzqkp38/ydx9uPf+uV/eiNwZx+T3vEtNnKAX7NlKwbxNlB3ZTXeo76rr4ld8A3gmXsSnDKM7bzqJ//LpTz3GCUSVRp1LsVviqqXNpCg5HMwDJfdJ58Zm7ydy8BrfbhcFg5LqbHmLMuDOYeeHVfP7pQtzuzt2mUw//HT1slNTt9o6AH8jfy0P3XIHD0cSd973EgIyR/POlP7L+h69J7TuYBX/6D4lJ/dt97LraKl569m7yc/cAEBRs4YZbH2HYyMnMnXcPW39aTVPTod8hrVbHb+75G+ERsbz47N1s+ME7Iq/X65k77/feUnk3Pcgf7rio9Zzy0gLeff3p1vNffesHjEYT99z/Cn3SMti3Zwv7dmdyYP8+Skv8d8e4wgNfNCpcEKxymVntMPg+Wa8T3aW81lvx5OLxCr86TWFTVve/RiX7Klj95mYmXj2cydeN5OOHluNodHZ7O+L49FjwrSiag6PeKiUlJ/6od5g1gmnDzyKraC9bsjd26pxR/cYyZcjpbNq3jgde/y3Owz5YtuVu5qPVbzN3+g1MHXpmm+B70751ZBfto6K2jDtfvZFmp/cDbHjaaC6aOIdVmcuoqG07InLmwTvFb6/y4OpCeqlebyIlZQrNzbXk5Kxu3T5x4m0kJo5l0aI7qa9v+w178uTfYbXGsnjxHeTm+o76Z2WtZPr0Ba31R9sTEzMIgMLCrZ3vbC836Zq2qUA9ZVyy907JdzlHHz07/DbvyTIxesLwNB697TyCTQY+Xv4TT/77a1xu/2Unx6WOwBhso6G2gjWLn4dOvo4TL7yd6ORBrHj/MX5c8sqhHapKbWXHE2U9bheqqqIoGrav+Zj//nUejQe/5He36Sbvc/qwAVyd/DVpCag/eu8lNm9c1brd4Wjm7YVPMmbcGRiNwYRFxFBa3LlA80i/o66DF731a79uLU2Xm7OTARkj2b3Te93O3rcdVVXRGwxoNFo8P8vD3/DDstbAG6CxoY6Xnr2bvzy3iJDQSE47/SKWLHqjdf/pZ19OfEIa7/zn6dbAG8DpdPL6a4+TMfhUYuP60HfA8DbpMy2vT8v7t+a7z/nrE7+lrjZw1SveqfcG36cavRNpj1Yq8mS8TnS3N77xBt8T0hVMhs6V9u2q3E0FJI+IIWlYLNH9wsnf0rvm84geDL5DQ1MxGKxUV+fR2NgLksmO06zxl6HX6vlo9TudOl6j0XLjzNsB+OeXL/oE3i02Z29kLpAYmdxm36kDJzOq31hueenq1sAb4NwxswBYsv6TdttNi/FeHLfkdKqbraKjB6HV6igpyUJVvR9Gw4ZdztChl7J8+Z/Iz287MS05eQKpqZPZuvXDNoE3QHq6N39xz57l7bZpMoVgtyfS1FRFdXV+1zosOmQxaLljcn8cbg/Prtpz1GMLC7fyyiszANrk3p6orrlgLMEmAy+9u4qFn/p/YmdlSS4et4tgaxgz5jzEyg//jLP56HXcgm3hjDl7PrWVRaz/6l/H3LbH7UKr07Nz/Wd+C7wBUg5+omR2IaDwHLz26XRtP45qqiuoqa7EZg8lPDy6C8H3od9RzWGjsS0j38ph6T0et29wraoePB53ax5+ZzidTlYu+4gLLr6RpGTfFIjpZ12BqqqsWv6/Nue5XE62bl7NlOmzGTBwRLvBt7ffLnQ6PevXfhXQwBugyA2VHgjVQIJOZa/zyKPfvfU6MXV0f+bMHOWzLTXBW/748d9ciPOwiU/b9hXx1zeXH9d5R1NQARW1EGb1Lmq32w+ZhSFxNkLibDRUNVGyz39/7+LY9UjwrdHoiYwcgqp6KCk5sUc0rUE2/rvg69Zv/HdddD93XXR/u8fu2r+dW1/y5hCmJw6mT3Qau/ZvY9f+9ifptKyCGWyy+Gw3myzcct6dfLzmPZ9UFrs5hPEZp1FdX8XGvW3L8mk1kBDu/X9eF9PAYmKGAlBR4V0Za+TIqzj11BtYtuwRdu78ot1zJky4FVVV26SUWCxRjBkzj4yMC8jJ+ZZ169rP5YyObhn13tLufnF8njpvGClhZh5btpNdpUdP/ldVNw6HH6bn96DGZu8H5/jhKXyyYjOVNf4taFxXVcziV37Lmdc8zsjpV5M+9jw2fLXwqOknKYOnoNFoKcnLbA1Sj4XH40SLHo3Gf5d8rQJxB2Pa/a7OV8ZwHQyIj5Tv3lBfg80eesT97fH43ME4PPh2H2zryHfbjlXhAe+1MTo2qXVbULCF8IgYqipLiUtIwWAwotcb0BuM6PRGDHoD9hDvRVmnP3KamcftAp1/37+jyXMphBpUknWw9ygZDL31OhERamHYgIR292Wk+pYTrWs49M3xWM/rSE6JN/hOiVLYfaB77hAMmJRM7IBIQuKsmKwGcjcV8dPinTTX+2FoXRy3HvlLDg1NRaczUlOTj8PRu1al6iqP6mHZT0uYMeLs1m0/7PyWstpSdBodiqJFq9Gg1ejYlnsovSYjyRvM5hQfuaJCTGg8ABU1hyZ/KYrCPZc8RGVdBf/66kWf4ydmTEOv1bNiy1LcnrYf1EEG0Gm9d7ubu5gCZrN5LzTV1QVMm3YfaWlTWbTojiOW/wsJSSQsLIXq6nzCwtJITp6I3Z5AQsIoIiP7U16+j6+/fvioedyxsUMAKCzMPOIx4tj87rQBXDQkni93F/H8aj8Wne3FHnxpEU/cMYvhAxNZ+KeruOPJj9iX79/JSTvXLSZ3x2pOPecWRky7iomz7mD0mdez5tO/sXH567hdvn+Y9nDvB39V6fHd+fG4XGAAjbbzAWxXmQCd4s30be7o4MO0DJBqNO0H7Oox5Q4fCr6Vwx5XPVhTVeuH16GmxnsH9/DAPj4hDfBWJ7n/0dfbnON2uXC7nTTU1+ByHvmi7HK7MOCffndGS6qJlt5ZbrAjHyzdyAdLfdNB//XwrxjcN44LfvN3CkvbX6DnWM/rSNPBt7o7386k4XFE9/WmEdZXNtFQ2Yij6eQoXXoy6pHgOyysLwAVFXt7ovluVd9UR1bRbuBsVm39miEpI+kbN5B//+dl9hUe+VZ+uNV766qw8siL0iRH9QFge96hkd8rplxLWuwAbn3pahxO32+049InArBmR/vl/uqaoLIOQi2QGKGwr6jzH2pBQd5qGKecMpeamkLef/+6o6aChIWlAGCzxTN9+v3U1ZVQUZHFzp2fs3TpA1RW5nTYZsvId1HRyTXy3dPVTh45cxDzx6Xyxa5irn9/PS7PLzM3s7KmkVsefY/7rj+LmZMG8c8/XunXEoMtGusq+ea9P7Huy1cYdfp1DJ/6K6Zefj8jps3lvafmUl3W9u8qyHz0ajQdaclbVvw4clqvQpVHIUSjEq+F7E4O1LekJ2i6kOZxuPbCQfdhqSSHj5i3ttWFUfTOCo84uJR32aFrekvec31dNQvuugSn04nL5cTtcnZ68igcev/80e/OSNJ5n0fesd98EYdJjvL+m9uNdSa++cePWCLMRPYJof+kPgw5qx+JQ6P54pnVuJ29JwVIeAU8+DabozEYrDgctdTXFwe6eb8YkJABwJINn/KPL/7Gw3Of4dkbX+N3r93Erv3b2z2nyem9xW35WUpJC61GxzljZqOqKl9t+qx1e25JFg+8cUdrVZQWeq2O4WljcLicPiPsP5dbqhJqUUiLVdnXyTkYer0Jm807Cp+d/R3ffPNohx8c+oNlEPPyvmfRojs719DPREd7l6ovLe2dK5cdq56qdqLXKjx17lDmjEjif5kF3PzxRpy9dGn5QHE43Tz08mfkFJRz06WTeOqu2bzwzkreXOz/BZ3qqkpY8cGf+eGLf3Dhrf8gsf8YZs57inf+clnrMZUl3lSG0JjU42qrZcS3S8HbwcBRbwzq9Cn5bpUQDaToVLI7mXrSso5Be7Wbj36et39BwW2voYdfnw7/oqseY1udkdRnAACZmw/NbykuykNVVcwWOzZ7mM9Eza7wHPw77YngO0iB6IPN5kvwfdyCDBAT4v1/bkn3XX9dDjdVBTVUFdSQ9eN+zrl3MiFxNiJTwija7Z/SqeLYBTz4DgvrB0Bl5clzqzst1luSKqtoL+U1pdz9z5t4/qZ/8+CVT3DLi1e1CZQB9pd5i98PTWl/oYoLxl1CTGgcX238zCeAX719RbvHR4fGY9QbySvN9pmA+XM/7obhKXDROA1LN3X8bTg0tA/nn/8sQUHevMSqqrxOjdjU1nq/WHlzxRW6WnYqODgcg8GCy9WI0+mf0m89pSeqnUSYDSy8bDRjEsP4yze7eHrl7i69I1ZrLH37TsdkslBensXu3Uv91teesPCTteQWVPDHm8/htjmnkZoQweOvLcHp8v+IUWNdJT9+/jKJ/ccQ02ewz76SPG/d/NiUocSljaRgX+cqKf3csYycVpXkABAZ3x+d3oDL2XHu6IZmhSF6lQuCYXnbtcTadzCI9i1T17HK8hIio+KJS0hhy6bvfvaQKm63C61Wh1arP2y799/uzvkODYti8rTZFBXksnrVoRKvdbVV7Mj8kYwhY5lz9d0899TtNDZ0PSe69f3rgbST84JVNMAWh/fuxtGc7NeJ7jB7nIJWAz9lqdR19m+kizxuFa1Wg8etUnng2FJjhH91/6yTo9Drg7Fa4/B4PFRWZgeyab8KOXhLuKrOm/NX01DNfQt/izXIzvxz2i6QA7Bhzw80NNfTPz6dSybNbd2u0+q4ZNKvmD/zdqrrq3jtyxc61YfoEO8tT73O0LqtvdGdT38EhwtGpsGwPh2P/tTVFfHtt39l7VpvfvmgQedjNNpa95tMIQwbdjlnnfWoz3lFRZnU15dhNFoZP/5mnw9A73l2UlOnMG3a7zEYzG3abfkg1mj02GyHVtszGCykpk5h1KhrO+y78Boaa+frG6YwOMbGNe+t46kuBt4ATmcj48bN55RTriEj43y/9LOnfbNuNzc8/DYlFbWcO3kwLy24nFBbsN/bjU4ezLjzbwMgO/Nbn33lhXvZs/FLAM678W9EJw9q3WcJiWL8+b/tVBtqa9pJ54O3kvwduJwOTOYQZt/2T+JSR3R4/meNCg4VhhlUBnfyxk1LaobSxXziggPeFUpmnHUFkdGHJsXFxCUz/zePt1Yr8Qm+W37zj2PkOyQs2me0PbXvYO6+/x/o9Xpee+lBnA7fLylvLXySutpKBmSM5LFnPmL2ZTfTP31EuyP2R9JTaScGBS4N9r5mHzV0HC6cSNeJssp6CsuqcXfx7t+xngdg0MGVU7y/e+9918HBx2HEBemYw4LYtGiHTLjspQI68h0amoqiaKiuzsHt7sqUnN5Lo9FiNllpdDT4THI8UJ7Hoh8+4KIJc1i49GUKK31zdyvrKnh1yXPcdv693HD2bZx/6sUUVxYyIDEDkz6IHfmZPPL2vVTUdu52UVmNd6JYbGg8T8x7iUZHAxmJQ7n5xbmUVh9K7ymuUnnvW5g7VeG28+D/XgTPUQb3nM4msrJWEhQUyujR12O1xjJ37vuUl2cTFGTHbk+iubmaH3/8J4ePcHs8LlaseIKZM//MyJFzGTToQiorc1AUDWZzJBZLFC5XM7t2fdHuiFdDQzk1NQXYbHHMmfMW5eXZmEwWbLZEXK5Gtm79sM05x8IeEs6sS2/y2RYV461WEBObzDU3LPDZt3njd2xav6Jb2g4EjaKw6NoJBBu0VDU5WTAjnQUz0ts99o2Nuby8pv0l15qaqti/fyNJSWOw2xO7vZ/tWPJ6AAAgAElEQVS95X3YmV3Mtfe/wZN3zmZY/wReuO8yfvX7hd1Ss7jfiDOYOOsOnM0NqKoHvSEYa1gMQQdXpc3f9QNLFt7b5rxv3nuM6ORB2CMSufrBz6gp34/H7cIemUzZ/rYLd4F3efnRZ17f+rPJ7P3CPGnWHTTWHSrtumfjl+zb8k27j9HcWMuif/yaC25+iT6DJtFn0CSczfXUVhbT3FjLJy/dQk25b+m/Ujd81KBwuVnlJpuHX5dr6OjeQesr28WA+ItFrzPxtPMJC4/msaf/S2nJAay2EMwWO5vWr6CyooTQsCj0hkMDEq2j7F1qydcZM+dwxsw5lJUWEmy2EBxspbKihOeevIOsvW2rdxUeyObR+6/jymvvZvCwcZw7ax7nzpoHQFNTA7U1lTQ1NvDIH+biOjjhNjY+hTPPubL1McwWKwCzLp3vU2pw47pv2LJpNf5yabBKhBZ2OmFlJ0ZpT6TrxN3Pftzu9o4c63ngDbwj7bAtT2XZFv+k/CUNjyVjagq5PxWy45uTZ5DzZBOw4FtRNISGemd+n0wpJ6gqHtWNTqtHURSfD+nP1/2PSybNZXDK8DbBN8DiHz4ivzSXK6ZcS0pMXwYkpLO/NI9vtizl49Vvt1v7+0hyS7L45Pv3OX3kOcSFJ7Atdwt/+fABymvaVm94ZanK1CEwtI/C/LPgpc87vgg0NlbyySe/4bTT7iIioj8REX0pLt7Oxo1vsnfvMlyutl+msrNX8eGHNzBmzLXExAwhIqI/zc01FBdvZ8OG/7B791c0N7d/S0xVPSxZsoCpU+8lIiKNkJAECgsz2bTpXXbv/hKHo77Tr83RBAVbmDxtVrv7QkIj2uw7kO+H9YD9yKOq1DlcBBu0hJj0hBwljzwi2HjUx/JOsB1DQ0P3VwTpTe9DaWUd8x9+mwfmz+Tzb7d122IhwbYIIhO8NaBVVcXRWEtlaR671i9h9/rPydmxut2Fd6pKc1n40LlMvuhukgaMJdgeQVHOVn744hVytn3LjU982+YcS2g0Qydf3mZ7v5Fn+vx8YO/R01j2bPySNx45nyETLyUubSS28HjskUloNFqfIP5wC2sVJplUBunhOqvKa7UdhLqtaSddC4lLi/fz54eu59Irf0ticj9s9lBys3ex/KsP2PDDMv7wyL8JDYvCYDj0e60eY1sA33+7GI0CfVIzsNrDMJlMZO/dxr49W1iy+E2aGo98TSouyuOZx28lNj6FYSMn0ic1g6joRELDorDaQjGZzK2BN0BoaGS7fw8jR0/1+Xnvbv+V6h2sh2stKg4V/lKt6fTdsl/KdaKrhvVRuPEsb6WxR97r9BpbXW9npjcNduuSY5tfIAJDsViSf9kzrrrBW3cvIiokhosfPZ3q+kOjEhpFw2cPr+bVJc91evGdQMlIVPjHLQomPTzynsqnP8qvgTi68eNvZuTIq9i+/ROWL3+8p7tzQtJodWi1Otxu13HV7W5hj4jnxidW43G7eOr/+nZDD7vHQD38LcyDUYEnqhU+bzwxS9T9UiXp4IUwDzYNPF2jsKih8++fXCfa6hMFr/1agz0YHv/Qw0dt15zrFhqtwuVPno1Gq/DVC2sp3nP0lYtFzwlozvfJqujgEs8j+4712W43h6DT6thX2PuqdWzPV3ngLRWPCvddonDu6J7ukejtWkqEZmYe+23XXzqP24XT0dQtgXdvttMJj1YreIC77CpnBcmX+xNFHx08E+oNvN+r71rgDXKd+LmUaHhpvjfwfnOF6rfAG7wTLVsqm0y6ZiRx6ZH+a0wcFwm+u8HSjd5SgHOnXU/owfxNjUbLvDNvpbBiPzvze+ciMd9sVfnTeyqKAg9cpuGKyT3dI9FbGY024uOHk5W1ipKSnT3dHXECWNWk8GS1N3C7x65yiVkC8N4uXa/ytzAPEVpY1KDw945Shn5GrhO+BiXBK7d487w/+h6eW+z/v4Hv395MWU4lJouBafPHcOZvx5M8PBatXsK93kRrMIQ81NOdONHllWYxafA0kiJTOGvU+QxNOYWrpl9PetJgHnrz7taR8d5odwEUVMDkQTAhXUOETWHNTtVv+WjixDRlyp0YDGYWL74Lt1tmz/cWpmAbo07/f/buPD7q6t7/+Gv2mWQymUz2kD0hYd8FQQUFoUjd9+Vqa22ter2/1u6Lbb3t1d7b2vZevdpWbbXe1tq6tULdtYKiIAiy72HJvm+TdbbfHwOBMQECJDMs7+fj0UfNfJfz+YYQ3nPmLLcRCgX5YPFDsS6nn51+A9UBA+fYQsywQbIRVvYYjmvPShle8x0hfuIOEW8MT5r9n7Zj/3PS74mDLppq4GefN+K0G/jL+yF+/lJ0/l319wTYtbICb2MnrjQnnpxE8iZnMnpOIe7MBDqau+lqHaY1DmXQNOZ7iDgdLu6+5BtMKZ6Bz+9j495P+P3rj1DbcvgdLE8mM0oM/NfnDfzlvRC/flU/EhLJ5RpBINBLR8fwbr8up6dpNvixO8iLnYajT8CUmJhrD/GdxBC/9xp4tuP4/oz0e+KgBZPhR9cb+c1rIf7vn7H7NzW9OJnC6dnkTszAYjfz+v98SH1Z/71HJLoUvqWPO95Ay9F2URAROQ6JRmjVLtcntWQjNOrPaMikuKDhJNnjxmQ2kl7soWqrdrs8GSh8i4iIiIhEiUbgi4iIiIhEicK3iIiIiEiUKHyLiIiIiESJwreIiIiISJQofIuIiIiIRInCt4iIiIhIlCh8n0aMRhPxdidOhytqbZpsVkZd+1mSRxdHrU2RM4nZYWfMjZeSmJ8d61KwOOPIPGsC4z93JbbEhFiXIyJyStL28qeRh+98krsv+SbdvV1s2LP2mK71JCRz87wv8ZXLv8MXPvOvTMifwqrtH9Dj6znsNTaXkzE3XoIrO5P49GTq120lFDz1dmj48v/7Kf96z8/o6e5k5/b1sS5HJELW2ZNJmzCKlDEj6Wn10lnXGPUanJlpFCw4l8KFc0gqysOa4KSntR1vVW3UaxEROdWZY12ADA2bxUZRZikAK7a+d0zXnlUyk29f+2MS49x9r00rOZtrZ9/ME6/978DtJToZe+Nl2NwuWvdWsv3FNwj4/Mf/ACIyoIr3VxEK+MmdM4Piiy/AYDJSt25LVNq2uZzkzz8XT0kBAN7qOhq3ltG0vYzuptao1CAicrqJYfg2kJiYQ3LyKPbtW4rff/geVjm60uyxmE1mGlrr2FW9fdDXnTv2Au694QE6ujt4dMkv2LR3HZfMuIqF0y6LCOOHsjjjGHvTZdgSXTRtK2PH398kGDj1erzPFF+66hyuWTCZyrpW7n14MZV1LRHH4x1WHv7utTy9eCXvrtpxwu19cXoB9y0YQ08gSGuXj/KWTrbWt7N0Vz1v7ailN3Bmb6o7MsXJV84tZk5RKm6Hlaq2ThZvruHn726jxz/w36PKD9fS6+2kaNH5FF00h1AgSP3GbcNaZ3x6CqOvvwRLnJ2GLbuoXvkJ3uq6YW1TRORMEJPwbbe7ycqajsPhASAxMZ/GxuH9h+R019Ht5ZHFD1Jev2fQ1xRkFPPd6+6ntaOVb//+LvbUlgHwyuq/s3DaZWzY80m/a0wWM6OuvghboovGrbvY8fe3TsmhJmeKWZMK+dJV5wDgTojjnlsu4BsPvhRxzr/deAHjirMwYBiSNlOdVmxmIzazEZfNTI7bwaz8ZL5wVj617d1877VNvLypakjaOtXML0njd9dMw2Ex0dzVy+4mLyUpCXzl3GKmZSdxy58/oq1n4E+Q6jdsg2CQ4kvmUbjofHra2mnbN3zfx+KL52KJs7NzyTvhtkVEZEhEPXy73YVkZU3DYDDS2VlPff0mvN6aaJdx2tlVvf2YerwtZgvfufYnBII+vv747VQ07Os7NrnwLOpaalm28a1+1+XPPxdnZhpt+6rY+bKC98nuvCmRE2Enl+ZEfD1ldA5XzJ3AP1dt55+rBv/zcyQ/fWcbDy7djsNiJt1po8ATz9l5Hq4aP4Isl4PfXTOVWwJBXt16Zv29T3XaeOKaqRgNBm55dhWvba0hBOS44/jD9WdxTn4yP7t4Ane8sOaw96jftAOLM568uTMpuXwB6574C77OriGv1eywE5eWTNDnp2HziX8aIiIiB0U1fCcnjyYjYyLBoI/KypW0tu6NZvOnFafDxfj8yUwomMyEgikUZY6ks6eDa+5fSCB49LHXt86/i8KMYh5++b8ignd6UgbXzr6Z+5/9Ht293RHXuIvySJs4Gl9nF9v/9sZRh5rc+x9/IDuniG9/5TLi4l0suuzzjB57Fs4EN/V1Fbz3zt9489VnCYUi7/PzhxeTnJrFAz+6jZ3bInvfnQluHnr8bQC+fPPZ+Hw+AG6+7bvMPG8RD/7HXYybOJOzz1mIyWTiuWcepmznBq6+4f8xdsLZeL0tPPHID9m9a9OANReNnMCCRTdQUDwWqzWOXTvWseSl3x/2fACTycxFl36OGed8hpTUETTUV1K2YwOvvPwHaqv3RZybOaKA+3/xfMRrTQ21fOPuReHvcVIqZ597EeMmzsThiOcn37/liN/jo3EnOCK+tphNff9tt5q59/aFdHT18rMn3zyhdj7NFwjhC/ho6/axo8HLG9trefDd7Txx7VTmj0zn89Pyz7jw/cXp+cRZzHxjyfqIZy9v6eRLz61m6Z3nc+mYLO57YzM17d2HvU/Vyk9IyM7AU1JA4UVz2PbCa0Neq7+rm+6mVuyeRNInjaHm441D3oaIyJkqauHb5colI2MiPl8ne/e+S09PW7SaPq1YzBYeuuMpijJHYjAY6PZ10dHdgcloZvO+DYMK3vnphVx97k1s3reexStfiDiW4EjkkSUPsmr7hxGvG4xG8i+cBcDef67A13H03rb4eBdWm4Orbribs8+5CAMGGhurIRRkRHYR19/ydWy2OBa/9MTgvwGHGS5st8dht8dxx1d+SqI7mZ7uDpwJSdx214/o7enF7+/FmeAiweXmplu/xX/c+7l+95hz4VVcc9NXaGluwNveQlJSOpOnnc+4ibN44pEfsmpF/4CakprJHV/5TwqLx9HW2kxN1R4ysvIZkV3E5LPO53/+6x527Ti4gkpvbw9vvPIMcfFO4uNdTJ52PnHOBCxWK1dccycXXnQDZrMFgNaWE1/Voroh8u/ZzvL6vv++/epzyU5P4se/fZXGlo4TbutoOn0BHn5/J/NHpnNWTtKQ3feJ+27CfMibisP55R/eZv2OyhO+7ng4LCZuPSufTp+f59f3v9euxg7e3lnHolEZXD8ph/9+78i9zWWvL8NdmIunpABXTiZt5dUnVN9Adr7yT8bccCn5F55Dd1MrLbvLh7wNEZEzUVTCt8lkJStrKqFQkPLyDxS8T4DP7+O59/6PmuYqqpsqaPY28fn5d3DTBbexdteqQd3j6nP/BYPBwO9ef4RQKDLN7qzaxs6q/uM7k0bm4/C46Wn10rBpcMMTenvDk2jz8kfzyC+/xcZ1HxAI+LFabXzhzvuYPnMBiy7/HK+8/BSBwOBWSgkdmr4NB8coBwLhHvDK8p3c9+0b6O3t5uvfe5TSMVP43aP/zuqVb1FYPI57/+MP5OSWDHhvb3sLj/7qW5TvDQcfR5yT2+/+CROnzObm277Nhk+W093d2Xe+yWTmK9/+H5JTMnnkV9/i45XhHnmLxcLNt32Xc8+/jC/c+SO+/7Wr+q5prK/i2ad/0Xf9439aic1m59s/eIz8ojHs2rGeXds3Ulmxi/q6ikF9T47k5XfXc/WFk7DbLAQCQR5/YTkAYwozuGHRND7asIclSzeccDuDVdUW7tHt7B26lXFK89OxWY/+q8xhtwzJdcdjVFoCSQ4rb26vo2OAZzcbjTR0hP++jExxHvV+Pm8n9eu3kj5lLFkzJg5L+G4vr2bn4rcZedmFlFyxgDWP/hF/tybGi4icqKiE76SkYkwmG42N2+nqasDhSMZud2MyWejubqOjo6bf0AM5vHfWRX7MPKV4BgBrd3501Gs9CSnMnbSQspqdrN99+LGln5YyJjx2uHrVOkKDXNnkQKB+8S+Psm7Nsr7Xe3t7eOapnzN95gJstjg8KRnU1w4uaH76zcIBfn8AgNUr3qKzsx2AvXu2UjpmCtu3hp9z967NhEIhLFYrRqOJYDAQcY+PV77dF7wBujq9PPqrb/FfDy3GnZTK+fOv4rXF/9d3fP5F1zMiu4g//+EXfcEbwOfz8fQTP2XMuLPJzMqnuHRSv+EzB74/oVAIg8HIB++/wn//7Kt421v6nXci9lQ2csv3/8DUMbms31HJjr31mE1Gvn/7Rfh8AR544vUhbe9oZuaFJ1m/v2fo1qo+7/O/jOp1xyPXHQdArTdyOInVZOC6ibl8dXZx3zlZLvug7lm54hPSp4zFXZSHyWIelqU+G7fsJGV0EZ7SQly5WTRt3z3kbYiInGmissOlyxXemc3n81JUtJDCwvlkZU0jPX0SeXmzGTlyETZbYjRKOe3E2eIpHTGa1o4WdtfuOur5V8y6DovJwovL/3xs7aQmA9BeOfhxusH94dts7v8er621ibbWZgCSk9MHfc9D36QZDQd/fA/0fBuMB4cRBAOR4ToUCvYL3Efj8/lY+vaLAOTmjYo4Nm/hDYRCIZa987d+1/n9PjasC/cyl46afNj7H3iDsnrFm0MevA/YU9XEC299wo694SEnt1w6g5G5qfz6r8uoqo/eWs1Oq4mvzS6hNxDkV8vOrEl82Ynhsff13nDPsd1s5Lbp+Xz0/y7kl5dOYFdjB99cEh6elJU4uPDd09qGr6MLg9GI3TPwsqAnKi41mbjUZHrbO4ald11E5EwUlZ5vmy283Xly8igaG7fR1laOz9eJxRJPWto43O4C8vMvYMeOJQQHMWZZDppYOA2j0cTaXasO2ysMkOBw8cK9b2HYP1TjG1f9gG9c9YMBz91WsZm7Hz04JtpgNGJ3h/8Mj2VjDf/+QGw0DjyutrOjDVdi0mGPDyRykueh4Tuwv62hfz9ZXRnu7UvPzO17zRHnJDklg5bmerKyC7BabVgsVixWG2aLDavFSqI7/IbFbDn8sIVgwA9mC0ZjdKZf5I9I5guXz2LTrmr+8trgP/kYCg9eMpECTzwPvL2VbfXtUW071lz28J+vzWzky2cX8G/nFJOeYOfNHbV84a+rWFPZwqQR4QDd3j3434Fdjc1Y4h04kt101DYMSa0ZU8fhLsghLtWDJd5B45Zd7F26En/X4SeBiojI4A37v/gWSxxGoxmfz8vOna9FhGufr4PKypVYrU7i4lJxuXJpaSkb7pJOK1OKzwI46njvYCjI25+8xoWTL+p7beXW92hor8dsNGMwmDAZjZiMZjbtXRdxrdFixmAyQihE0D/4YHCgk9poHHj96NDhZk8e0cHwbTjkvgeWPDSZBh/kB6utLdxDf2iwH5FdBIRXJ/nB/U/3uybg9xMI+OjsaMO/f0WWgfgDfqwMT92fZjQY+MHtF2EwwE9++yrBUIiEeDuzpxZT3+Tlo417hq3tb55fylXjR/D69hoeXn70T2hON9X7x7rfNauIUAhe217LL5auYl3VwU87UuOtAJS3DH7pwIAv/KbTcAxvYI8meVQRrtwsAHpavfS0eQn0HP5nWEREjs2wh2+DIfyPQihkPGyvdnt7JXFxqRp6chwmF+0P30cZ793R7aWsZjtwEcs2vMX4gikUZ43iyT/8ml3VRx4CEOjpxdfZjSXOjj0pkc76pkHVdmCIiNF0fD9mA0X2wCFDSQ7tMe9rawhDyAHJKRkANDYc/Nj9wKcMHd5W7v3GNfh8Pvx+HwG/b9CTR4G+YTDDUfenXfOZKYwfmcVjzy+nrKKBOLuVp++/mRFp4ZVHHnrmXf645OjzBo7VTz4zljtmFvLqtlq++NfV+INDu8PlqbDayYGJplVtXdz0zEdsrOk/6TwtPjzcZF9LZ79jhxOXHP6d2dXUfEL1HWrrX/+BzZ1IQnY6GVPGkX3uNDylBWx46gWC/mMbtiUiIv0Ne/j2+byEQkGsVseAk9wAQqFwzAoENJP+WHgSUshLK6S2pZrq5qOHg9LsMQC89vHL/PbV/+HHN/+SX335Cb75xJ1sq9h8xGu7m5qxxGUSl+oZdPgO7g/EBsOx7ZwY3B9sHXH9V304NNgeGpxCx9nWYOTmlwKwcd3B5Rdra/YRCoWIdybiSvRETNQ8FsH9W60Pd/jOTEnkX6+bTVlFA394Ofwcl10wvi94A9y06KwhDd8Wk4EHL57AjZNz+dvGKu56aQ2+Ydha/lRY7WRHgxeAJIeVssaBl3W8cGQaAMsHORnVaLFgdYX/jnQ1Dt18gYDPT2d9I531jdRv2MbE264jLjWZhOxMWvec+Ao8IiJnumEP36FQiO7uFhwOD253IU1N/UNKQkK4Z7Gra+hWQDgTTCgIT+TbVTW4pf+KMsNL7JXV7KSxrZ5v/e5OHr7zSX5008/410duodl7+FDdsruShOxM0iePpWHzzsEVuD9EGwzHNg67ubGO1LQRZGUXsH7t+5+6ZYhAwI/JZMZkshzyevj/h3rMd5Injdlzr6Smai/Lly3ue93b3sKWjR8xZvwMbvzct3jowXvo6vQe8/37er6HedjJd7/4GaxWMz/57av4/OE3KiNz0yLOSXbHY7dZ6B6CIQYp8Vaeuu4spud4+K9/buMXS7cf1yCjwTgVVjvZ3dTB+7sbOLcghX+ZksdjKyOH16U5bVxYks6OBi9vbq8d1D0zJo/BYDTSVl5FoKd3OMomGAhiMBkJBYJ01Or3s4jIUIjKaif19eF1hNPTJ+B0ZvW9bjAYSEubQHx8Oh0ddXR01EWjnNNGbmo+AE5HQt/KHwaDgRHJuSyYcjFOhyvifHd8uJezxRv+iLqts5XvPfVVEhyJ3PHZrx2xrfr1Wwj6A7hys0jIzhhUfQeGZhgGHEByeFWV4WBy4cIbSE3P7ns9IyuPO77yU0z7h7FEhO8D0e4Eer7dnvSI3vbC4nF86we/xWKx8MSjP8LXGxlw/vTUz/G2N1M6ZgoP/PJFrrzuLkpGTx6wx/5wojHs5OLZ4zh7Qj5/fmU1m3YdHDrT649cMrK7xzckwXtCZiJv3T6HcRkuPv+XVTw4jMH7VPLYivDP9ffmlTK/5OAbn4wEO3+9+WzsZiMPvb9zUN8ro9lE5vSJANSsHr7dJ/PmzsSWmMC+dz/E3zX029iLiJyJorLEQnt7NY2N20lOLiEvbzY+Xwc+Xyc2mwuTyUZPTxuVlSs47PaFMqDWzvDKIxMKpvDUN16kp7ebjKRM7NY46lpq2VaxGW9XeGyp0Wgi3p5AV29nxC6YlY37WLzyOa4650aeeuPXhx2+0tPmpWb1BrLOnkTe3Jls+uPf+yY5Hk7fn+YxBuJXFz/Nuedfiic5nQd+8QL1dZUkuNzEOxNZu/pdmpvqSPKkYbFaD2nsQNA/fgsW3ciCRTfSUF9NXLyTuLgEmpvqeOjnX6NsZ/+NaKord3P/D77ATbd+i3ETZ3LxFbdx8RW3AdDd3Ul7WzPdXZ385Ps34/eHQ23miAI+89mb+u4R70wA4Ipr74hYanDNqn+yfu3yE3iaME9iHPfcPJfKuhZ++3zkpwjrt1dw5byJfV8v/+TEJ0IaDQYW33oOcVYTLd0+7r1wNPdeOHrAc/9vzV5+/cGZM8H61W21PPD2Vr43bxTP3DiDvc2ddPr8jEp1YTDA7z7aw7OfDG4XyczpE7EmxOOtqqNx6/BMYE0eVUTW9Ik0bt1F1Ufrj36BiIgMStS2l6+pWUNHRzUeTzFWaxJ2u5vu7hba2qpoatp6xGXyZGBvfLyEKcXTmVI0g6T4JCq6Knhl1d/5cOt7rC/7uG/MNRBeqSQUwGyyYDAYIr7fr6z6G9ecdzPjCiYdcex4+fur8ZQWkDAig5zzzmLf0pVHLrBv2MmxReL62gr+874vcu1NXyUnbySuxCT27t7GO28+x8cr3+b7P3mSJE8aVqvtkKaOry2AD99bgtEA+YVjSEj0YLfb2b1zE7t2rOe1JX+ku+vwW6/X1uzjlz+9m8wRBUycci75hWNIS88hyZNGgisJuz2+L3gDJCWlMnvuFf3uM+WsCyK+3rl9aHaddNisbNtbx5N/+7Bfr/brH2xh6phc5k4vZdPOKh78w9uHucvgBUMhvL1+4qwm3HYL7iOMl06Jsx322OnqV+/toKypgztnFjIqLYFgyMqKfU08trKMJZsHt452Qnb471/QH2DXK/8ctlpzZocnc1e8v3rY2hARORMZnM48pd4zxJ++tZg0dwZX3z+f1o6DvaxGg5F//Hg5j7/20FE333FmpjH2psswWszseuVd6tZtGe6yRWQ/R7KbcTdfgdlhp+y1pdSuPfJE6eNlMBmZ8fUvYTAZ2fzMy7TuPbHVXkRE5KCojPmWk0NNcxVwcDv6AxLj3ZhNZnZVH33ipre6jh2L3yYUClG4cDZp40uHpVYRieRISWLMDZdidtipWrlu2II3QCgQ7AvcIy9fgLswZ9jaEhE505isVvd9sS5CosNgMDJrzBzy0wtZtvFtunu7MBpN/OvF3yDeHs+TbzxKYBDbr3c1NtPT5sVTUoCnpIBATy/eqsGt0CAix86ZlcbYGy7BEh9H7drN7Hnz/aNfdILa9lbgys7EkewmdVwJ7sIcAj0+elraCA3xWu0iImcSDTs5g1jMFn7zb38iN7WA9q5WtuzbRHZKDh5XCt/+3d1s3ndsk6pSx5VS9NnzMRiN1K7dzO433jvqJEwROTapY0dSuOgCjGYT1as3RCV49zEYSB1XwoizJ+NICa+WFOj10bxzL9UfrcNbrRWqRESOlXq+zyDBYJB31r1OamIa6UlZuOIS2Vy+gX//47fYU3vsKyZ01jXirarDU5JP275KbcAhMgziUj14SgrY9+5KypcN/Q6kR9NZ10jNmo207asCDMSluHFmpFK/YblisMgAACAASURBVDu9bce+tr2IyJlOPd9ywswOh9YAFhlGVmccvd7Bbzs/nIxmE66cTFp26822iMjxUPgWEREREYkSrXYiIiIiIhIlCt8iIiIiIlGi8C0iIiIiEiUK3yIiIiIiUaLwLSIiIiISJQrfIiIiIiJRovAtIiIiIhIl5lgXICInxmY28tnRmcwuTGFCppsRLhu3P7+WpWX1J3Tfhy+fzPWTsvu9fsufP+LVbbUndG8REZEzlcK3yCns4jGZ/PyzE0iJt0a87omznPC9PXEW6rw9NHX20tzlY0Kmi3irfmWIiIiciKj9S1pUtBC73X3Y4+3t1ezbtzRa5cgpJCEhjSuueIzKylW8/fb9sS7npHHZ2Cwev3oqXX4/T67aywd7G9jT3EljRw913p4Tvv9Nz3wU8fWyu+YwOs11wvcVERE5k0UtfJtM4Z653t72AY/39LRGqxQ5pRiYN+9HuFwZrFixKtbFnDQsJgMPXDSOECFu+fPqEx5iIiIiItERxfBtIRj0sWPHP6LVpAwxj6eAiROvo7x8NTt3vhWVNidPvp7s7KmEQiHKyz86+gUnIBbPd7yKkp2kOW1srWs/ZYK3gfD4dF8wRCAYinU5IiIiMRGV8G0wGDAaLfh8ndFoToZBUlI+1177e8xmB+np4/rCaWJiDiUlCygtXciePct5//3/PswdDBQXz2X06EUkJ5dgsyXQ1lbJpk1/Z/3654DIMDZ79teYMOHag1cbDNx222sR51RVfcKLL94R8VpGxngWLnyAYDDA009fHnHMbHbw5S+/jc/XxWOPXRjR5vE+35QptzBlyk189NETrF//HPHxKUyceB1FRRcQH59MZeUaXn/9R/T2eo/2LT4mxSlOAGrau4967iVjsnj48om0dftp6OxlT5OXzbXtvLOzjjWVLUNa16FcdgvXTczm/KJUxmW4SI23YzEZALjn5XX8cc2+Aa+zmAzcPauYK8ePINcdx76WTj6ubObh93eyq7Fj2OoVERGJhqiE7wNDTgKB3mg0J8NgwoSrMZsdADgcbi655FekppYSF+fpO6erq3nAa53ONBYs+DFZWZMIBPw0Nm7HYIDk5CJmz/4aZrOdNWuejrimvb2ejRtfIjW1lPT0MdTX76C2dmPEOdXVn0R8bTSaueCCb+N0prJ797J+daSkFGMwGKmv386nw/7xPl9W1njs9kRaW6soKVnAnDnfxGqNJxgMYjKZycs7h3Hjruz3fMdjx3cW4rZHTqQ8vyiV+vsuiXjtkeW7uO/NzX1fx1tNNHf5cDssZLrsjM9wcckY+PYFpaytbOFri9exsabthOs71OzCFB6/egqeOBuhEDR09LCvpRODIUS8xYzZaBjwuhy3gyeumcaUEW4aOnrZ2eClOMXJqLQEFo3K4MY/fcTqioF/ziD85uvqqx8HoK2tiqefvnJIn0tERORERSl82wCF71NZWdlSCgpm43SmER+fgsVip7l5D9u3v8HYsZdjMpnZsmVJv+uczlSuvPI3OJ1pLF/+v2zY8Ff8/vDPwejRFzNv3r2MHr2oXzhdu/b/AJg//z7S08ewbt2f2br1lSPWOGnSdSQnFwNQVbWh3/G0tFEA1NdvG7Ln83gKASgpmU9+/ixWrPgtW7b8A6PRxBVX/JrU1JG4XJlHrHswjAYDr22t6fu6OMXJtOwkqtq6WFbWEHHuJ9WRvdnPflLOs5+UAxBvNVOUHM/MPA9fmJ7P5BFuXvr8LOb+ZhnlLUPzyZTVZOD3104j0W7hP/+5jSdW7qa123fU68xGI8/cOINst4Nb/7qaJZurgfBQlZ99djw3Ts7locsnMet//3nYexgMh25doKEtIiJy8olK+DYawz3fDkcSublz8Pm8dHU10dlZS2+vhqKcCsrLV9HYuIuOjgZeeulO/P7wahrZ2dOYNOl6du58h87Oxn7XzZ79TRISMlmy5Gvs3fthxLGysqXMm3cvRuPh93rKyBgLQHV1/zD9aXZ7IqFQAIPBRE3N+n7HU1NLAaiv3zokz2ex2ElICAfrpKQ8nnnmJjo6Do6/rqlZR2rqSLzeE18TOxgK8W9/O9jT/7lpeUzLTmJjTVvE60fT0etnfXUr66tbefaTCp79lxlMy07intnFfO3l/t+z4zE1O4lEu4XGjl5+uXT7oCPw7WcXMCotgXtf29QXvAF6/EG+uWQ9cwrTGJniZHqOh4/Kmwa8h8FwsEc9FFL4FhGRk09UdrgMBntpadlLV1czdnsiHs9IRoyYwciRl1JQMA+nMyMaZcgJyM8/j9zc6bz77n/2BVOAcePC46q3bHm53zV5eedQWDibjRtf6Be8AUaPXgTAjh3vDNim3e4mMTGH7u4WWlvLj1rjhx/+Bp+vi2DQT339ln7HD4bv7UPyfG53HgaDEa+3jhdfvCsieAMkJKQD0NpacdTaY6G128eD74Y/BbigKG3I7ru7qRN/MEhyvJUHFo0jzmIa1HVfmlFAKMSAY8F7AyHe3hl+EzMzz9Pv+AHV1Rt47LELeeyxC3n22VuO7wFERESGUVR6vnt62qisPBi+TCYrcXFpuN15uFzZ5OXNoabmExob+w8HkNizWp3Mnn0P69Y9FxFcHQ43BQXn09XVQnn56n7XnXPO3YRCoX5DSpzONKZPv40xYy5jz573WLXqiQHbTU8/0Os9uB5Zj6cAq9VJbe2mvqEtB5hMFjyeAvz+Hpqb9w7J8yUnh4echNvrGqCekcdUfzTEWcxMzHIxIjEOl82MfX8wzk50YDYa8QeDJ9xGTXs3d7ywll9eOpEvTi/gynFZPLZyzxGHn7hsZrITHdS0d1OS6sRhMWEzGbGbjVjNJuwWE2nO8PA1q/nwYT4UCgz55FYREZGhFJPt6gKBXtrbK2hvr8DpzCAvbw5paRNpbt5JMBiIRUlyWAbmz/8hXV1NrFjxaMSRwsLzMZnM7NjxJsGgP+KY252Dx1NAa2s5Hk8ReXnnkpiYTXb2NFJTS2hs3MVbb/34iOO4MzPHA1BdvfGw5xwqI+PA+f2HqCQnF2E0mqmv30oodOjP2PE9X/ie4XBdV9d/GIvLNQKXK4PW1gq83rpB1T+cxmW4+PYFpcwrTu9bceTT4q0mWrtPPHwD/H1TFcvKGrjnvJF8YXo+37mglDtnFvLg0u38/qPd9AYih4SU7t+8JyPBzhtfOq/f/XyBEL5ggJZuH71+/Y4QEZFTV8z3ivZ6a+jubsVud2OzJdLVNfBYTomNadM+R0pKKc89d2u/3uSCgnMB2L37vX7XeTwFQDiEzpv3A7zeOpqayti69RXeeOOHNDfvOWrbB3q+Bxq/PZCMjAnAwD3NB4ac1NVFfrpyvM8HkJISDt8DDXHJzp4GhMeSx9r8kek8ed00yls7+fILa/ikqpnyli6MBgMuu4WNX5+PzWzEfJhQfryau3r54RubeOTDXdxxdgGfm5bPTz4zli+clc/VT69g3yETPA+Mz27p6uWcR96lxx/sC9y+gMZui4jI6SPm4dtoNGO1JgChAT+6l9hqatrNP/7xDTo7I98UmUxmsrPPIhDwUV29rt91Fkt42b59+z5k8eKvH1fb6emjgYHHaA8kLS0csBsbd3yqVgulpRcNeK/jfT6A1NQSoH+gB8jJOQuAfftWDKr24WI1GXjo8kmYjLDoieU0dx18gxEMhWjp6u3b8MZkGNrwfUBtezf//uYWHnp/F3+4/ixm5nl4+PJJXPbUB33nlDV1EAqB22ElzWkb8qUPRUREThZRmXB5OFZrArm5czAaTbS07MHnU/g+2ZSVLaWhYUe/1xMSsjCbbbS1VUZMUDygvT08OS7cG33soS4uLhmr1Ynf3zXozZkOLOnX2XlwHWiLxc5FFz1AVtYkABoaIsP38T5fQkIadnsibW3hT24+LTt7KhD78d5jMxJJibdS7+2NCN6H8u/vdbaZh/fXQXNXLw8vD3+vJ2YlRhxr6uxl2e7whNX7F47DZTu+foGEhEwmT/4XZs68g5KSBSdWsIiIyDCIWvg2GAxYLE6czixSU8dRUDCPkSMXER+fSnt7JdXV/Se0ycnrwBJ7JtOhm74cDNk1NRvp6GjAZktg1qy7PnVeeFnAwsI5zJ37XazW+H73P7Bes9FoweXK6nvdanVSWDiHadNujTjfaDT3beaUmzsDMJCVNYmrrnqcnp7Ovg1yvN46TCYLVqvzhJ4vJeXAmuH9x3s7HG4cjiR6etrp6mrGZkvo9/zR0tIVnuCY6bLz2dGR643nJcXx+NVT+4JunGV4PwibkJnI12eHPy14d1d9v+Pfe2UjTZ09zMpP5sN/m8v35o5iZp7nmIK4z9fFzJl3MHXq5xkz5tIhq11ERGSoRGXYSWbmVDyeYj7dA9rV1UhDw1ba2o6+jJycXDo6wpMIXa4RXH75/+LzdZKRMZ6//OVzeL11BIN+3n33Zyxa9J9MmXIzY8deTnPzHgwGI/HxqTidafj9PWzb9uqnNkYJ6+xspK2tCpcrixtv/BONjbux2524XDn4/V1s2PB8xPnBoJ+Ghp2kpY1i4cL7CQR8mEwWNm58kaVLf8Ftt4Undl511W+Ii0tm2bJfDrhpzmCf78CQk4E27HE4kgCw2RK48cZnSEzMZfHir1JRcWJvML87txTX/h0uR++foDg6LYGfLhoXcd4TK3f3bcO+u6mDt3bUceHINJ66bhrrqlqo8XZTmppAnjueP63dx4aaNsZnuIi3Rq4i8vOLJ0TsRJnpCg8lum1GAQtKDy4P+tLGyoiNfi4alcF3Liil0xcgGArhsJgZ4bLhiQuvVvLBnka+OsCa4tsbvFz0xAf8dNE45hancs/skdwzOzyu3tvrp7GjF2+vnwWPLes3YfOA7u4WKirWkJs7ncTEnEF8V0VERKIrKuE7GAzg83Xh93fS3d1KV1czXm81Pl9HNJqXYdDUtJv1659j1KhFJCaOoLp6A2++eR8dHQdD2O7dy3j++duZPv1WMjLGk5JSQk9PG7W1m/n44z+wffub9PQMPLY3FAry2mv3csEF3yElpQi3O5vq6o2sXfss27e/Tm9v/5+dd965n3nzfojbPYKGhh18/PEf2bMnPFnyk0/+zKRJ19PSso9ly37B3r1HHot9tOdLSTkQvvuPR29u3ktl5RqSkwtpb69l6dKfU1m5dnDf2CO4flIOWfsD8AE57ji+OL0g4rWnVkUupXjbXz/mX88p4vKxWZSkJpDpcrCmsplvLN7A0rJ6nrx2GuMzXCTYInvnr5+Ug32AoShzClMjvn5vd+QOm6nxNsakh98chELQ1uNjb1MnizfXsHhzNcvK6g+78U5Zk5fr/riCkhQn80vTmZTppsATR6bLQXK8FafVfNjgfUB4TfjpdHb2710XERGJNYPTmaelBERkSJmNRiwmA75AaEjWDj8Ws2bdxZQpt7B58995552fRrVtERGRo4n5aicicvrxB4P4o5u5+4SHuMHGjS/FpgAREZEjiOlqJyIiQ8lmczFixCTKypYNuPmRiIhIrCl8i8hp45xz7qa9vZa33vpxrEsREREZkMZ8i8hpw+UaQSDQS0eHJluKiMjJSWO+ReS00dZWGesSREREjkjDTkREREREokThW0REREQkShS+RURERESiROFbRERERCRKFL5FRERERKJE4VtEREREJEoUvkVEREREokTrfJ+CCj5zHgYMNGzeQVt5dazLEREREZFBUvg+xZisFtLGl2K0WEifMpae1jZqP9lK7dpN+Lu6Y12eiIiIiByBtpc/BZlsVjwjC0gZU0RiYS4Gg4Ggz0flinVUfvgxoUAw1iWKiIiIyACiFr4djhQKCy8kFAqxdesLBIP+aDR72rMlusiaMYH0KeMwGAy07qlgy1/+QSioAC4iIiJysonahEuHww1Ad3eTgvcQ6mltY/cb77Pl2SWEgkES87NJyM6IdVkiIiIiMoCohW+7PQmAjo76aDV5RmndU4G3qg4As8Me42pEREREZCBRD9+dnQ3RavKMYrJZiU9Pxt/dQ+ueyliXIyIiIiIDiEr4NhiM2GzhYSddXQrfw2HkpfMwms3sXPIOgZ6eWJcjIiIiIgOISvi22RIwGo34fB34/ZHL4SUlFZGbex7x8WnRKOW0lDVjEknF+VR88DHNO/bEuhwREREROYyohO8jDTmJj08nIWEEJpMtGqWcljKmjgOg7pMtMa5ERERERI4kSj3fiQB0dTVGo7kzjq8z/GlC9rnTMFotMa5GRERERA4nKjtcmkwOADo7m6LR3Bln5+K3GHnZAtImjiZlbAlt5VV0N7ey792PNP5bRERE5CQSlZ5vi8UOhOjpaYlGc2ecrsYWNv7xJerXb8VoNuEuyCFjyjiMpqgtZiMiIiIigxCVnm+z2Y7P16HNdYaJMyuN0isX4u/uZu/by2mrqKG7uR1/V1esSxMRERGRQ0Rle/ni4kXYbK5Bnbtnz9vaiOcYTbnzRizxcaz61e8JBrStvIiIiMjJKio9335/NwaDYeACzHaMRgt+fzfBoA+fryMaJZ1WQqEQRouFxIJsmnfui3U5IiIiInIYUen5PpLs7FkkJuZSXr6ctrbyWJZyyvKUFFB65WcI+v1s+tPLeKvrYl2SiIiIiAxAM/JOA03bd7N36UqMFgulVy3EZLPGuiQRERERGYDC92mi6sO1eKvqsCbE4ynOi3U5IiIiIjKAqIz5PpKKig+oqPgg1mWcFg6sbhLwB2JciYiIiIgMJObhW06c0WIhf95M3EV5dDW10FqmSZciIiIiJyOF71NYXFoyaRNHkTZhFCarlfaKara/9AYBn9ZTFxERETkZKXyfYswOO9nnTMVTko8tMbx2ek9rO3ve+oC6dVtiXJ2IiIiIHInC9ykm2NtL6riRmOx2WndXUPvJZpq27yYU1OY6IiIiIie7mK/zLcfOlZNJV3MrPm9nrEsRERERkWOg8C0iIiIiEiVa51tEREREJEoUvkVEREREokThW0REREQkShS+RURERESiROFbRERERCRKFL5FRERERKJEm+wMgenXjANgz5oq6sqaQIs3ioiIiMgAFL5PkMVupnD6CMxWMyXn5tHR1MmOD8vZsXwfPR29sS5PRERERE4i2mRnCFjsZnLGZ5A3JZOs0akYDAb8vX42v72bjW/uIBjQt1hEREREohS+U1PHkJY24YjnBIM+tmx5YbhLGXbxnjjGXFBAyXl5GAwGarY38PavPyIUVAAXEREROdNFZcJlINBLb2/7gP/z+ToBMBhM0Shl2HU0dbLqhU28/Wg4cGeUpJBWmBTrskRERETkJBCVMd9NTTtpatrZ73WLxUFOzrmYTBYqKj6IRilRU7O9gYa9zaQWeLDFW2NdjoiIiIicBGI24dLh8JCTcy4QoqzsLXp6WmNVyrCw2M0kjXDR2+mjentjrMsRERERkZNATMK3y5XLiBHT6e5uZt++9wkEemJRxvAxwLm3TMJsMfPu06vxdfliXZGIiIiInASiHr5TU8eRljaWlpY9VFWtIhQKRruEYTfmgiJGjE1nw+s7qNhQG+tyREREROQkEbXwbTSayMqaQWJiLnV1G6mv3xitpqOu9Lw8AHZ8UB7jSkRERETkZBK17eVdrjwSE3MBSEkZQ2HhAtLSJmC1OqNVQtR0799cZ8LCYsy202MVFxERERE5cVHbZMdoNGG1JmC1uoiLSyI+PhO73U0oFKK1dQ/V1WsIBk+PsdGudCfnfW4ySSNcBHxB6nY10t7Qydol2zT+W0REROQMFtMdLu12N1lZM3A4kujsrGfPnn+eNmPAzTYTZ101jqIZ2X2vPX/vm3S3a8t5ERERkTNVzLeXNxpNjBx5MWazg7Kyt+jqaohlOUMiOc/NnC9MpbfLx66V5dSVNeNt6KSnQ8FbRERE5EwWs3W+DwgGA/h8XZjNDsxmW6zLGRLn3TIJa5yZv/3kHYJ+bSsvIiIiImFRm3A5MAMeTzEOh4dg0EdHR11syxkioRCYrWYyS1NjXYqIiIiInERMVqv7vmg0ZDSaMJsd2GyJOJ3pJCUVkZk5Dbc7j1DIT3n5cnp62qJRyrDrbOkmf3IWORPSqd7WSFdrd6xLEhEREZGTQFTGfI8YMR23u7Df66FQkNbWvdTVbcLn8w53GVE19sIiJl8yis6Wbhb/dCm+bn+sSxIRERGRGIvKmG+/30cg0IPf30Nvr5fe3lY6Ohro6KglGDw9Q+mmt3aROyGD5Dw32ePS2b26MtYliYiIiEiMRSV819aupbZ2bTSaOqkc2Gwn4AvEuBIRERERORnEfLWT05HZambq5aMZMSaNtroOqrbUx7okERERETkJKHwPoaSsBIrOzqFoRg4Wu5n6siaWPbkGf696vkVERERE4fuE2eKtjFtQTO6EdOI9cQB0NHWx+qXN7FpZDlrmW0RERET2U/g+Qb4eH4VnjcAaZ6F6WwM7PthHxfpagsFgrEsTERERkZNMzLeXPx2kFXlor++gq60n1qWIiIiIyElM4VtEREREJEpivL28iIiIiMiZQ+FbRERERCRKFL5FRERERKJE4VtEREREJEoUvkVEREREokThW0REREQkShS+RURERESiROFbRERERCRKFL5FRERERKLEHI1GPJ6RpKdPBgL4/T58vg56elrwemvxeqsIhYLRKENEREREJKaiEr7NZjtGoxEwYrVasFrjiI9PxeMZid/fRXX1Wtra9kWjFBERERGRmDE4nXmhqDRkMGAwmLFYHFgsTuLjU0hMzMdiiQNg3773aG+vjEYpIiIiIiIxEbXwPRCj0UxOziycziy83hr27n03VqWIiIiIiAy7mE64DAb91NdvASAuLjmWpYiIiIiIDLuYr3bi83UB4SAuIiIiInI6i3n4jo9PAaCjoy7GlYiIiIiIDK+Yhm+j0Uxq6lhCoSD19ZtjWYqIiIiIyLCLafjOyjoLqzWB+vqN9PS0xrIUEREREZFhF7PwnZo6jsTEPNrbK2lo2BqrMkREREREoiYqm+x8WkbGZJKTS2lvr6S8fLl2uBQRERGRM0JUw7fBYCAr6yzc7kJaW/dRWfkhoVDMlhkXEREREYmqqIVvs9lGTs65xMWlUFe3kfr6jdFqWkRERETkpBCV8O1wJJGTcx4mk4V9+5bT3l4RjWZFRERERE4qUdhe3sDo0VdhNJoJBHrx+7sPe2ZLyy4aGrYNbzkiIiIiIjEShZ7vEMGgH6PRjMlkxWSyHvZMk8k+/OWIiIiIiMRIFHq+RUREREQEToLt5UVEREREzhQK3yIiIiIiUaLwLSIiIiISJQrfIiIiIiJRovAtIiIiIhIlCt8iIiIiIlGi8C0iIiIiEiUK3yIiIiIiUaLwLSIiIiISJQrfIiIiIiJRovAtIiIiIhIlCt8iIiIiIlGi8C0iIiIiEiUK3yIiIiIiUaLwLSIiIiISJTEJ3w6Hh7Fjr2fkyM/GovnTTkJCGrfc8jfmzft+rEs5Kdw0OZf6+y7h2ZtmxLoUERERkQjq+T7lGZg370e4XBmUl6+KdTEiIiIicgTmaDRisyWSlFSIxRKPxRKH1RofjWajzuMpYOLE6ygvX83OnW9Fpc3Jk68nO3sqoVCI8vKPhrWtWDyfiIiIyOnE4HTmhYa7EZcrl5ycWYRCQYJBH6FQCLPZTm9vOzt2/GO4m4+KpKR8rrvuScxmBw0NO3n22X8BIDExh5KSBZSWLmTPnuW8//5/H+YOBoqL5zJ69CKSk0uw2RJoa6tk06a/s379c0DkH9Ps2V9jwoRrj1hTVdUnvPjiHRGvZWSMZ+HCBwgGAzz99OURx8xmB1/+8tv4fF089tiFEW0e7/NNmXILU6bcxEcfPcH69c8RH5/CxInXUVR0AfHxyVRWruH1139Eb6/3iM8yGGvvuZDsRMcRz2nq7KH0Z2/0fV2S4mT53RdEnFPZ2s2kX70JQEaCnavGj2BucRoJNjMLHn+v77w1X51HjjuOz/5uOR+VN0XcwxNnZdu3PgNA9n/8gx5/sF8tFpOBu2cVc+X4EeS649jX0snHlc08/P5OdjV2HNvDi4iIyCkhKj3f7e0VbN78F0KhcJhzODwUFi6IRtNRM2HC1ZjN4eDncLi55JJfkZpaSlycp++crq7mAa91OtNYsODHZGVNIhDw09i4HYMBkpOLmD37a5jNdtaseTrimvb2ejZufInU1FLS08dQX7+D2tqNEedUV38S8bXRaOaCC76N05nK7t3L+tWRklKMwWCkvn47nw77x/t8WVnjsdsTaW2toqRkAXPmfBOrNZ5gMIjJZCYv7xzGjbuy3/Mdj5X7mlhlMJCfFMfkEW7qvD0s39MYcY631xfxdZc/yG9W7CbRbibRbmHRqAwSHWbsZiPfmVvKl2YUYjWFR2fVeXsGXUvoKG9pc9wOnrhmGlNGuGno6GVng5fiFCej0hJYNCqDG//0EasrBv55gfCbqKuvfhyAtrYqnn76ykHXJiIiIrETlfAdCvXv9TvdlJUtpaBgNk5nGvHxKVgsdpqb97B9+xuMHXs5JpOZLVuW9LvO6Uzlyit/g9OZxvLl/8uGDX/F7+8FYPToi5k3715Gj17UL5yuXft/AMyffx/p6WNYt+7PbN36yhFrnDTpOpKTiwGoqtrQ73ha2igA6uu3DdnzeTyFAJSUzCc/fxYrVvyWLVv+gdFo4oorfk1q6khcrswj1j1Yd7ywBghPuJw8ws2G6lZuf/7jI15T3tLJD14Lv2kxG41U//CzxFlM/O3zs5iU5WZ1RTOry5vZWt/O3ubB90Yfmr0NnzpmNhp55sYZZLsd3PrX1SzZXA2AzWzkZ58dz42Tc3no8knM+t9/Hvb+BsOh0zWG/cMrERERGSJRCd9ngvLyVTQ27qKjo4GXXroTvz/cS5qdPY1Jk65n58536Oxs7Hfd7NnfJCEhkyVLvsbevR9GHCsrW8q8efdiNB5+XmxGxlgAqqv7h+lP6KVSjAAADqVJREFUs9sTCYUCGAwmamrW9zuemloKQH391iF5PovFTkJCOFgnJeXxzDM30dFR33e8pmYdqakj8Xprj1p7NPiDQUIhMBoMPLe+ghuf+Yimzt7julfoCF3ft59dwKi0BO59bVNf8Abo8Qf55pL1zClMY2SKk+k5nn7DWQ4wGA5G+iO1JSIiIicXhe8hkp9/Hrm50/nrX2/tC6YA48aFx1Vv2fJyv2vy8s6hsHA2GzY83y94A4wevQiAHTveGbBNu91NYmIO3d0ttLaWH7XGDz/8DePGXYnZbKe+fku/4wfD9/YheT63Ow+DwYjXW8eLL96F398VcTwhIR2A1taKo9YeLb5gEKvJyN83VR138IbIQGw0RPZ9f2lGAaEQ/HHNvn7X9QZCvL2zllum5jEz7/Dhu7p6w/5x+WfGJ0siIiKnC4XvIWC1Opk9+x7WrXsuIrg6HG4KCs6nq6uF8vLV/a4755y7CYVC/YaUOJ1pTJ9+G2PGXMaePe+xatUTA7abnn6g17t/L/ZAPJ4CrFYntbWb+oa2HGAyWfB4CvD7e2hu3jskz5ecHB5yEm6vq99xj2fkMdUfDf794dt8hE8bBiNwSGf0ob3ULpuZ7EQHNe3dlKQ6cVhM2ExG7GYjVrMJu8VEmtMGgNVsOuz9Q6HAkExSFRERkehS+D5hBubP/yFdXU2sWPFoxJHCwvMxmczs2PEmwaA/4pjbnYPHU0BrazkeTxF5eeeSmJhNdvY0UlNLaGzcxVtv/fiI47gzM8cDUF298bDnHCoj48D5/YeoJCcXYTSaqa/fSigUOOHnC98zHK7r6voPY3G5RuByZdDaWoHXWzeo+qPBFwiBBczGT4/UPjaRPd8HXy9NcwHhVVTe+NJ5A7bvCwZo6fbR6w/0Oy4iIiKnNoXvEzRt2udISSnluedu7debXFBwLgC7d7/X7zqPpwAIh9B5836A11tHU1MZW7e+whtv/JDm5j1HbftAz/dA47cHkpExARi4p/nAkJO6usjJlsf7fAApKeHwPdAQl+zsaQAn3cZAwf2h2XQM4dswwKn+4MGhIMYBxme3dPVyziPv0uMP9gVuX0Bjt0VERE53Ct8nqKlpN//4xzfo7Iwcm2symcnOPotAwEd19bp+11ks4WX79u37kMWLv35cbaenjwYGHqM9kLS0cMBubNzxqVotlJZeNOC9jvf5AFJTS4D+gR4gJ+csAPbtWzGo2o9FaP/qH3HWY//xDuzPzCbD0YedBPdnZZfN0u/YoUHaYjoYvsuaOgiFwO2wkua0sbGm7ZhrFBERkVOXtpc/QWVlS2lo2NHv9YSELMxmG21tlRETFA9obw+v8BHujT72IQ5xcclYrU78/i58vs5BXXNgSb/OzoPrR1ssdi666AGysiYB0NAQGb6P9/kSEtKw2xNpa6uhu7u13/Hs7KnA8Iz33t0UXhJwdJoTm/nYfsQD+3usB3NZVVs3ACVpzn7HQhzs/baYDt6sqbOXZbvDK77cv3AcLtvxvf9NSMhk8uR/YebMOygpOb3WzBcRETmdKXwPkwNL7JlMh/aKHgzZNTUb6ehowGZLYNasuz51XnhZwMLCOcyd+12s1vh+9z+wzrPRaMHlyup73Wp1Ulg4h2nTbo0432g0YzJZAcjNnQEYyMqaxFVXPU5PT2ffBjlebx0mkwWrtX+gPJbnS0k5sGZ4//HeDocbhyOJnp52urqasdkS+j3/idhU00aPP4jbYeWPN0xnanbSoIeRBPqGnRz9r8a2+nYAbp9RQH7SwT+j4uR4Hr96at+kTcun7vW9VzbS1NnDrPxkPvy3uXxv7ihm5nmOKYj7fF3MnHkHU6d+njFjLh30dSIiIhJbUdlePj19AvHxGX1fG41mbDYXwWCQnp6Wvtd7etqorBz6YQix4PEUcOONfwagomI1Pl8nGRnj+ctfPtc3wbCgYDaLFv0nBoORnp52mpv3YDAYiY9PxelMw+/vYdu2V/ngg0fo6WmPuL/BYOTmm5/H5crC7++isXE3drsTlysHv7+LDRue54MPIidIXnvtU30b6QQCPkwmCxs3vsjSpb/gttte2b8TZTlxccksW/bLATfNGezzTZ/+RaZP/yIrVvyW1aufPOy1TU1lJCbmsnjxV6mo6L9iyvFaNOr/t3fvwVGWVxzHf5u9ZZMld3MhXDIloGJAZbQo4AyKF7QjCB0d2nGUaqfTWrV0mNrOOG2ttWp1nBa8N+qUGUec6hRTEBVJiBkSSyyEAIZALiVACLkQNpuEbLK7Sf+gbGfdDW5Ss2+S/X7+ynve57w5m7/OvHn2PNl6655rAk1374BPLd0edXt8evC9vTrhOv/fgjkZTv1k0axA3qqCqUq0WbS99nTQqMHttS369GjwF0PzUhNV/vBS2cxx8vqH1OTqVUaCTSkOm7bXntbVU1OUkxSvxS/t0tGO4Mkk30pz6pk7CnRT/iVB8Z4Bn870DqhnwKdb/1KmgYvsA1+xYqNmzPi2urtbtWnTytH9oQAAQFSZbbaUJ8b6l6SmzpLTmS2r1SGr1SGL5fwoNZPJFIhZrQ75fOfU1dX0NU+bGPr6XIqPT1Zqap4sFru6uk6psrJQHR31unAiocvVpOPH98jpTJfTmSmnM0tms0VtbYd14MB7Ki5+SvX1xfL7w82bHlJLy0FlZl4up/MSWa0OtbfXq7r6XRUX/17HjlWEZLS2fqmsrHmy2Rxqbz+izz57Qfv3b5Y0pLg4izIy8nXmTL3Ky19UfX342eKRfr4rr1yj1NSZqqraHDKD3ONxKzf3atlsDnV2HlNp6bNqbt43uj/0MOo6evTJ0VZ5BwdlNpmUYLUoyxmvqUkOPbvriLz/3dx9RXaS/rC8QPNzkjU/JzlwlPzsDGcgNj8nWWWNHTr4lf3ZLo9XpQ3tys+YotQEmxxWsw6eduuJT2v03K4jWnHFVE1NcuidqhNq/crR9Gf7BvT+gZMqOnRKJ7r65Orzqt/nV7zFrGSHVQ6LWRt211/0M2ZnFygra65crmOqqQmdsw4AAMafqLz5BvDNW7ToIS1YcJ9qaopUUvKM0eUAAIAIsOcbmKDS0vIlSYcObTG4EgAAECmab2ACstuTlJt7lRoby8IeYgQAAMYnmm9gAlq8+GF1d7dq584njS4FAACMAHu+gQkoKSlXfv+AenvbjS4FAACMACdcAhOQ291sdAkAAGAUJlXzXfnOY6PKW7K28BuuBAAAAAjFnm8AAAAgSmi+AQAAgCih+QYAAACihOYbAAAAiJJJ23wPDjFBEQAAAOPLpGy+O7vOacWjb+upwlJVVB+X308jDgAAAONNqlGDFxSV1srV7dHH5XX6uLxOackO3bHkUq1edrky05xGlwcAAIAYNenefPv9QyradTgo1tnVp7c/3K+7f/Gunt+0W65uj0HVAQAAIJZNuuZ77+FmdbjOhb13oTH/wW/+rsaTnVGuDAAAALHOtP6Vk0PuMyfV0XxUx2p2q/FAifw+b9jFC5bdr6X3PC6/r1+eXrcizYuWCydctnf2qqzqmIr/2aADda1h116al6E3n1gliRMuAQAAEB2mJ/8WPBakx9Wm4s2/05EvPgxZfMOq9br+zkfCPuhiedES7nj5plMuvVW0T8V7GkLubd14r1KTHDTfAAAAiArTjNk3DaVm5mnanGs0d+FdmpKWI0na8uKPVFe1IyQhzmyR1Z6gxORLNJK8aAjXfF+w/oWPtOfgycC12WzSjlfXym6z0HwDAAAgKuI6WxrUUF2sz977o954/CY1HiiRJF11471hEwb9PvWfc2ukeUZqP9ur2n+3B8UWFkyX3TYph70AAABgnAr6wqW3v097tr8mScrNXxDxQ0abFw1en1+//PMOdfX0B2LJTrvW37fYwKoAAAAQi0KmnbjPnpYkDXjCTwwZzmjzxtqWksM62tQRuDaZTHrmZ7cpK5153wAAAIiukOZ7+pxrJUnHaz8f0YNGmzfWqmpbgq6tlji5ezzq9/oNqggAAACxKmjTsy0+UYvufER+n1efb3sp4oeMNi8astITg64HvH79asMOWcxxykp36rG1NxhUGQAAAGJN0JvvW+97WimZear4xwadOVUX8UNGmxcNa26brymJ9pC4zz+o5ja3+r0+A6oCAABALAo034tXrtPc61aqoXqn9nz0WsQPGG1etGRnOPW95fOGve+wW6NYDQAAAGKZRZJuXPNrXXvrg6qv+lRFrz6kQX9kb4NHmxdNdU1n9OaWvSFxs9mkzFSn0pIcBlQFAACAWGS5/YHnNG/JPaqt3KZthesiaqDjzBbddv/TI84zwtayI/IP/u8Qz9zMJD396C3Ky0mV2WwysDIAAADEGkvB4ru1+4M/qWLrRin4pPmwEpLSdddPX1Nu/jUjyjOKOS64wW5uc6ti/3HNmpZmUEUAAACIVZYPXv6x6vZ9EtHirJkFWvVIoRyJSRpJnpFuXzJbW0pq5PMPBmKvv/+F0pId+s4NlxpYGQAAAGKNad2G+mFfW1eXbdYXn7xxfqEpTute+VJWu0Oec10619UxXFpQXjRVvvNY2HhR6WE9/9fdQbGUKfHauvFemUwmLVlbGI3yAAAAEOMsaTmzhr2ZMCU98PPQ0KAGPD2y2h2KT0hWfEJyRHnjwcqll+tQXZs+Kj8aiLm6PWpuc2ta1vCfAwAAAPgmWZ57IC/ixS///Nqxq2SM9Hv92lXZqH/VNAfFrRazUph0AgAAgCiyfP2Sieesu0+Vh06qovqEKvYfV1+/N2TNmuUFcjpsBlQHAACAWDXpmu+Sykb99tUSDV1kAsuKpZfph6sn3lt8AAAATGyTrvleOG+67DazPP2hc8fTkxP06Pev07KFw+9zBwAAAMbKpGu+Ex1W3bxwlraVHQnEsjOc+u7NBVq9bK7sVrOB1QEAACCWTbrmW5JWLr1MO/c0aMlVM3TL9bN1/ZXTFWfiNEsAAAAYy+R0zhy/x1P+H+LtNnn6B4wuAwAAAAiIM7qAsULjDQAAgPHmP23ZLXbCCOSkAAAAAElFTkSuQmCC;" vertex="1" parent="UT8-AXGc3I82vWqhKo7S-1">
          <mxGeometry x="277.5" y="380" width="735" height="706" as="geometry" />
        </mxCell>
        <mxCell id="a5m4q7IpltlXihAYWIj0-6" value="Object Oriented Programming" style="rounded=0;whiteSpace=wrap;html=1;fontFamily=Comfortaa;fontSource=https%3A%2F%2Ffonts.googleapis.com%2Fcss%3Ffamily%3DComfortaa;fontSize=24;" vertex="1" parent="UT8-AXGc3I82vWqhKo7S-1">
          <mxGeometry x="1170" y="40" width="270" height="70" as="geometry" />
        </mxCell>
        <mxCell id="a5m4q7IpltlXihAYWIj0-7" value="Functional Programming" style="rounded=0;whiteSpace=wrap;html=1;fontFamily=Comfortaa;fontSource=https%3A%2F%2Ffonts.googleapis.com%2Fcss%3Ffamily%3DComfortaa;fontSize=24;" vertex="1" parent="UT8-AXGc3I82vWqhKo7S-1">
          <mxGeometry x="1170" y="270" width="270" height="70" as="geometry" />
        </mxCell>
      </root>
    </mxGraphModel>
  </diagram>
</mxfile>
